<?xml version="1.0" standalone="no"?>
<!DOCTYPE svg PUBLIC "-//W3C//DTD SVG 1.1//EN" "http://www.w3.org/Graphics/SVG/1.1/DTD/svg11.dtd" >
<svg xmlns="http://www.w3.org/2000/svg" xmlns:xlink="http://www.w3.org/1999/xlink" version="1.1">
<metadata>
Created by FontForge 20170731 at Wed Nov 28 12:54:55 2018
 By Aleksey,,,
</metadata>
<defs>
<font id="ColorTube-Regular" horiz-adv-x="1017" >
  <font-face 
    font-family="ColorTube"
    font-weight="400"
    font-stretch="normal"
    units-per-em="1000"
    panose-1="0 0 0 0 0 0 0 0 0 0"
    ascent="800"
    descent="-200"
    x-height="807"
    cap-height="1088"
    bbox="11 -335 1633 1355"
    underline-thickness="50"
    underline-position="-150"
    unicode-range="U+0020-F009"
  />
<missing-glyph horiz-adv-x="778" 
 />
    <glyph glyph-name=".notdef" horiz-adv-x="778" 
 />
    <glyph glyph-name=".null" horiz-adv-x="0" 
 />
    <glyph glyph-name="nonmarkingreturn" horiz-adv-x="333" 
 />
    <glyph glyph-name="space" unicode=" " horiz-adv-x="629" 
 />
    <glyph glyph-name="exclam" unicode="!" horiz-adv-x="358" 
d="M250.5 1057q29.5 -30 29.5 -72v-549q0 -42 -29.5 -71.5t-71.5 -29.5t-71.5 29.5t-29.5 71.5v549q0 42 29.5 72t71.5 30t71.5 -30zM250.5 192.5q29.5 -29.5 29.5 -71.5v-20q0 -42 -29.5 -71.5t-71.5 -29.5t-71.5 29.5t-29.5 71.5v20q0 42 29.5 71.5t71.5 29.5t71.5 -29.5z
" />
    <glyph glyph-name="dollar" unicode="$" horiz-adv-x="1004" 
d="M926 308q0 -55 -18 -107t-54 -94q-43 -53 -105 -84t-136 -41v-31q0 -42 -30 -71.5t-72 -29.5t-71.5 29.5t-29.5 71.5v38q-72 14 -130 39.5t-123 62.5l-27 15q-24 13 -38 37.5t-14 51.5q0 42 29.5 72t71.5 30q31 0 57 -18l33 -18q40 -23 69.5 -37.5t71.5 -26.5v276
q-142 40 -220 119t-78 197q0 40 9 83q22 100 95 163t194 77v25q0 42 29.5 72t71.5 30t72 -30t30 -72v-34q91 -21 201 -77q24 -11 40 -32t20 -48v-2q1 -2 1 -5v-6v0v-3v-7l-1 -2q0 -6 -1 -8v-2q-2 -6 -2 -8l-1 -2l-3 -8v-1l-3 -6q-13 -26 -37.5 -40.5t-52.5 -14.5
q-17 0 -29 4t-36 16q-45 24 -96 41v-260q313 -91 313 -324zM315 790q0 -34 21 -58t74 -45v220q-45 -9 -65.5 -29t-26.5 -56q-3 -16 -3 -32zM698 236.5q25 33.5 25 70.5q0 15 -4 29q-15 47 -106 82v-230q60 15 85 48.5z" />
    <glyph glyph-name="ampersand" unicode="&#x26;" horiz-adv-x="1115" 
d="M1037 94q0 -42 -29.5 -71.5t-71.5 -29.5q-44 0 -73 31l-81 83q-148 -141 -302 -141q-105 0 -194 43q-101 49 -154.5 132.5t-53.5 177.5q0 96 55.5 180t159.5 132q13 -22 39 -58l-10 14l-29 44q-2 4 -14 26q-15 29 -23 57q-15 45 -15 88t8 79q13 49 31 82q16 28 38 52
q34 36 76 54q23 11 54 19q37 7 65 7h9q17 0 47 -3q37 -6 69 -17q29 -10 53 -25q42 -24 70 -58q19 -24 33 -49q15 -29 25 -68q11 -44 11 -90q0 -47 -13 -92q-15 -50 -44 -91q-19 -29 -48 -54q-26 -21 -54 -36l95 -99q36 57 68 121q13 25 37.5 40.5t53.5 15.5q42 0 71.5 -29.5
t29.5 -71.5q0 -24 -11 -46l-1 -2v-1q-46 -91 -103 -175l98 -100h-1q29 -29 29 -71zM463 869.5q-17 -22.5 -17 -56.5q0 -33 10 -55q18 -41 58 -85q61 7 87 39t26 75q0 22 -6 41.5t-14 30.5q-14 18 -39 26t-47 7q-41 0 -58 -22.5zM365 535l31 -32l-30 31q0 1 -1 1zM396 503
l1 -1zM400 499l23 -24l-20 21zM640 253l-206 211q-70 -12 -112 -54t-42 -93q0 -30 16.5 -58.5t49.5 -50.5q27 -19 61.5 -29.5t72.5 -10.5q73 1 160 85z" />
    <glyph glyph-name="period" unicode="." horiz-adv-x="358" 
d="M107.5 14q-29.5 30 -29.5 72t29.5 71.5t71.5 29.5t71.5 -29.5t29.5 -71.5t-29.5 -72t-71.5 -30t-71.5 30z" />
    <glyph glyph-name="zero" unicode="0" horiz-adv-x="1084" 
d="M782 1020.5q105 -79.5 165 -211t60 -280.5q0 -121 -41 -232q-41 -113 -115 -187q-48 -51 -115 -85q-90 -44 -189 -44h-1q-144 0 -250.5 78t-162.5 204t-56 269q0 142 57.5 270t168.5 212q55 41 117 63.5t127 22.5q130 0 235 -79.5zM685.5 232.5q57.5 48.5 87.5 127.5
t30 169q0 98 -35 185.5t-102 138.5q-58 45 -119 45q-62 0 -124 -47.5t-102 -131.5t-40 -186q0 -95 32 -174.5t92.5 -127t141.5 -47.5t138.5 48.5z" />
    <glyph glyph-name="one" unicode="1" horiz-adv-x="640" 
d="M479 1055q30 -30 30 -72v-882q0 -42 -30 -71.5t-72 -29.5t-71.5 29.5t-29.5 71.5v743l-96 -31q-1 -1 -4 -1l-5 -2l-4 -1q-4 0 -6 -1h-2h-10q-42 0 -71.5 29.5t-29.5 71.5q0 33 19.5 59.5t50.5 36.5v1h1l221 72l-1 -1l2 1l2 1q2 0 3 1h2l9 3h2l7 1h3q3 1 8 1q42 0 72 -30z
M373 1079zM373 1079l-2 -1zM371 1078h-1h1zM369 1077z" />
    <glyph glyph-name="two" unicode="2" horiz-adv-x="983" 
d="M839 173q30 -30 30 -72t-30 -71.5t-72 -29.5l-588 1h1q-22 0 -39 7q-31 13 -47 37.5t-16 54.5q0 38 22 66l4 5l3 4q79 85 150 149t172 148q11 9 51 42t67 59v1q88 84 88 162q0 45 -27 81.5t-64 56.5t-65 20q-59 0 -108.5 -27t-74.5 -69q-13 -25 -36.5 -39.5t-52.5 -14.5
q-34 0 -61 20.5t-36 52.5q-2 4 -2 7l-1 2q-2 12 -2 19q0 25 13 50q53 94 152.5 148.5t208.5 53.5q87 0 170.5 -49t136 -133t52.5 -181q0 -77 -36.5 -155t-114.5 -152q-32 -31 -129 -112q-79 -65 -131 -112h340q42 0 72 -30zM246 27l-2 -2q2 0 2 2z" />
    <glyph glyph-name="three" unicode="3" horiz-adv-x="909" 
d="M688.5 650.5q69.5 -51.5 106 -126t36.5 -160.5v-20v0q-6 -102 -67 -182t-155.5 -124t-196.5 -44q-96 0 -180 42t-138 126l-4 6v1q-1 1 -4 7l-1 2l-2 7q-1 1 -1 3l-2 7v2l-2 8v3v6v3v1v5v5l1 3q5 37 33.5 62t66.5 25q39 0 68 -26l1 -1l12 -14h1l3 -6q24 -38 63 -56.5
t85 -18.5q51 0 100.5 21.5t81.5 58t34 79.5q1 21 -4 48q-24 97 -141 118q-26 5 -65 5q-62 0 -138 -16q-13 -3 -27 -3q-44 0 -70.5 30.5t-26.5 71.5q0 24 10.5 46t30.5 36l206 194h-224q-42 0 -71.5 30t-29.5 72t29.5 71.5t71.5 29.5h479q21 0 40 -8q30 -13 45.5 -38
t15.5 -54q0 -24 -10 -45.5t-29 -36.5l-197 -186q96 -18 165.5 -69.5z" />
    <glyph glyph-name="four" unicode="4" horiz-adv-x="1129" 
d="M1021 400.5q30 -29.5 30 -71.5t-30 -72t-72 -30h-101v-126q0 -42 -30 -71.5t-71 -29.5q-42 0 -71.5 29.5t-30.5 71.5v126h-466q-48 0 -74.5 29.5t-26.5 70.5q0 23 8.5 43.5t24.5 34.5l554 637l6 7q15 17 35 26t41 9q42 0 71.5 -29.5t29.5 -71.5v-553h101q42 0 72 -29.5z
M645 711l-244 -281h244v281z" />
    <glyph glyph-name="five" unicode="5" horiz-adv-x="909" 
d="M646 678q92 -49 139 -130t47 -176q0 -110 -61 -196.5t-158.5 -135t-202.5 -48.5q-96 0 -179 42t-137 126q-16 26 -16 55q0 42 29.5 71.5t71.5 29.5q26 0 48.5 -12.5t36.5 -34.5q25 -38 63 -56.5t82 -18.5q53 0 104 23.5t83 64.5t32 90q0 23 -6 42q-17 59 -69 85t-128 26
q-84 0 -202 -31q-20 -5 -33 -5q-44 0 -70.5 31t-26.5 72q0 12 3 24l-3 -13l19 385q0 39 31 69q17 17 39 24q2 1 11 3t20 2h485q42 0 72 -30t30 -72t-30 -71.5t-72 -29.5h-1h-387l-9 -165q60 9 122 9q131 0 223 -49zM132 924q-18 25 -20 56q1 -31 20 -56zM93 598v5v-5z" />
    <glyph glyph-name="six" unicode="6" horiz-adv-x="966" 
d="M700.5 639q91.5 -47 140 -128.5t48.5 -182.5q0 -96 -54 -177t-146.5 -128.5t-202.5 -47.5h-1q-107 0 -198.5 46t-146 125t-56.5 175q-6 70 -6 144q0 143 26 252q43 183 154 276.5t264 93.5q78 0 152.5 -25.5t131.5 -73.5l1 -1q1 0 1 -1q2 0 2 -2l5 -4l3 -3l3 -4l3 -4
l3 -4l3 -5l2 -4l2 -4q2 -4 2 -5l2 -4q0 -3 2 -5q0 -3 1 -4l1 -6q0 -3 1 -4v-6v-5q1 -1 1 -4v-1l-1 -6v-4l-1 -5q0 -3 -1 -4q0 -4 -1 -6l-1 -4l-2 -5l-1 -4l-3 -5l-2 -4l-2 -4l-3 -5l-3 -3l-3 -5l-0.5 -0.5l-0.5 -0.5l-2 -2l-4 -5l-4 -3l-4 -3l-4 -3l-5 -3l-4 -3q-4 -2 -5 -2
l-4 -3q-2 0 -6 -2l-4 -1l-7 -2l-3 -1l-7 -1h-3q-2 -1 -5 -1h-6h-10q0 1 -2 1q-5 0 -7 1q-2 0 -3 1l-6 1l-4 1l-5 2l-4 2l-5 2l-3 2l-5 3l-3 2l-5 3l-3 3h-1q-28 25 -70 38.5t-84 13.5q-85 0 -136 -48t-78 -138q-5 -18 -8.5 -34t-4.5 -21q90 43 191 43q123 0 214.5 -47z
M584.5 198q46.5 20 74 54.5t27.5 75.5q0 76 -55.5 116t-133.5 40q-53 0 -101.5 -18.5t-79 -54t-30.5 -83.5q0 -40 27 -74.5t73 -55t100 -20.5q52 0 98.5 20z" />
    <glyph glyph-name="seven" unicode="7" horiz-adv-x="925" 
d="M818 1055.5q30 -28.5 30 -70.5q0 -29 -16 -58l-462 -873l-1 -2l-3 -6l-2 -2q-1 -3 -5 -7l-6 -7q-1 0 -1 -1q-4 -4 -6 -5l-0.5 -0.5l-0.5 -0.5l-7 -6h-1q-3 -3 -7 -4l-2 -1l-6 -3l-4 -2l-5 -2l-4 -1l-6 -1q-1 -1 -3 -1q-3 -1 -7 -1q-2 0 -3 -1h-9v0v0h-10l-0.5 0.5
l-0.5 0.5q-6 0 -9 1h-2q-4 2 -7 2q-1 1 -3 1q-4 2 -6 2l-3 2l-6 3q-13 6 -25 18l-2 2l-5 5l-1 2l-5 6v1q-15 23 -16 49l-1 6l1 4v6q0 3 1 5v5l2 6q0 2 1 3q0 3 2 7l1 3l4 8v1v0l0.5 0.5l0.5 0.5l387 731h-400q-42 0 -71.5 30t-29.5 72t29.5 71.5t71.5 29.5h566h3
q40 0 70 -28.5z" />
    <glyph glyph-name="eight" unicode="8" horiz-adv-x="994" 
d="M884 450q32 -63 32 -130q0 -88 -52 -166.5t-147.5 -127t-219.5 -48.5h-1v0q-123 0 -218.5 48.5t-148 127t-52.5 166.5q0 67 32.5 130t97.5 113q-43 41 -67 94t-24 111q0 86 51 158t138.5 114t191.5 42q105 0 192 -42t138 -113.5t51 -156.5q0 -59 -24 -112.5t-67 -94.5
q65 -50 97 -113zM498 880q-46 0 -87.5 -15t-66.5 -41t-25 -56q0 -29 25 -54.5t66 -41t88 -15.5q42 0 76 11q43 14 72.5 41t29.5 59q0 23 -15.5 43.5t-39.5 34.5q-52 34 -123 34zM605 200q50 19 79 50.5t29 67.5q0 38 -36 73q-33 31 -81.5 47t-98.5 16h-11
q-45 -2 -96.5 -18.5t-85.5 -58.5q-23 -29 -23 -59q0 -36 30 -67.5t80 -50.5t106 -19q58 0 108 19z" />
    <glyph glyph-name="nine" unicode="9" horiz-adv-x="971" 
d="M894 573q0 -135 -26 -238q-30 -122 -94.5 -200.5t-148.5 -115t-176 -36.5q-82 0 -158.5 27t-131.5 74q-36 31 -36 77q0 42 30 71.5t72 29.5q39 0 68 -26q29 -24 70 -37t82 -13q87 0 140 43t80 129q11 36 16 74q-94 -48 -200 -48h-1q-130 1 -230.5 57t-144.5 164
q-27 64 -27 134q0 96 53.5 178t146 130t203.5 48q102 0 194 -43q89 -43 135.5 -106.5t60.5 -116t13 -76.5q10 -97 10 -180zM681 742q0 39 -27 74t-73 55.5t-100 20.5q-52 0 -100 -21t-76 -58q-24 -34 -24 -78q0 -38 20.5 -71.5t65 -55t113.5 -21.5q58 1 104 23.5t72 58.5
q25 35 25 73z" />
    <glyph glyph-name="question" unicode="?" horiz-adv-x="847" 
d="M609 1041.5q72 -45.5 115.5 -120.5t43.5 -158q0 -77 -41 -148t-126 -126q-26 -17 -59 -33v-75q0 -16 -5 -33q-11 -30 -37 -49.5t-59 -19.5t-59.5 19.5t-36.5 49.5q-6 15 -6 33v142q0 31 18.5 57.5t48.5 37.5q84 31 122.5 70.5t38.5 80.5q0 30 -18 56.5t-46 42.5t-54 16
q-53 0 -87 -11.5t-55 -32t-39 -54.5q-14 -26 -41 -40l-8 -4h-1l-8 -3l-2 -1l-8 -2h-1l-9 -2h-2h-9v0h-9h-2q-12 2 -19 4l-1 1q-6 1 -16 7q-2 0 -3 1l-4 3q-3 1 -4.5 2t-2.5 2l-0.5 0.5l-0.5 0.5q-15 11 -25 27.5t-13 35.5v4q-1 1 -1 4v8v1v1v10l1 8q1 1 1 3l1 5l3 9v1l8 15
q56 100 141.5 149.5t215.5 50.5h1q3 0 4 -1v1q83 0 155 -45.5zM512.5 192.5q29.5 -29.5 29.5 -71.5v-20q0 -42 -29.5 -71.5t-71.5 -29.5t-72 29.5t-30 71.5v20q0 42 30 71.5t72 29.5t71.5 -29.5z" />
    <glyph glyph-name="A" unicode="A" horiz-adv-x="1199" 
d="M1138 101q0 -42 -29.5 -71.5t-71.5 -29.5q-29 0 -53.5 15.5t-36.5 40.5l-1 -1l-104 206h-274q-42 0 -72 30t-30 72t30 71.5t72 29.5h171l-150 296l-358 -705v1q-13 -25 -37 -40.5t-53 -15.5q-42 0 -71.5 29.5t-29.5 71.5q0 24 11 46h-1l445 875q11 28 36.5 46t57.5 18
t57 -18t37 -46l444 -875q11 -22 11 -46z" />
    <glyph glyph-name="A" unicode="&#xc5;" horiz-adv-x="1199" 
d="M1138 101q0 -42 -29.5 -71.5t-71.5 -29.5q-29 0 -53.5 15.5t-36.5 40.5l-1 -1l-104 206h-274q-42 0 -72 30t-30 72t30 71.5t72 29.5h171l-150 296l-358 -705v1q-13 -25 -37 -40.5t-53 -15.5q-42 0 -71.5 29.5t-29.5 71.5q0 24 11 46h-1l445 875q11 28 36.5 46t57.5 18
t57 -18t37 -46l444 -875q11 -22 11 -46z" />
    <glyph glyph-name="A" unicode="&#xc3;" horiz-adv-x="1199" 
d="M1138 101q0 -42 -29.5 -71.5t-71.5 -29.5q-29 0 -53.5 15.5t-36.5 40.5l-1 -1l-104 206h-274q-42 0 -72 30t-30 72t30 71.5t72 29.5h171l-150 296l-358 -705v1q-13 -25 -37 -40.5t-53 -15.5q-42 0 -71.5 29.5t-29.5 71.5q0 24 11 46h-1l445 875q11 28 36.5 46t57.5 18
t57 -18t37 -46l444 -875q11 -22 11 -46z" />
    <glyph glyph-name="A" unicode="&#xc2;" horiz-adv-x="1199" 
d="M1138 101q0 -42 -29.5 -71.5t-71.5 -29.5q-29 0 -53.5 15.5t-36.5 40.5l-1 -1l-104 206h-274q-42 0 -72 30t-30 72t30 71.5t72 29.5h171l-150 296l-358 -705v1q-13 -25 -37 -40.5t-53 -15.5q-42 0 -71.5 29.5t-29.5 71.5q0 24 11 46h-1l445 875q11 28 36.5 46t57.5 18
t57 -18t37 -46l444 -875q11 -22 11 -46z" />
    <glyph glyph-name="A" unicode="&#xc1;" horiz-adv-x="1199" 
d="M1138 101q0 -42 -29.5 -71.5t-71.5 -29.5q-29 0 -53.5 15.5t-36.5 40.5l-1 -1l-104 206h-274q-42 0 -72 30t-30 72t30 71.5t72 29.5h171l-150 296l-358 -705v1q-13 -25 -37 -40.5t-53 -15.5q-42 0 -71.5 29.5t-29.5 71.5q0 24 11 46h-1l445 875q11 28 36.5 46t57.5 18
t57 -18t37 -46l444 -875q11 -22 11 -46z" />
    <glyph glyph-name="A" unicode="&#xc0;" horiz-adv-x="1199" 
d="M1138 101q0 -42 -29.5 -71.5t-71.5 -29.5q-29 0 -53.5 15.5t-36.5 40.5l-1 -1l-104 206h-274q-42 0 -72 30t-30 72t30 71.5t72 29.5h171l-150 296l-358 -705v1q-13 -25 -37 -40.5t-53 -15.5q-42 0 -71.5 29.5t-29.5 71.5q0 24 11 46h-1l445 875q11 28 36.5 46t57.5 18
t57 -18t37 -46l444 -875q11 -22 11 -46z" />
    <glyph glyph-name="B" unicode="B" horiz-adv-x="1081" 
d="M971 480q32 -68 32 -142q0 -87 -41.5 -164.5t-118 -125.5t-174.5 -48h-490q-7 0 -10 1q-29 2 -51.5 19.5t-33.5 44.5q-6 18 -6 36v882v1v1q0 42 29.5 71.5t71.5 29.5h1h439q88 0 159.5 -43.5t111.5 -115.5t40 -153q0 -92 -54 -172q-2 -2 -2 -4q65 -50 97 -118zM737 221.5
q30 18.5 46.5 49t16.5 64.5q0 38 -22 72q-24 35 -55 47t-67 12l-34 -1l-182 1l-3 -1q-42 0 -71.5 30t-29.5 72q0 39 26.5 68t64.5 33h10h1h183q50 1 77.5 33t27.5 75q0 42 -26.5 73.5t-73.5 32.5h-346v-679h389q38 0 68 18.5z" />
    <glyph glyph-name="C" unicode="C" horiz-adv-x="1133" 
d="M1052 209v-2q0 -3 -1 -5v-5q0 -3 -1 -5q0 -3 -1 -5q0 -3 -1 -4l-1 -5l-2 -5l-2 -5l-2 -4q0 -2 -2 -4l-3 -5l-2 -4l-3 -4l-3 -4l-3 -3l-4 -4l-0.5 -0.5l-0.5 -0.5q-77 -72 -174 -111q-101 -41 -209 -41v0q-86 0 -166 26q-77 23 -147 70q-67 45 -119 108t-83 138
q-44 102 -44 218q0 90 25 166q23 77 70 147q45 67 108 119t138 83q102 44 218 44v0q110 0 213 -42q99 -41 175 -114l0.5 -0.5l0.5 -0.5l4 -4q2 -2 2 -3l4 -4l3 -4l2 -4l3 -5l2 -4l2 -4q1 -1 1 -2.5t1 -2.5l1 -5q1 -1 1 -2.5t1 -2.5l1 -4q0 -3 1 -5v-5q1 -1 1 -4v-6v-1v-3v-6
q-1 -2 -1 -5l-1 -5l-1 -5l-1 -5l-2 -4l-1 -5l-2 -4l-3 -5l-2 -4l-3 -5q0 -1 -1 -2l-2 -2l-2 -4q-3 -1 -4 -4l-2 -2l-1 -1l-5 -4l-3 -3l-4 -4l-4 -2l-7 -5l-5 -2l-5 -3l-4 -1l-6 -2l-3 -1l-6 -1q-2 -1 -5 -1l-5 -1h-10v0h-10q-3 0 -4 1h-6l-5 2q-3 0 -4 1l-5 1l-5 2l-4 2
l-5 2l-4 3l-4 2l-4 3l-4 3l-4 4q-1 0 -3 2q-49 47 -111 73q-67 27 -136 27q-55 0 -106 -17q-50 -15 -93 -44q-90 -61 -130 -157q-28 -67 -28 -139q0 -53 16 -106q16 -50 45 -94q60 -88 157 -129q67 -28 139 -28q70 0 133 26q62 25 111 71q2 0 2 2l4 3l4 3l4 3l5 2l3 3
q3 0 5 2q2 0 4 2l5 1l4 2l6 1q1 1 4 1q2 1 6 1l4 1h9v0h1h10l8 -2h2q11 -2 19 -6l2 -1l7 -3l4 -3q1 -1 2 -1.5l3 -1.5q1 0 3 -2l5 -4l3 -3l4 -4l0.5 -0.5l0.5 -0.5l2 -2l4 -4l3 -4l3 -4q0 -1 2 -5l3 -4l2 -4q0 -1 2 -5l1 -5l2 -4l1 -5l1 -5l1 -5v-5l1 -5v-3z" />
    <glyph glyph-name="C" unicode="&#xc7;" horiz-adv-x="1133" 
d="M1052 209v-2q0 -3 -1 -5v-5q0 -3 -1 -5q0 -3 -1 -5q0 -3 -1 -4l-1 -5l-2 -5l-2 -5l-2 -4q0 -2 -2 -4l-3 -5l-2 -4l-3 -4l-3 -4l-3 -3l-4 -4l-0.5 -0.5l-0.5 -0.5q-77 -72 -174 -111q-101 -41 -209 -41v0q-86 0 -166 26q-77 23 -147 70q-67 45 -119 108t-83 138
q-44 102 -44 218q0 90 25 166q23 77 70 147q45 67 108 119t138 83q102 44 218 44v0q110 0 213 -42q99 -41 175 -114l0.5 -0.5l0.5 -0.5l4 -4q2 -2 2 -3l4 -4l3 -4l2 -4l3 -5l2 -4l2 -4q1 -1 1 -2.5t1 -2.5l1 -5q1 -1 1 -2.5t1 -2.5l1 -4q0 -3 1 -5v-5q1 -1 1 -4v-6v-1v-3v-6
q-1 -2 -1 -5l-1 -5l-1 -5l-1 -5l-2 -4l-1 -5l-2 -4l-3 -5l-2 -4l-3 -5q0 -1 -1 -2l-2 -2l-2 -4q-3 -1 -4 -4l-2 -2l-1 -1l-5 -4l-3 -3l-4 -4l-4 -2l-7 -5l-5 -2l-5 -3l-4 -1l-6 -2l-3 -1l-6 -1q-2 -1 -5 -1l-5 -1h-10v0h-10q-3 0 -4 1h-6l-5 2q-3 0 -4 1l-5 1l-5 2l-4 2
l-5 2l-4 3l-4 2l-4 3l-4 3l-4 4q-1 0 -3 2q-49 47 -111 73q-67 27 -136 27q-55 0 -106 -17q-50 -15 -93 -44q-90 -61 -130 -157q-28 -67 -28 -139q0 -53 16 -106q16 -50 45 -94q60 -88 157 -129q67 -28 139 -28q70 0 133 26q62 25 111 71q2 0 2 2l4 3l4 3l4 3l5 2l3 3
q3 0 5 2q2 0 4 2l5 1l4 2l6 1q1 1 4 1q2 1 6 1l4 1h9v0h1h10l8 -2h2q11 -2 19 -6l2 -1l7 -3l4 -3q1 -1 2 -1.5l3 -1.5q1 0 3 -2l5 -4l3 -3l4 -4l0.5 -0.5l0.5 -0.5l2 -2l4 -4l3 -4l3 -4q0 -1 2 -5l3 -4l2 -4q0 -1 2 -5l1 -5l2 -4l1 -5l1 -5l1 -5v-5l1 -5v-3z" />
    <glyph glyph-name="D" unicode="D" horiz-adv-x="1164" 
d="M1087 542q0 -150 -66.5 -274t-183 -196t-262.5 -72h-396v0q-42 0 -71.5 29.5t-29.5 71.5v882v1v1q0 42 29.5 71.5t71.5 29.5l15 -1h381q124 0 231 -55q102 -52 172 -147q47 -62 72 -134q37 -99 37 -207v0zM737.5 248.5q70.5 45.5 108.5 123t38 170.5q0 81 -30 152
q-28 67 -79 113q-35 32 -75 49q-57 26 -125 26h-295v-679h295q92 0 162.5 45.5z" />
    <glyph glyph-name="E" unicode="E" horiz-adv-x="994" 
d="M867 173q30 -30 30 -72t-30 -71.5t-71 -29.5h-588q-29 0 -52 14t-36.5 37t-13.5 50v882v1v1q0 42 30 71.5t72 29.5l14 -1h574q41 0 71 -30t30 -72t-30 -71.5t-71 -29.5h-487v-238h400q42 0 72 -30t30 -72t-30 -71.5t-72 -29.5h-400v-238h486q42 0 72 -30z" />
    <glyph glyph-name="E" unicode="&#xca;" horiz-adv-x="994" 
d="M867 173q30 -30 30 -72t-30 -71.5t-71 -29.5h-588q-29 0 -52 14t-36.5 37t-13.5 50v882v1v1q0 42 30 71.5t72 29.5l14 -1h574q41 0 71 -30t30 -72t-30 -71.5t-71 -29.5h-487v-238h400q42 0 72 -30t30 -72t-30 -71.5t-72 -29.5h-400v-238h486q42 0 72 -30z" />
    <glyph glyph-name="E" unicode="&#xc9;" horiz-adv-x="994" 
d="M867 173q30 -30 30 -72t-30 -71.5t-71 -29.5h-588q-29 0 -52 14t-36.5 37t-13.5 50v882v1v1q0 42 30 71.5t72 29.5l14 -1h574q41 0 71 -30t30 -72t-30 -71.5t-71 -29.5h-487v-238h400q42 0 72 -30t30 -72t-30 -71.5t-72 -29.5h-400v-238h486q42 0 72 -30z" />
    <glyph glyph-name="E" unicode="&#xc8;" horiz-adv-x="994" 
d="M867 173q30 -30 30 -72t-30 -71.5t-71 -29.5h-588q-29 0 -52 14t-36.5 37t-13.5 50v882v1v1q0 42 30 71.5t72 29.5l14 -1h574q41 0 71 -30t30 -72t-30 -71.5t-71 -29.5h-487v-238h400q42 0 72 -30t30 -72t-30 -71.5t-72 -29.5h-400v-238h486q42 0 72 -30z" />
    <glyph glyph-name="F" unicode="F" horiz-adv-x="1001" 
d="M894 1056.5q30 -29.5 30 -71.5t-30 -72t-72 -30l-15 1v-2h-487v-238h401q42 0 71.5 -30t29.5 -72t-29.5 -71.5t-71.5 -29.5h-401v-340q0 -42 -29.5 -71.5t-71.5 -29.5t-71.5 29.5t-29.5 71.5v884q0 41 29 70l0.5 0.5l0.5 0.5l9 7q27 22 62 22h588l15 1q42 0 72 -29.5z
" />
    <glyph glyph-name="G" unicode="G" horiz-adv-x="1139" 
d="M1053 160q-8 -18 -23 -32v0v0v-1v0q-80 -75 -180 -113t-206 -38q-109 0 -211 39.5t-183.5 116.5t-127.5 186q-44 102 -44 217q0 163 79.5 291t209.5 198.5t275 70.5q104 0 203 -38.5t180 -117.5q31 -31 31 -73t-29.5 -72t-71.5 -30q-40 0 -71 29v-1q-52 50 -115 75
t-129 25q-93 0 -176 -45.5t-133.5 -127t-50.5 -184.5t50.5 -184.5t134 -127t177.5 -45.5q118 0 217 71v176h-259q-42 0 -72 29.5t-30 71.5t30 72t72 30h361q42 0 71.5 -30t29.5 -72v-325q0 -21 -9 -41z" />
    <glyph glyph-name="H" unicode="H" horiz-adv-x="1107" 
d="M280 983v-882q0 -42 -29.5 -71.5t-71.5 -29.5t-71.5 29.5t-29.5 71.5v882v2q0 42 29.5 71.5t71.5 29.5t71.5 -29.5t29.5 -71.5v-2zM961.5 29.5q-29.5 -29.5 -71.5 -29.5t-71.5 29.5t-29.5 71.5v340h-352q-42 0 -71.5 29.5t-29.5 71.5t29.5 72t71.5 30h352v339v2
q0 42 29.5 71.5t71.5 29.5t71.5 -29.5t29.5 -71.5v-2v-882q0 -42 -29.5 -71.5z" />
    <glyph glyph-name="I" unicode="I" horiz-adv-x="431" 
d="M316 103q0 -42 -29.5 -72t-71.5 -30t-72 30t-30 72l1 1h-1v882q0 42 30 72t72 30t71.5 -30t29.5 -72v-882v-1z" />
    <glyph glyph-name="I" unicode="&#xcf;" horiz-adv-x="431" 
d="M316 103q0 -42 -29.5 -72t-71.5 -30t-72 30t-30 72l1 1h-1v882q0 42 30 72t72 30t71.5 -30t29.5 -72v-882v-1z" />
    <glyph glyph-name="I" unicode="&#xce;" horiz-adv-x="431" 
d="M316 103q0 -42 -29.5 -72t-71.5 -30t-72 30t-30 72l1 1h-1v882q0 42 30 72t72 30t71.5 -30t29.5 -72v-882v-1z" />
    <glyph glyph-name="I" unicode="&#xcd;" horiz-adv-x="431" 
d="M316 103q0 -42 -29.5 -72t-71.5 -30t-72 30t-30 72l1 1h-1v882q0 42 30 72t72 30t71.5 -30t29.5 -72v-882v-1z" />
    <glyph glyph-name="I" unicode="&#xcc;" horiz-adv-x="431" 
d="M316 103q0 -42 -29.5 -72t-71.5 -30t-72 30t-30 72l1 1h-1v882q0 42 30 72t72 30t71.5 -30t29.5 -72v-882v-1z" />
    <glyph glyph-name="J" unicode="J" horiz-adv-x="903" 
d="M795.5 1059.5q29.5 -29.5 29.5 -71.5v-617q0 -118 -45 -204t-129.5 -132.5t-200.5 -46.5q-60 0 -102.5 5.5t-107 38t-132.5 105.5q-2 0 -2 2l-0.5 0.5l-0.5 0.5q-27 29 -27 69q0 42 29.5 71.5t71.5 29.5q22 0 41 -8.5t33 -23.5h1q42 -45 75.5 -64t54.5 -21.5t66 -2.5
q87 0 129.5 42.5t42.5 138.5v617q0 42 30 71.5t72 29.5t71.5 -29.5z" />
    <glyph glyph-name="K" unicode="K" horiz-adv-x="1042" 
d="M964 101q0 -42 -29.5 -71.5t-71.5 -29.5q-24 0 -44.5 9.5t-34.5 27.5l-347 423l-157 -163v-196q0 -42 -29.5 -71.5t-71.5 -29.5t-71.5 29.5t-29.5 71.5v888q2 40 31.5 68t69.5 28t69.5 -28t31.5 -68v-400l448 465h1l5 5l2 2l5 4q2 2 3 2q6 4 9 5q2 2 4 2l5 3l4 1q2 2 5 2
l4 1l6 2h4q2 1 6 1l10 1v0l10 -1h4q2 -1 6 -1q1 -1 4 -1q1 -1 2.5 -1t2.5 -1l5 -1l4 -2q1 0 5 -2l4 -2l4 -2l5 -3l4 -3l4 -3l4 -3q2 -2 2 -3h1l4 -5l3 -3l3 -4l3 -4q2 -2 2 -3l3 -5l2 -4q2 -4 2 -5q2 -4 2 -5l2 -4l1 -6q1 -1 1 -4q1 -1 1 -5l1 -5v-4v-6v-1v-3v-6q0 -3 -1 -5
v-5q-1 -1 -1 -4q-1 -1 -1 -2.5t-1 -2.5l-1 -5l-2 -5l-2 -4l-2 -5q-2 -2 -2 -4l-3 -4l-3 -4l-3 -4q-1 -3 -4 -4q0 -1 -2 -3l-295 -306l362 -441q23 -30 23 -65z" />
    <glyph glyph-name="L" unicode="L" horiz-adv-x="904" 
d="M796 173q30 -30 30 -72t-30 -71.5t-72 -29.5h-522q-42 0 -71.5 29.5t-29.5 71.5v882q0 42 29.5 72t71.5 30t71.5 -30t29.5 -72v-780h421q42 0 72 -30z" />
    <glyph glyph-name="M" unicode="M" horiz-adv-x="1294" 
d="M1150 982v-882q-1 -41 -30.5 -70.5t-70.5 -29.5q-42 0 -71.5 29.5t-30.5 70.5v582l-259 -341l-1 -1q-6 -8 -10 -11q-3 -5 -9 -8q-27 -22 -61 -22q-17 0 -38 8l-7 3q-10 4 -18 11l-10 9l-9 11l-2 2l-3 6q-19 23 -101 136l-139 188v-572v-1v0q0 -41 -30 -70.5t-71 -29.5
q-42 0 -71.5 29.5t-29.5 70.5v1v880v0v1q0 42 29.5 71.5t71.5 29.5q25 0 46.5 -11t35.5 -31l347 -471l359 472l1 1l2 3l0.5 0.5l0.5 0.5q2 2 2 3l5 4l3 3l4 4l4 3l4 3l4 2l5 3l2 1l2 1l6 2l4 2l5 1l4 1l6 2h5q2 1 5 1h3h5h9h3q2 -1 7 -1q1 -1 3 -1l6 -2h2l0.5 -0.5l0.5 -0.5
v0v0l8 -3v0q6 -2 8 -4l3 -1l5 -3l4 -3l2 -1q2 -2 3 -2v-1h1q2 -2 2 -3l5 -4l3 -3l4 -5l2 -3l4 -5l2 -4l3 -4l1 -2q0 -2 1 -2q0 -2 2 -6l1 -4q2 -4 2 -6q1 -1 1 -4l2 -6v-4l1 -6v-2v-5z" />
    <glyph glyph-name="N" unicode="N" horiz-adv-x="1106" 
d="M1028 101v-3v0q-2 -41 -31 -69.5t-70 -28.5q-23 0 -43 9.5t-35 26.5l-569 671v-606q0 -42 -29.5 -71.5t-71.5 -29.5t-71.5 29.5t-29.5 71.5v882v4v3v5q1 2 1 5l1 5l1 5l2 5l1 4q1 1 1 2.5t1 2.5l2 4q2 4 2 5l3 4l3 4l3 4l2 4l4 3l3 4l4 3l3 3l4 3l4 3l5 3q1 0 3 2
q1 1 2.5 1t2.5 1l4 2q1 1 2.5 1t2.5 1l4 1l6 2q3 0 4 1q4 0 7 1h3q3 1 10 1t10 -1q35 -3 61 -29h1l4 -5l2 -2v0l569 -670v605q0 42 29.5 72t71.5 30t71.5 -30t29.5 -72v-882v0z" />
    <glyph glyph-name="N" unicode="&#xd1;" horiz-adv-x="1106" 
d="M1028 101v-3v0q-2 -41 -31 -69.5t-70 -28.5q-23 0 -43 9.5t-35 26.5l-569 671v-606q0 -42 -29.5 -71.5t-71.5 -29.5t-71.5 29.5t-29.5 71.5v882v4v3v5q1 2 1 5l1 5l1 5l2 5l1 4q1 1 1 2.5t1 2.5l2 4q2 4 2 5l3 4l3 4l3 4l2 4l4 3l3 4l4 3l3 3l4 3l4 3l5 3q1 0 3 2
q1 1 2.5 1t2.5 1l4 2q1 1 2.5 1t2.5 1l4 1l6 2q3 0 4 1q4 0 7 1h3q3 1 10 1t10 -1q35 -3 61 -29h1l4 -5l2 -2v0l569 -670v605q0 42 29.5 72t71.5 30t71.5 -30t29.5 -72v-882v0z" />
    <glyph glyph-name="O" unicode="O" horiz-adv-x="1304" 
d="M940 1033.5q132 -77.5 209 -209.5t77 -288t-77 -287.5t-209 -209t-288 -77.5v0q-156 0 -288 77.5t-209 209t-77 287.5q0 155 76 286.5t206 209t285 79.5h7q156 0 288 -77.5zM838 215q85 50 135.5 135t50.5 186t-50 186.5t-135.5 135.5t-186.5 50t-186.5 -50
t-135.5 -135.5t-50 -186.5q0 -114 63 -206.5t164 -135.5q69 -29 145 -29q101 0 186 50z" />
    <glyph glyph-name="O" unicode="&#xd8;" horiz-adv-x="1304" 
d="M940 1033.5q132 -77.5 209 -209.5t77 -288t-77 -287.5t-209 -209t-288 -77.5v0q-156 0 -288 77.5t-209 209t-77 287.5q0 155 76 286.5t206 209t285 79.5h7q156 0 288 -77.5zM838 215q85 50 135.5 135t50.5 186t-50 186.5t-135.5 135.5t-186.5 50t-186.5 -50
t-135.5 -135.5t-50 -186.5q0 -114 63 -206.5t164 -135.5q69 -29 145 -29q101 0 186 50z" />
    <glyph glyph-name="O" unicode="&#xd5;" horiz-adv-x="1304" 
d="M940 1033.5q132 -77.5 209 -209.5t77 -288t-77 -287.5t-209 -209t-288 -77.5v0q-156 0 -288 77.5t-209 209t-77 287.5q0 155 76 286.5t206 209t285 79.5h7q156 0 288 -77.5zM838 215q85 50 135.5 135t50.5 186t-50 186.5t-135.5 135.5t-186.5 50t-186.5 -50
t-135.5 -135.5t-50 -186.5q0 -114 63 -206.5t164 -135.5q69 -29 145 -29q101 0 186 50z" />
    <glyph glyph-name="O" unicode="&#xd4;" horiz-adv-x="1304" 
d="M940 1033.5q132 -77.5 209 -209.5t77 -288t-77 -287.5t-209 -209t-288 -77.5v0q-156 0 -288 77.5t-209 209t-77 287.5q0 155 76 286.5t206 209t285 79.5h7q156 0 288 -77.5zM838 215q85 50 135.5 135t50.5 186t-50 186.5t-135.5 135.5t-186.5 50t-186.5 -50
t-135.5 -135.5t-50 -186.5q0 -114 63 -206.5t164 -135.5q69 -29 145 -29q101 0 186 50z" />
    <glyph glyph-name="O" unicode="&#xd3;" horiz-adv-x="1304" 
d="M940 1033.5q132 -77.5 209 -209.5t77 -288t-77 -287.5t-209 -209t-288 -77.5v0q-156 0 -288 77.5t-209 209t-77 287.5q0 155 76 286.5t206 209t285 79.5h7q156 0 288 -77.5zM838 215q85 50 135.5 135t50.5 186t-50 186.5t-135.5 135.5t-186.5 50t-186.5 -50
t-135.5 -135.5t-50 -186.5q0 -114 63 -206.5t164 -135.5q69 -29 145 -29q101 0 186 50z" />
    <glyph glyph-name="O" unicode="&#xd2;" horiz-adv-x="1304" 
d="M940 1033.5q132 -77.5 209 -209.5t77 -288t-77 -287.5t-209 -209t-288 -77.5v0q-156 0 -288 77.5t-209 209t-77 287.5q0 155 76 286.5t206 209t285 79.5h7q156 0 288 -77.5zM838 215q85 50 135.5 135t50.5 186t-50 186.5t-135.5 135.5t-186.5 50t-186.5 -50
t-135.5 -135.5t-50 -186.5q0 -114 63 -206.5t164 -135.5q69 -29 145 -29q101 0 186 50z" />
    <glyph glyph-name="P" unicode="P" horiz-adv-x="1005" 
d="M927 700q0 -58 -17 -114q-16 -52 -49 -101q-31 -46 -74 -81.5t-95 -57.5q-69 -30 -149 -30h-263v-215q0 -42 -29.5 -71.5t-71.5 -29.5t-71.5 29.5t-29.5 71.5v882q0 42 29.5 72t71.5 30h364q60 0 114 -18q55 -17 101 -48t81.5 -74t57.5 -95q30 -73 30 -150zM724 700
q0 31 -8 54q-7 24 -23 48q-29 44 -80 66q-33 14 -70 14h-263v-364h263q29 0 54 9q24 7 47 22q44 31 66 80q14 34 14 71z" />
    <glyph glyph-name="Q" unicode="Q" horiz-adv-x="1304" 
d="M1167 95q1 -3 1 -10q0 -6 -1 -10v-4q-1 -2 -1 -6l-1 -5l-2 -4l-1 -5l-2 -5l-2 -4l-2 -5l-3 -4l-2 -4l-3 -4l-3 -4q-3 -4 -7 -7v-1l-7 -6l-4 -3l-4 -3l-5 -3q-2 -2 -4 -2l-4 -3q-1 0 -5 -2l-4 -1q-1 -1 -2.5 -1t-2.5 -1l-5 -1q-1 -1 -5 -1q-2 -1 -5 -1l-5 -1h-10h-10l-4 1
q-4 0 -5 1q-4 0 -5 1l-5 1l-5 2l-4 1q-4 2 -5 2l-4 3q-2 0 -4 2l-5 3l-4 3l-4 3l-7 6l-40 40q-136 -85 -303 -85q-114 0 -219.5 43.5t-186.5 124.5l-6 6q-80 82 -121 186t-41 214q0 113 43 219t125 188q83 83 188.5 125.5t217.5 42.5t217.5 -42.5t188.5 -125.5
q84 -85 126 -189t42 -213q0 -97 -31 -188.5t-90 -168.5l33 -33l7 -8l3 -3l3 -5l2 -4l3 -4l2 -5l2 -4l2 -5l1 -4q1 -1 1 -2.5t1 -2.5l1 -5q0 -4 1 -5v-5zM1023 542q0 74 -27.5 142t-80.5 121q-54 54 -122 81.5t-141 27.5t-141 -27.5t-122 -81.5q-53 -53 -81 -121.5
t-28 -140.5t28 -140.5t81 -122.5l-2 2l2 -2q55 -55 122 -82.5t138 -27.5q81 0 155 34l-158 158l-6 7l-3 4l-3 4l-3 5l-2 4l-2 4l-3 5l-1 4l-2 5l-1 5l-1 5q-1 1 -1 5l-1 4v20l1 5q0 3 1 5l1 5l1 5q1 1 1 2.5t1 2.5l1 4l3 5l2 4q0 2 2 4l3 5l3 4l3 4l6 7h1q3 4 7 7l4 3l4 3
l4 2l4 3l5 2l4 2l5 2l5 1l4 2l5 1q4 0 6 1h4q4 1 10 1q7 0 10 -1h5q1 -1 5 -1l5 -1q1 -1 2.5 -1t2.5 -1l4 -1l5 -2l4 -2l5 -2l4 -3l4 -2l5 -3l3 -3l8 -7l171 -171q62 91 62 208zM306 309q-36 -5 -59 -29q23 24 59 29zM218 190q3 -23 18 -42q-15 20 -18 42zM240 142l6 -6
l-7 7z" />
    <glyph glyph-name="R" unicode="R" horiz-adv-x="1040" 
d="M941 163q22 -27 22 -62q0 -42 -30 -71.5t-72 -29.5q-23 0 -44 10.5t-36 28.5l-253 327h-248v-265q0 -42 -29.5 -71.5t-71.5 -29.5t-71.5 29.5t-29.5 71.5v882q0 42 29.5 72t71.5 30h424h1q97 0 179.5 -48.5t131 -131t48.5 -179.5q0 -105 -56 -192.5t-149 -132.5z
M731.5 632.5q27.5 40.5 27.5 90.5q0 41 -18.5 77.5t-54 59t-83.5 22.5h-323v-313h297h1h1h24q21 0 47 7q54 16 81.5 56.5z" />
    <glyph glyph-name="S" unicode="S" horiz-adv-x="1032" 
d="M812.5 524q113.5 -80 113.5 -229q0 -91 -46.5 -166.5t-135.5 -120t-211 -44.5q-113 0 -211.5 33t-198.5 99q-21 14 -33 36t-12 48q0 42 29.5 71.5t71.5 29.5q32 0 55 -16v1q76 -50 146 -75t153 -25q99 0 144.5 37t45.5 92q0 40 -29 66t-73 41.5t-122 34.5
q-103 26 -169.5 50t-124 73t-81.5 128q-11 33 -11 78v8v0v0q3 114 53.5 188t132.5 108t180 34q106 0 208 -36q71 -26 133 -59q25 -13 40 -37t15 -53q0 -42 -29.5 -71.5t-71.5 -29.5q-25 0 -47 11q-83 43 -136.5 57t-108.5 14q-64 0 -100.5 -15t-51 -43t-15.5 -73v0v-3
q1 -49 59 -77t138 -46q187 -39 300.5 -119z" />
    <glyph glyph-name="T" unicode="T" horiz-adv-x="1003" 
d="M924 1055q30 -30 30 -72t-30 -71.5t-72 -29.5h-268v-781q0 -42 -30 -71.5t-72 -29.5t-71.5 29.5t-29.5 71.5v781h-269q-42 0 -71.5 29.5t-29.5 71.5t29.5 72t71.5 30h740q42 0 72 -30z" />
    <glyph glyph-name="U" unicode="U" horiz-adv-x="1098" 
d="M990.5 1061.5q29.5 -29.5 29.5 -71.5v-579v-6q0 -117 -66 -216t-175 -156.5t-231 -57.5q-123 0 -231 58t-173.5 156.5t-65.5 215.5v6v579q0 42 29.5 71.5t71.5 29.5t71.5 -29.5t29.5 -71.5v-3v-576v-6q0 -60 38 -112.5t100 -84t130 -31.5v0q68 0 130.5 31t100.5 84
t38 113l1 6v576l-1 3q0 42 30 71.5t72 29.5t71.5 -29.5z" />
    <glyph glyph-name="U" unicode="&#xdb;" horiz-adv-x="1098" 
d="M990.5 1061.5q29.5 -29.5 29.5 -71.5v-579v-6q0 -117 -66 -216t-175 -156.5t-231 -57.5q-123 0 -231 58t-173.5 156.5t-65.5 215.5v6v579q0 42 29.5 71.5t71.5 29.5t71.5 -29.5t29.5 -71.5v-3v-576v-6q0 -60 38 -112.5t100 -84t130 -31.5v0q68 0 130.5 31t100.5 84
t38 113l1 6v576l-1 3q0 42 30 71.5t72 29.5t71.5 -29.5z" />
    <glyph glyph-name="U" unicode="&#xda;" horiz-adv-x="1098" 
d="M990.5 1061.5q29.5 -29.5 29.5 -71.5v-579v-6q0 -117 -66 -216t-175 -156.5t-231 -57.5q-123 0 -231 58t-173.5 156.5t-65.5 215.5v6v579q0 42 29.5 71.5t71.5 29.5t71.5 -29.5t29.5 -71.5v-3v-576v-6q0 -60 38 -112.5t100 -84t130 -31.5v0q68 0 130.5 31t100.5 84
t38 113l1 6v576l-1 3q0 42 30 71.5t72 29.5t71.5 -29.5z" />
    <glyph glyph-name="U" unicode="&#xd9;" horiz-adv-x="1098" 
d="M990.5 1061.5q29.5 -29.5 29.5 -71.5v-579v-6q0 -117 -66 -216t-175 -156.5t-231 -57.5q-123 0 -231 58t-173.5 156.5t-65.5 215.5v6v579q0 42 29.5 71.5t71.5 29.5t71.5 -29.5t29.5 -71.5v-3v-576v-6q0 -60 38 -112.5t100 -84t130 -31.5v0q68 0 130.5 31t100.5 84
t38 113l1 6v576l-1 3q0 42 30 71.5t72 29.5t71.5 -29.5z" />
    <glyph glyph-name="V" unicode="V" horiz-adv-x="1176" 
d="M1089 941l-409 -882q-12 -26 -36.5 -42.5t-55.5 -16.5q-29 0 -54 16t-38 43l-409 882q-9 20 -9 42q0 42 29.5 72t71.5 30q30 0 55 -16t37 -43l317 -684l317 684q12 27 37 43t55 16q42 0 71.5 -30t29.5 -72q0 -22 -9 -42z" />
    <glyph glyph-name="W" unicode="W" horiz-adv-x="1711" 
d="M1626 948l-332 -882h-1l-1 -5q-2 -2 -3 -4l-2 -4q-6 -14 -17 -23v0l-8 -8l-9 -6h-1q-3 -3 -8 -5q-4 -2 -10 -4v-1h-1h-1l-9 -3v0v0h-1q-1 -1 -5 -1q-2 -1 -6 -1q-4 -1 -12 -1h-6v0v0h-1l-5 1q-4 0 -6 1v0h-1v0q-2 0 -10 2l-3 1l-4 2l-4 1l-9 4q-7 5 -8 5l-8 6l-8 7v0
l-7 8v1l-6 8v1q-3 4 -5 8q-2 3 -4 9l-1 2v1l-231 641l-282 -648q-10 -22 -25 -34v-1l-7 -6h-1l-7 -5h-1q-1 -1 -7 -4l-8 -4h-1v0l-2 -1l-5 -2v0h-1q-1 0 -7 -2l-6 -1h-1q-5 -1 -14 -1h-2h-1q-44 2 -71 32v0l-7 8v1q-4 4 -5 7l-1 2q-2 3 -4 7q-2 3 -4 9v0l-0.5 0.5l-0.5 0.5
l-317 882q-6 17 -6 34q0 42 29.5 72t71.5 30q33 0 58.5 -18.5t36.5 -48.5l232 -642l281 647v0l1 1q0 2 1 2l1 3l2 4l3 4l2 4l4 5q0 1 2 3l4 4l3 3l1 1l2 2l4 4l4 3l5 3l4 2l5 3l4 2l6 2l2 1h1l0.5 0.5l0.5 0.5q3 0 4 1l5 1l4 1l6 1h3q3 1 10 1h3v0q3 0 4 -1h4q4 0 6 -1
q3 0 5 -1l4 -1l6 -1l3 -2q2 0 6 -2l3 -2l6 -3q1 0 3 -2l5 -3l4 -3l3 -3l4 -3l4 -3l1 -2q2 -2 2 -3l3 -3l3 -4l3 -3q0 -1 2 -5q2 -2 2 -4q2 -2 2 -4l3 -5v-1l1 -2v-1l225 -623l236 625q11 29 36.5 47.5t57.5 18.5q42 0 72 -30t30 -72q0 -20 -7 -35z" />
    <glyph glyph-name="X" unicode="X" horiz-adv-x="1081" 
d="M1004 101q0 -42 -30 -71.5t-72 -29.5q-23 0 -43.5 10t-34.5 27l-283 346l-284 -346q-14 -17 -34 -27t-44 -10q-42 0 -71.5 29.5t-29.5 71.5q0 37 23 65l309 376l-309 377v0q-23 28 -23 64q0 42 29.5 72t71.5 30q23 0 43.5 -10t34.5 -27l284 -346l283 346q14 17 34.5 27
t43.5 10q42 0 72 -30t30 -72q0 -34 -23 -64h-1l-308 -377l308 -376h1q23 -30 23 -65z" />
    <glyph glyph-name="Y" unicode="Y" horiz-adv-x="1176" 
d="M1068.5 1055q29.5 -30 29.5 -72q0 -32 -19 -59l-390 -536v-277v-6v-4q0 -37 -24.5 -65.5t-60.5 -34.5h-2q-3 0 -5 -1h-9h-9q-2 1 -5 1h-2q-36 6 -60.5 34.5t-24.5 65.5v4v6v308q-1 -10 -0.5 -17.5t0.5 -13.5l-390 536q-19 27 -19 59q0 42 29.5 72t71.5 30q25 0 46 -11.5
t36 -30.5l327 -450l327 450q15 19 36 30.5t46 11.5q42 0 71.5 -30zM507 481l-2 -2zM502 474zM500 471l2 3zM500 470v1l-0.5 -0.5l-0.5 -0.5h1zM499 469zM499 468h-1l-6 -13v0l-2 -7l1 1q-1 -1 -1 -3l1 3q0 2 1 3v1v2q2 2 2 3l-1 -2l1 2v1l1 2q3 6 4 7zM493 456l-0.5 -0.5
l-0.5 -0.5q0 1 1 1zM489 443l1 2l-1 -1v-1zM689 432v1v-1z" />
    <glyph glyph-name="Y" unicode="&#xdd;" horiz-adv-x="1176" 
d="M1068.5 1055q29.5 -30 29.5 -72q0 -32 -19 -59l-390 -536v-277v-6v-4q0 -37 -24.5 -65.5t-60.5 -34.5h-2q-3 0 -5 -1h-9h-9q-2 1 -5 1h-2q-36 6 -60.5 34.5t-24.5 65.5v4v6v308q-1 -10 -0.5 -17.5t0.5 -13.5l-390 536q-19 27 -19 59q0 42 29.5 72t71.5 30q25 0 46 -11.5
t36 -30.5l327 -450l327 450q15 19 36 30.5t46 11.5q42 0 71.5 -30zM507 481l-2 -2zM502 474zM500 471l2 3zM500 470v1l-0.5 -0.5l-0.5 -0.5h1zM499 469zM499 468h-1l-6 -13v0l-2 -7l1 1q-1 -1 -1 -3l1 3q0 2 1 3v1v2q2 2 2 3l-1 -2l1 2v1l1 2q3 6 4 7zM493 456l-0.5 -0.5
l-0.5 -0.5q0 1 1 1zM489 443l1 2l-1 -1v-1zM689 432v1v-1z" />
    <glyph glyph-name="Z" unicode="Z" horiz-adv-x="1031" 
d="M924 173q30 -30 30 -72t-30 -71.5t-72 -29.5h-670h-2h-1h-4h-3l-8 1h-1l-9 2h-1q-12 4 -18 7h-1q-2 2 -7 4q0 1 -2 1l-6 5l-0.5 0.5l-0.5 0.5q-1 0 -3 2l-2 2q-22 19 -31 47l-1 5l-1 2q-3 11 -3 23q0 23 10 43l2 2l2 5l3 4l3 5l2 2l549 719h-469q-42 0 -71.5 29.5
t-29.5 71.5t29.5 72t71.5 30h672h1q44 0 73 -31t29 -71q0 -32 -21 -61l-1 -1l-548 -718h468q42 0 72 -30zM246 25l3 3q-2 -2 -3 -2v-1z" />
    <glyph glyph-name="a" unicode="a" horiz-adv-x="1068" 
d="M940 98q0 -42 -30 -71.5t-72 -29.5q-35 0 -62.5 22t-35.5 55q-55 -44 -119.5 -66t-131.5 -22h-1v0q-83 0 -157.5 32t-132 90t-88.5 134q-32 79 -32 162q0 110 53.5 206.5t147.5 154.5t209 58h1q68 0 132 -22.5t118 -64.5q8 34 35.5 56.5t63.5 22.5q42 0 72 -30t30 -72
v-615zM594.5 219q47.5 30 74.5 80t27 106q0 66 -36 121q-29 43 -74.5 68.5t-97.5 25.5q-57 0 -104.5 -29t-75 -78.5t-27.5 -108.5q0 -58 28 -107.5t75.5 -78.5t103.5 -29q59 0 106.5 30z" />
    <glyph glyph-name="a" unicode="&#xe5;" horiz-adv-x="1068" 
d="M940 98q0 -42 -30 -71.5t-72 -29.5q-35 0 -62.5 22t-35.5 55q-55 -44 -119.5 -66t-131.5 -22h-1v0q-83 0 -157.5 32t-132 90t-88.5 134q-32 79 -32 162q0 110 53.5 206.5t147.5 154.5t209 58h1q68 0 132 -22.5t118 -64.5q8 34 35.5 56.5t63.5 22.5q42 0 72 -30t30 -72
v-615zM594.5 219q47.5 30 74.5 80t27 106q0 66 -36 121q-29 43 -74.5 68.5t-97.5 25.5q-57 0 -104.5 -29t-75 -78.5t-27.5 -108.5q0 -58 28 -107.5t75.5 -78.5t103.5 -29q59 0 106.5 30z" />
    <glyph glyph-name="a" unicode="&#xe4;" horiz-adv-x="1068" 
d="M940 98q0 -42 -30 -71.5t-72 -29.5q-35 0 -62.5 22t-35.5 55q-55 -44 -119.5 -66t-131.5 -22h-1v0q-83 0 -157.5 32t-132 90t-88.5 134q-32 79 -32 162q0 110 53.5 206.5t147.5 154.5t209 58h1q68 0 132 -22.5t118 -64.5q8 34 35.5 56.5t63.5 22.5q42 0 72 -30t30 -72
v-615zM594.5 219q47.5 30 74.5 80t27 106q0 66 -36 121q-29 43 -74.5 68.5t-97.5 25.5q-57 0 -104.5 -29t-75 -78.5t-27.5 -108.5q0 -58 28 -107.5t75.5 -78.5t103.5 -29q59 0 106.5 30z" />
    <glyph glyph-name="a" unicode="&#xe3;" horiz-adv-x="1068" 
d="M940 98q0 -42 -30 -71.5t-72 -29.5q-35 0 -62.5 22t-35.5 55q-55 -44 -119.5 -66t-131.5 -22h-1v0q-83 0 -157.5 32t-132 90t-88.5 134q-32 79 -32 162q0 110 53.5 206.5t147.5 154.5t209 58h1q68 0 132 -22.5t118 -64.5q8 34 35.5 56.5t63.5 22.5q42 0 72 -30t30 -72
v-615zM594.5 219q47.5 30 74.5 80t27 106q0 66 -36 121q-29 43 -74.5 68.5t-97.5 25.5q-57 0 -104.5 -29t-75 -78.5t-27.5 -108.5q0 -58 28 -107.5t75.5 -78.5t103.5 -29q59 0 106.5 30z" />
    <glyph glyph-name="a" unicode="&#xe2;" horiz-adv-x="1068" 
d="M940 98q0 -42 -30 -71.5t-72 -29.5q-35 0 -62.5 22t-35.5 55q-55 -44 -119.5 -66t-131.5 -22h-1v0q-83 0 -157.5 32t-132 90t-88.5 134q-32 79 -32 162q0 110 53.5 206.5t147.5 154.5t209 58h1q68 0 132 -22.5t118 -64.5q8 34 35.5 56.5t63.5 22.5q42 0 72 -30t30 -72
v-615zM594.5 219q47.5 30 74.5 80t27 106q0 66 -36 121q-29 43 -74.5 68.5t-97.5 25.5q-57 0 -104.5 -29t-75 -78.5t-27.5 -108.5q0 -58 28 -107.5t75.5 -78.5t103.5 -29q59 0 106.5 30z" />
    <glyph glyph-name="a" unicode="&#xe1;" horiz-adv-x="1068" 
d="M940 98q0 -42 -30 -71.5t-72 -29.5q-35 0 -62.5 22t-35.5 55q-55 -44 -119.5 -66t-131.5 -22h-1v0q-83 0 -157.5 32t-132 90t-88.5 134q-32 79 -32 162q0 110 53.5 206.5t147.5 154.5t209 58h1q68 0 132 -22.5t118 -64.5q8 34 35.5 56.5t63.5 22.5q42 0 72 -30t30 -72
v-615zM594.5 219q47.5 30 74.5 80t27 106q0 66 -36 121q-29 43 -74.5 68.5t-97.5 25.5q-57 0 -104.5 -29t-75 -78.5t-27.5 -108.5q0 -58 28 -107.5t75.5 -78.5t103.5 -29q59 0 106.5 30z" />
    <glyph glyph-name="a" unicode="&#xe0;" horiz-adv-x="1068" 
d="M940 98q0 -42 -30 -71.5t-72 -29.5q-35 0 -62.5 22t-35.5 55q-55 -44 -119.5 -66t-131.5 -22h-1v0q-83 0 -157.5 32t-132 90t-88.5 134q-32 79 -32 162q0 110 53.5 206.5t147.5 154.5t209 58h1q68 0 132 -22.5t118 -64.5q8 34 35.5 56.5t63.5 22.5q42 0 72 -30t30 -72
v-615zM594.5 219q47.5 30 74.5 80t27 106q0 66 -36 121q-29 43 -74.5 68.5t-97.5 25.5q-57 0 -104.5 -29t-75 -78.5t-27.5 -108.5q0 -58 28 -107.5t75.5 -78.5t103.5 -29q59 0 106.5 30z" />
    <glyph glyph-name="b" unicode="b" horiz-adv-x="1006" 
d="M718 756.5q94 -58.5 147 -155.5t53 -206q0 -125 -70 -231q-58 -88 -149 -136.5t-192 -48.5q-119 0 -219 65q-13 -25 -37 -40t-53 -15q-42 0 -71.5 29.5t-29.5 71.5v1v919q0 42 29.5 72t71.5 30t71.5 -30t29.5 -72v-252q94 57 208 57q117 0 211 -58.5zM613.5 212
q47.5 30 74.5 80t27 106q0 66 -36 121q-31 47 -75.5 70.5t-93.5 23.5q-54 0 -102.5 -26.5t-78.5 -75t-30 -112.5v-3q0 -58 28 -107t76 -78t104 -29q59 0 106.5 30z" />
    <glyph glyph-name="c" unicode="c" horiz-adv-x="916" 
d="M804.5 242q29.5 -30 29.5 -72q0 -22 -9.5 -42t-25.5 -34q-54 -49 -131 -79q-76 -28 -156 -28h-1q-63 0 -128 19q-62 19 -113 53q-52 34 -92.5 82t-65.5 105q-34 79 -34 167q0 123 61.5 220t162 150.5t212.5 53.5q79 0 153.5 -28t137.5 -84q15 -14 24 -33.5t9 -41.5
q0 -42 -29.5 -71.5t-71.5 -29.5q-40 0 -68 26q-34 30 -73.5 45t-81.5 15q-60 0 -114 -28t-87 -79t-33 -116q0 -32 10 -65q10 -29 29 -58q38 -55 102 -81q40 -18 91 -18q45 0 84 15q42 17 69 41q29 26 68 26q42 0 71.5 -30z" />
    <glyph glyph-name="c" unicode="&#xe7;" horiz-adv-x="916" 
d="M804.5 242q29.5 -30 29.5 -72q0 -22 -9.5 -42t-25.5 -34q-54 -49 -131 -79q-76 -28 -156 -28h-1q-63 0 -128 19q-62 19 -113 53q-52 34 -92.5 82t-65.5 105q-34 79 -34 167q0 123 61.5 220t162 150.5t212.5 53.5q79 0 153.5 -28t137.5 -84q15 -14 24 -33.5t9 -41.5
q0 -42 -29.5 -71.5t-71.5 -29.5q-40 0 -68 26q-34 30 -73.5 45t-81.5 15q-60 0 -114 -28t-87 -79t-33 -116q0 -32 10 -65q10 -29 29 -58q38 -55 102 -81q40 -18 91 -18q45 0 84 15q42 17 69 41q29 26 68 26q42 0 71.5 -30z" />
    <glyph glyph-name="d" unicode="d" horiz-adv-x="987" 
d="M909 97v0q0 -42 -29.5 -72t-71.5 -30q-30 0 -55.5 16.5t-36.5 43.5q-106 -70 -227 -70q-118 0 -212 59t-146.5 155.5t-52.5 205.5q0 126 70 232q56 85 146 135t194 50q120 0 219 -64v259q0 42 29.5 71.5t71.5 29.5t71.5 -29.5t29.5 -71.5v-920zM595.5 218q47.5 30 74 80
t26.5 106q0 66 -36 121q-31 47 -75.5 70.5t-93.5 23.5q-54 0 -102.5 -26.5t-78 -75.5t-29.5 -113q0 -59 28 -108.5t75.5 -78.5t104.5 -29q59 0 106.5 30z" />
    <glyph glyph-name="e" unicode="e" horiz-adv-x="974" 
d="M372.5 475q29.5 30 71.5 30h229q-24 56 -73.5 87.5t-115.5 31.5q-54 0 -101 -29.5t-75 -80.5t-28 -111q0 -54 19 -100q20 -44 52 -71q25 -20 52 -31q46 -18 102 -18q42 0 81 16q38 14 72 43q29 26 68 26q42 0 71.5 -29.5t29.5 -71.5q0 -22 -9 -41.5t-25 -33.5v-1
q-2 0 -2 -2h-1q-60 -52 -131 -79q-77 -30 -154 -30q-80 0 -152 23q-69 24 -126 68q-35 29 -64 66q-36 46 -58 106q-27 77 -27 160q0 115 55 212.5t148.5 154.5t202.5 57h1q118 0 211.5 -56t146.5 -153t53 -215q0 -42 -29.5 -71.5t-71.5 -29.5h-351q-42 0 -71.5 29.5
t-29.5 71.5t29.5 72z" />
    <glyph glyph-name="e" unicode="&#xeb;" horiz-adv-x="974" 
d="M372.5 475q29.5 30 71.5 30h229q-24 56 -73.5 87.5t-115.5 31.5q-54 0 -101 -29.5t-75 -80.5t-28 -111q0 -54 19 -100q20 -44 52 -71q25 -20 52 -31q46 -18 102 -18q42 0 81 16q38 14 72 43q29 26 68 26q42 0 71.5 -29.5t29.5 -71.5q0 -22 -9 -41.5t-25 -33.5v-1
q-2 0 -2 -2h-1q-60 -52 -131 -79q-77 -30 -154 -30q-80 0 -152 23q-69 24 -126 68q-35 29 -64 66q-36 46 -58 106q-27 77 -27 160q0 115 55 212.5t148.5 154.5t202.5 57h1q118 0 211.5 -56t146.5 -153t53 -215q0 -42 -29.5 -71.5t-71.5 -29.5h-351q-42 0 -71.5 29.5
t-29.5 71.5t29.5 72z" />
    <glyph glyph-name="e" unicode="&#xea;" horiz-adv-x="974" 
d="M372.5 475q29.5 30 71.5 30h229q-24 56 -73.5 87.5t-115.5 31.5q-54 0 -101 -29.5t-75 -80.5t-28 -111q0 -54 19 -100q20 -44 52 -71q25 -20 52 -31q46 -18 102 -18q42 0 81 16q38 14 72 43q29 26 68 26q42 0 71.5 -29.5t29.5 -71.5q0 -22 -9 -41.5t-25 -33.5v-1
q-2 0 -2 -2h-1q-60 -52 -131 -79q-77 -30 -154 -30q-80 0 -152 23q-69 24 -126 68q-35 29 -64 66q-36 46 -58 106q-27 77 -27 160q0 115 55 212.5t148.5 154.5t202.5 57h1q118 0 211.5 -56t146.5 -153t53 -215q0 -42 -29.5 -71.5t-71.5 -29.5h-351q-42 0 -71.5 29.5
t-29.5 71.5t29.5 72z" />
    <glyph glyph-name="e" unicode="&#xe9;" horiz-adv-x="974" 
d="M372.5 475q29.5 30 71.5 30h229q-24 56 -73.5 87.5t-115.5 31.5q-54 0 -101 -29.5t-75 -80.5t-28 -111q0 -54 19 -100q20 -44 52 -71q25 -20 52 -31q46 -18 102 -18q42 0 81 16q38 14 72 43q29 26 68 26q42 0 71.5 -29.5t29.5 -71.5q0 -22 -9 -41.5t-25 -33.5v-1
q-2 0 -2 -2h-1q-60 -52 -131 -79q-77 -30 -154 -30q-80 0 -152 23q-69 24 -126 68q-35 29 -64 66q-36 46 -58 106q-27 77 -27 160q0 115 55 212.5t148.5 154.5t202.5 57h1q118 0 211.5 -56t146.5 -153t53 -215q0 -42 -29.5 -71.5t-71.5 -29.5h-351q-42 0 -71.5 29.5
t-29.5 71.5t29.5 72z" />
    <glyph glyph-name="e" unicode="&#xe8;" horiz-adv-x="974" 
d="M372.5 475q29.5 30 71.5 30h229q-24 56 -73.5 87.5t-115.5 31.5q-54 0 -101 -29.5t-75 -80.5t-28 -111q0 -54 19 -100q20 -44 52 -71q25 -20 52 -31q46 -18 102 -18q42 0 81 16q38 14 72 43q29 26 68 26q42 0 71.5 -29.5t29.5 -71.5q0 -22 -9 -41.5t-25 -33.5v-1
q-2 0 -2 -2h-1q-60 -52 -131 -79q-77 -30 -154 -30q-80 0 -152 23q-69 24 -126 68q-35 29 -64 66q-36 46 -58 106q-27 77 -27 160q0 115 55 212.5t148.5 154.5t202.5 57h1q118 0 211.5 -56t146.5 -153t53 -215q0 -42 -29.5 -71.5t-71.5 -29.5h-351q-42 0 -71.5 29.5
t-29.5 71.5t29.5 72z" />
    <glyph glyph-name="f" unicode="f" horiz-adv-x="768" 
d="M655 755.5q30 -29.5 30 -71.5q0 -11 -4 -29l-1 -1q0 -3 -2 -5l-1 -4l-3 -7l-1 -2l-2 -2q-11 -19 -28 -32t-39 -17q-7 -2 -21 -2h-140v-482q0 -42 -29.5 -71.5t-71.5 -29.5t-71.5 29.5t-29.5 71.5v482h-62q-42 0 -71.5 29.5t-29.5 71.5t29.5 71.5t71.5 29.5h62v53
q0 142 81 220q79 76 209 76q28 0 68 -5h1h3q37 -5 62 -33.5t25 -66.5q0 -42 -29.5 -72t-71.5 -30l-13 1h-1q-23 3 -40 3q-50 0 -72 -19q-11 -9 -15.5 -28.5t-4.5 -41.5v-57h140q42 0 72 -29.5z" />
    <glyph glyph-name="g" unicode="g" horiz-adv-x="972" 
d="M894 138q0 -75 -1.5 -97.5t-9.5 -51.5q-26 -104 -97.5 -179t-178.5 -101h-1q-60 -15 -133 -15q-91 0 -181 25.5t-158 76.5q-19 14 -30 35.5t-11 45.5q0 42 30 71.5t72 29.5v0q21 0 39 -8q12 -5 22 -13q24 -16 44 -26t56 -19q57 -15 118 -15q51 0 85 9q56 14 90 55t42 96
l1 9v19q-93 -51 -205 -51q-120 0 -222.5 60.5t-152.5 167.5q-34 74 -34 151q0 99 53 186.5t146.5 140t208.5 52.5q117 0 216 -57q13 25 37.5 40.5t53.5 15.5q42 0 71.5 -30t29.5 -72v-24v-66v-168q1 -6 1 -18t-1 -18v-257zM692 425q-4 50 -38 90t-84 59q-41 16 -84 16
q-55 0 -102.5 -24.5t-75.5 -65.5t-28 -87q0 -51 33 -95q28 -37 73.5 -59t99.5 -22t100 22t74.5 59.5t31.5 82.5v24z" />
    <glyph glyph-name="h" unicode="h" horiz-adv-x="896" 
d="M788 29.5q-30 -29.5 -71 -29.5q-42 0 -72 29.5t-30 71.5v363q0 49 -24 85t-62.5 55t-81.5 19q-49 0 -91 -25t-63 -73q-13 -31 -13 -61v-362v-1q0 -42 -29.5 -71.5t-71.5 -29.5t-71.5 29.5t-29.5 71.5v1v919q0 42 29.5 72t71.5 30t71.5 -30t29.5 -72v-234q81 40 168 40
q96 0 181 -47t137 -130t52 -185v-1v-363q0 -42 -30 -71.5z" />
    <glyph glyph-name="i" unicode="i" horiz-adv-x="406" 
d="M136 949.5q-30 29.5 -30 71.5t30 72t72 30t71.5 -30t29.5 -72t-29.5 -71.5t-71.5 -29.5t-72 29.5zM279.5 785.5q29.5 -29.5 29.5 -71.5v-613q0 -42 -29.5 -71.5t-71.5 -29.5t-72 29.5t-30 71.5v613q0 42 30 71.5t72 29.5t71.5 -29.5z" />
    <glyph glyph-name="i" unicode="&#xef;" horiz-adv-x="406" 
d="M136 949.5q-30 29.5 -30 71.5t30 72t72 30t71.5 -30t29.5 -72t-29.5 -71.5t-71.5 -29.5t-72 29.5zM279.5 785.5q29.5 -29.5 29.5 -71.5v-613q0 -42 -29.5 -71.5t-71.5 -29.5t-72 29.5t-30 71.5v613q0 42 30 71.5t72 29.5t71.5 -29.5z" />
    <glyph glyph-name="i" unicode="&#xee;" horiz-adv-x="406" 
d="M136 949.5q-30 29.5 -30 71.5t30 72t72 30t71.5 -30t29.5 -72t-29.5 -71.5t-71.5 -29.5t-72 29.5zM279.5 785.5q29.5 -29.5 29.5 -71.5v-613q0 -42 -29.5 -71.5t-71.5 -29.5t-72 29.5t-30 71.5v613q0 42 30 71.5t72 29.5t71.5 -29.5z" />
    <glyph glyph-name="i" unicode="&#xed;" horiz-adv-x="406" 
d="M136 949.5q-30 29.5 -30 71.5t30 72t72 30t71.5 -30t29.5 -72t-29.5 -71.5t-71.5 -29.5t-72 29.5zM279.5 785.5q29.5 -29.5 29.5 -71.5v-613q0 -42 -29.5 -71.5t-71.5 -29.5t-72 29.5t-30 71.5v613q0 42 30 71.5t72 29.5t71.5 -29.5z" />
    <glyph glyph-name="i" unicode="&#xec;" horiz-adv-x="406" 
d="M136 949.5q-30 29.5 -30 71.5t30 72t72 30t71.5 -30t29.5 -72t-29.5 -71.5t-71.5 -29.5t-72 29.5zM279.5 785.5q29.5 -29.5 29.5 -71.5v-613q0 -42 -29.5 -71.5t-71.5 -29.5t-72 29.5t-30 71.5v613q0 42 30 71.5t72 29.5t71.5 -29.5z" />
    <glyph glyph-name="j" unicode="j" horiz-adv-x="605" 
d="M354.5 948q-29.5 30 -29.5 72t29.5 71.5t71.5 29.5t72 -29.5t30 -71.5t-30 -72t-72 -30t-71.5 30zM498 784q30 -30 30 -72q0 -6 -1 -9v-704q-4 -70 -44 -136q-40 -65 -106 -96t-148 -31q-35 0 -64 4q-37 5 -62 33.5t-25 67.5q0 42 29.5 71.5t71.5 29.5q9 0 14 -1
q23 -3 40 -3q45 0 64 16.5t25 47.5q2 8 2.5 48.5t0.5 158.5v503q0 42 29.5 72t71.5 30t72 -30z" />
    <glyph glyph-name="k" unicode="k" horiz-adv-x="881" 
d="M803 101q0 -42 -29.5 -71.5t-71.5 -29.5q-22 0 -41.5 9t-33.5 24l-269 294l-78 -69v-156v-1q0 -42 -29.5 -71.5t-71.5 -29.5t-71.5 29.5t-29.5 71.5v1v920q0 42 29.5 71.5t71.5 29.5t71.5 -29.5t29.5 -71.5v-493l18 15l1 1h1v1l289 254q29 26 67 26q42 0 71.5 -30
t29.5 -72q0 -45 -34 -76l-212 -187l266 -291h-1q27 -29 27 -69z" />
    <glyph glyph-name="l" unicode="l" horiz-adv-x="612" 
d="M548 28.5q-25 -28.5 -63 -33.5h-3v0q-38 -5 -67 -5q-130 0 -211 76q-53 51 -68.5 113.5t-12.5 106.5v737q0 42 30 71.5t72 29.5t71.5 -29.5t29.5 -71.5v-747l-1 -3q0 -14 4.5 -32.5t15.5 -28.5q20 -19 70 -19q19 0 43 3l14 1q42 0 71.5 -30t29.5 -72q0 -38 -25 -66.5z
" />
    <glyph glyph-name="m" unicode="m" horiz-adv-x="1433" 
d="M1356 101q-1 -42 -30.5 -71.5t-71.5 -29.5t-71.5 29.5t-29.5 71.5v363v0q0 21 -7 47q-18 55 -61 84t-96 29q-43 0 -82.5 -19.5t-64 -56t-24.5 -84.5v-363v0q0 -42 -30 -71.5t-71 -29.5q-42 0 -72 29.5t-30 71.5v363q0 26 -7 47q-18 55 -61 83.5t-96 28.5q-44 0 -83 -19
t-63.5 -55t-24.5 -85v-362v0v-1q0 -42 -29.5 -71.5t-71.5 -29.5t-71.5 29.5t-29.5 71.5v1v0v362v263q0 42 29.5 72t71.5 30q27 0 50 -13.5t37 -35.5q88 47 183 47q77 0 146.5 -30t121.5 -84q52 54 122 84t147 30q101 0 186 -49t134.5 -132.5t49.5 -181.5v-363v0z" />
    <glyph glyph-name="n" unicode="n" horiz-adv-x="895" 
d="M818 101v-7v-1q-4 -39 -33 -66t-68 -27q-40 0 -69 27t-32 66h-1v371q0 26 -7 47q-18 55 -61 83.5t-96 28.5q-44 0 -83 -19t-63.5 -55t-24.5 -85v-362v-1q0 -42 -29.5 -71.5t-71.5 -29.5t-71.5 29.5t-29.5 71.5v1v0v362v263q0 42 29.5 72t71.5 30q27 0 50 -13.5t37 -35.5
q85 47 181 47t181.5 -47t137.5 -130t52 -186v-8v-347v-8z" />
    <glyph glyph-name="n" unicode="&#xf1;" horiz-adv-x="895" 
d="M818 101v-7v-1q-4 -39 -33 -66t-68 -27q-40 0 -69 27t-32 66h-1v371q0 26 -7 47q-18 55 -61 83.5t-96 28.5q-44 0 -83 -19t-63.5 -55t-24.5 -85v-362v-1q0 -42 -29.5 -71.5t-71.5 -29.5t-71.5 29.5t-29.5 71.5v1v0v362v263q0 42 29.5 72t71.5 30q27 0 50 -13.5t37 -35.5
q85 47 181 47t181.5 -47t137.5 -130t52 -186v-8v-347v-8z" />
    <glyph glyph-name="o" unicode="o" 
d="M939 398q0 -115 -58 -212.5t-157 -154.5t-216 -57t-215.5 57t-156.5 153.5t-58 211.5q0 70 19 128q21 63 55 112q35 50 83.5 89.5t105.5 63.5q82 33 167 33q65 0 128 -19q59 -19 113 -53q107 -72 156 -187q34 -77 34 -165zM622.5 206.5q52.5 29.5 83.5 80.5t31 111
q0 32 -11 65q-9 30 -28 57q-36 55 -100 81q-44 18 -90 18q-33 0 -68 -10q-34 -11 -60 -28q-56 -39 -82 -98q-18 -43 -18 -85q0 -60 30.5 -111t83 -80.5t114.5 -29.5t114.5 29.5z" />
    <glyph glyph-name="o" unicode="&#xf8;" 
d="M939 398q0 -115 -58 -212.5t-157 -154.5t-216 -57t-215.5 57t-156.5 153.5t-58 211.5q0 70 19 128q21 63 55 112q35 50 83.5 89.5t105.5 63.5q82 33 167 33q65 0 128 -19q59 -19 113 -53q107 -72 156 -187q34 -77 34 -165zM622.5 206.5q52.5 29.5 83.5 80.5t31 111
q0 32 -11 65q-9 30 -28 57q-36 55 -100 81q-44 18 -90 18q-33 0 -68 -10q-34 -11 -60 -28q-56 -39 -82 -98q-18 -43 -18 -85q0 -60 30.5 -111t83 -80.5t114.5 -29.5t114.5 29.5z" />
    <glyph glyph-name="o" unicode="&#xf6;" 
d="M939 398q0 -115 -58 -212.5t-157 -154.5t-216 -57t-215.5 57t-156.5 153.5t-58 211.5q0 70 19 128q21 63 55 112q35 50 83.5 89.5t105.5 63.5q82 33 167 33q65 0 128 -19q59 -19 113 -53q107 -72 156 -187q34 -77 34 -165zM622.5 206.5q52.5 29.5 83.5 80.5t31 111
q0 32 -11 65q-9 30 -28 57q-36 55 -100 81q-44 18 -90 18q-33 0 -68 -10q-34 -11 -60 -28q-56 -39 -82 -98q-18 -43 -18 -85q0 -60 30.5 -111t83 -80.5t114.5 -29.5t114.5 29.5z" />
    <glyph glyph-name="o" unicode="&#xf5;" 
d="M939 398q0 -115 -58 -212.5t-157 -154.5t-216 -57t-215.5 57t-156.5 153.5t-58 211.5q0 70 19 128q21 63 55 112q35 50 83.5 89.5t105.5 63.5q82 33 167 33q65 0 128 -19q59 -19 113 -53q107 -72 156 -187q34 -77 34 -165zM622.5 206.5q52.5 29.5 83.5 80.5t31 111
q0 32 -11 65q-9 30 -28 57q-36 55 -100 81q-44 18 -90 18q-33 0 -68 -10q-34 -11 -60 -28q-56 -39 -82 -98q-18 -43 -18 -85q0 -60 30.5 -111t83 -80.5t114.5 -29.5t114.5 29.5z" />
    <glyph glyph-name="o" unicode="&#xf4;" 
d="M939 398q0 -115 -58 -212.5t-157 -154.5t-216 -57t-215.5 57t-156.5 153.5t-58 211.5q0 70 19 128q21 63 55 112q35 50 83.5 89.5t105.5 63.5q82 33 167 33q65 0 128 -19q59 -19 113 -53q107 -72 156 -187q34 -77 34 -165zM622.5 206.5q52.5 29.5 83.5 80.5t31 111
q0 32 -11 65q-9 30 -28 57q-36 55 -100 81q-44 18 -90 18q-33 0 -68 -10q-34 -11 -60 -28q-56 -39 -82 -98q-18 -43 -18 -85q0 -60 30.5 -111t83 -80.5t114.5 -29.5t114.5 29.5z" />
    <glyph glyph-name="o" unicode="&#xf3;" 
d="M939 398q0 -115 -58 -212.5t-157 -154.5t-216 -57t-215.5 57t-156.5 153.5t-58 211.5q0 70 19 128q21 63 55 112q35 50 83.5 89.5t105.5 63.5q82 33 167 33q65 0 128 -19q59 -19 113 -53q107 -72 156 -187q34 -77 34 -165zM622.5 206.5q52.5 29.5 83.5 80.5t31 111
q0 32 -11 65q-9 30 -28 57q-36 55 -100 81q-44 18 -90 18q-33 0 -68 -10q-34 -11 -60 -28q-56 -39 -82 -98q-18 -43 -18 -85q0 -60 30.5 -111t83 -80.5t114.5 -29.5t114.5 29.5z" />
    <glyph glyph-name="o" unicode="&#xf2;" 
d="M939 398q0 -115 -58 -212.5t-157 -154.5t-216 -57t-215.5 57t-156.5 153.5t-58 211.5q0 70 19 128q21 63 55 112q35 50 83.5 89.5t105.5 63.5q82 33 167 33q65 0 128 -19q59 -19 113 -53q107 -72 156 -187q34 -77 34 -165zM622.5 206.5q52.5 29.5 83.5 80.5t31 111
q0 32 -11 65q-9 30 -28 57q-36 55 -100 81q-44 18 -90 18q-33 0 -68 -10q-34 -11 -60 -28q-56 -39 -82 -98q-18 -43 -18 -85q0 -60 30.5 -111t83 -80.5t114.5 -29.5t114.5 29.5z" />
    <glyph glyph-name="p" unicode="p" horiz-adv-x="976" 
d="M694.5 738q94.5 -55 149.5 -149.5t55 -205.5q0 -112 -55 -206t-149.5 -149t-205.5 -55q-112 0 -209 57v-264q0 -42 -29.5 -71.5t-71.5 -29.5t-71.5 29.5t-29.5 71.5v920q0 42 29.5 72t71.5 30q30 0 54.5 -16t36.5 -42q101 63 219 63q111 0 205.5 -55zM593.5 202
q47.5 28 75.5 76t28 105t-28 104.5t-75.5 75.5t-104.5 28t-105 -28t-76 -75.5t-28 -104.5t28 -105t76 -76t105 -28t104.5 28z" />
    <glyph glyph-name="q" unicode="q" horiz-adv-x="977" 
d="M869.5 775q29.5 -30 29.5 -72v-909q0 -24 -11 -46q-13 -25 -37 -40.5t-53 -15.5q-42 0 -72 30t-30 72v252q-94 -57 -207 -57h-1q-83 0 -157.5 32t-132 90t-88.5 134q-32 77 -32 161q0 110 53.5 206.5t147.5 154.5t209 58h1v0q60 0 122 -19q51 -15 101 -48q14 21 36.5 34
t49.5 13q42 0 71.5 -30zM592.5 220q47.5 29 75.5 78.5t28 108.5q0 34 -9 65t-27 56q-33 52 -91 78q-40 16 -80 16q-64 0 -116 -36q-46 -32 -69 -78.5t-23 -98.5q0 -56 25.5 -106t73 -81t109.5 -31q56 0 103.5 29z" />
    <glyph glyph-name="r" unicode="r" horiz-adv-x="732" 
d="M661 741.5q19 -26.5 19 -58.5q0 -42 -30 -71.5t-72 -29.5q-18 0 -34 6q-71 25 -124 25q-25 0 -46 -6q-36 -11 -57 -41.5t-29 -62.5t-8 -52v-351v-1q0 -42 -29.5 -71.5t-71.5 -29.5t-71.5 29.5t-29.5 71.5v1v351v0v264q0 42 29.5 71.5t71.5 29.5q24 0 45 -10.5t35 -28.5v0
q71 38 162 38q85 0 187 -35h1q1 -1 3 -1q30 -11 49 -37.5z" />
    <glyph glyph-name="s" unicode="s" horiz-adv-x="799" 
d="M408 513q83 -21 146.5 -46t115.5 -80.5t52 -145.5q0 -72 -36 -130.5t-104.5 -93t-160.5 -34.5q-79 0 -148 22t-138 66q-26 13 -41.5 37.5t-15.5 54.5q0 42 29.5 71.5t71.5 29.5q29 0 55 -16h1q47 -31 90.5 -47t95.5 -16q41 0 69.5 12.5t28.5 43.5q0 4 -0.5 6t-0.5 3
q-8 21 -53.5 36.5t-93.5 25.5q-122 28 -195.5 89t-73.5 165v1v1q0 82 38 140t103 88t145 30q73 0 149 -26q43 -15 95 -42q25 -13 40 -37t15 -53q0 -42 -29.5 -72t-71.5 -30h-1v0l-8 1q-21 2 -36 10q-8 3 -14.5 6.5t-11.5 5.5q-34 16 -61 24.5t-64 8.5q-38 0 -57 -7.5
t-24 -19t-5 -29.5q0 -3 0.5 -4t0.5 -2q4 -10 22.5 -20t34.5 -15q14 -6 46 -12z" />
    <glyph glyph-name="s" unicode="&#xdf;" horiz-adv-x="799" 
d="M408 513q83 -21 146.5 -46t115.5 -80.5t52 -145.5q0 -72 -36 -130.5t-104.5 -93t-160.5 -34.5q-79 0 -148 22t-138 66q-26 13 -41.5 37.5t-15.5 54.5q0 42 29.5 71.5t71.5 29.5q29 0 55 -16h1q47 -31 90.5 -47t95.5 -16q41 0 69.5 12.5t28.5 43.5q0 4 -0.5 6t-0.5 3
q-8 21 -53.5 36.5t-93.5 25.5q-122 28 -195.5 89t-73.5 165v1v1q0 82 38 140t103 88t145 30q73 0 149 -26q43 -15 95 -42q25 -13 40 -37t15 -53q0 -42 -29.5 -72t-71.5 -30h-1v0l-8 1q-21 2 -36 10q-8 3 -14.5 6.5t-11.5 5.5q-34 16 -61 24.5t-64 8.5q-38 0 -57 -7.5
t-24 -19t-5 -29.5q0 -3 0.5 -4t0.5 -2q4 -10 22.5 -20t34.5 -15q14 -6 46 -12z" />
    <glyph glyph-name="t" unicode="t" horiz-adv-x="768" 
d="M665.5 39.5q-24.5 -28.5 -61.5 -33.5v-1h-4h-1q-38 -5 -66 -5q-92 0 -158 37.5t-100 104t-34 151.5v345h-62q-42 0 -71.5 30t-29.5 72t29.5 71.5t71.5 29.5h62v192q0 42 29.5 71.5t71.5 29.5t71.5 -29.5t29.5 -71.5v-192h140q42 0 72 -29.5t30 -71.5t-30 -72t-72 -30
h-140v-351q0 -45 22 -65t65 -20q12 0 44 4q5 1 15 1q42 0 71.5 -29.5t29.5 -71.5q0 -38 -24.5 -66.5z" />
    <glyph glyph-name="u" unicode="u" horiz-adv-x="895" 
d="M818 91q0 -42 -29.5 -71.5t-71.5 -29.5q-27 0 -50 13.5t-37 35.5q-87 -47 -181 -47q-97 0 -182.5 47t-137 130t-51.5 186v7v348v7v8v1q3 39 32 66t69 27t69 -27t32 -66v-371q0 -23 8 -47q17 -55 60 -83.5t96 -28.5q44 0 83 19t63.5 55t24.5 85v362v0q0 42 30 72t72 30
t71.5 -30t29.5 -72v0v-362v-264z" />
    <glyph glyph-name="u" unicode="&#xfc;" horiz-adv-x="895" 
d="M818 91q0 -42 -29.5 -71.5t-71.5 -29.5q-27 0 -50 13.5t-37 35.5q-87 -47 -181 -47q-97 0 -182.5 47t-137 130t-51.5 186v7v348v7v8v1q3 39 32 66t69 27t69 -27t32 -66v-371q0 -23 8 -47q17 -55 60 -83.5t96 -28.5q44 0 83 19t63.5 55t24.5 85v362v0q0 42 30 72t72 30
t71.5 -30t29.5 -72v0v-362v-264z" />
    <glyph glyph-name="u" unicode="&#xfb;" horiz-adv-x="895" 
d="M818 91q0 -42 -29.5 -71.5t-71.5 -29.5q-27 0 -50 13.5t-37 35.5q-87 -47 -181 -47q-97 0 -182.5 47t-137 130t-51.5 186v7v348v7v8v1q3 39 32 66t69 27t69 -27t32 -66v-371q0 -23 8 -47q17 -55 60 -83.5t96 -28.5q44 0 83 19t63.5 55t24.5 85v362v0q0 42 30 72t72 30
t71.5 -30t29.5 -72v0v-362v-264z" />
    <glyph glyph-name="u" unicode="&#xfa;" horiz-adv-x="895" 
d="M818 91q0 -42 -29.5 -71.5t-71.5 -29.5q-27 0 -50 13.5t-37 35.5q-87 -47 -181 -47q-97 0 -182.5 47t-137 130t-51.5 186v7v348v7v8v1q3 39 32 66t69 27t69 -27t32 -66v-371q0 -23 8 -47q17 -55 60 -83.5t96 -28.5q44 0 83 19t63.5 55t24.5 85v362v0q0 42 30 72t72 30
t71.5 -30t29.5 -72v0v-362v-264z" />
    <glyph glyph-name="u" unicode="&#xf9;" horiz-adv-x="895" 
d="M818 91q0 -42 -29.5 -71.5t-71.5 -29.5q-27 0 -50 13.5t-37 35.5q-87 -47 -181 -47q-97 0 -182.5 47t-137 130t-51.5 186v7v348v7v8v1q3 39 32 66t69 27t69 -27t32 -66v-371q0 -23 8 -47q17 -55 60 -83.5t96 -28.5q44 0 83 19t63.5 55t24.5 85v362v0q0 42 30 72t72 30
t71.5 -30t29.5 -72v0v-362v-264z" />
    <glyph glyph-name="v" unicode="v" horiz-adv-x="893" 
d="M563 58l-2 -4q-13 -24 -37.5 -39t-53.5 -15q-23 0 -46 12l-1 1q-3 1 -4.5 2t-2.5 2q-2 2 -3 2l-4 3l-1 1l-2 1l-6 6v0l-6 7l-0.5 0.5l-0.5 0.5l-5 6q0 1 -1 1l-4 8v1l-3 4l-292 608q-10 19 -10 44q0 42 29.5 71.5t71.5 29.5q30 0 54.5 -15.5t36.5 -41.5l202 -419l201 419
q13 26 37.5 41.5t54.5 15.5q42 0 71.5 -29.5t29.5 -71.5q0 -22 -10 -44l-291 -604z" />
    <glyph glyph-name="w" unicode="w" horiz-adv-x="1487" 
d="M1422 781.5q30 -29.5 30 -71.5q0 -24 -11 -44l-292 -608v-1l-2 -2q0 -2 -1 -3l-0.5 -0.5l-0.5 -0.5l-2 -4l-2 -2v-1l-5 -6l0.5 0.5l0.5 0.5l-1 -2l-0.5 -0.5l-0.5 -0.5q-14 -17 -38 -28l-9 -3l-9 -3q-14 -2 -21 -2h-1q-21 0 -44 10v0l-2 1h1l-2 1l-2 1l-0.5 0.5l-0.5 0.5
h-1l-4 3l0.5 -0.5l0.5 -0.5l-2 1l-1 1q-1 0 -3 2l1 -1l-4 4v-1l-2 2l-5 4l-3 3l-3 3l1 -1q-2 2 -2 3l-1 1q-8 10 -12 19l-1 1l-4 9v1l-197 409l-202 -418v-1l-1 -2l-2 -3q-3 -6 -4 -7l-1 -1l-3 -4v0l-0.5 -0.5l-0.5 -0.5l-0.5 -0.5l-0.5 -0.5l-1 -2q-14 -16 -37 -28
q-4 -1 -8.5 -3t-11.5 -3q-14 -2 -20 -2q-25 0 -47 11l3 -1q-1 1 -3 1l-2 2q-26 14 -43 44v1l-292 608q-10 19 -10 44q0 42 29.5 71.5t71.5 29.5q30 0 54.5 -15.5t36.5 -41.5l202 -419l201 419l1 1v1q13 25 37 40t54 15t54 -15.5t37 -41.5v-1l201 -418l202 419
q12 26 36.5 41.5t54.5 15.5q42 0 72 -29.5zM1143 47v0l1 1zM1142 45l1 2zM1141 44zM1139 41l2 3zM552 40l-1 -2v1q1 0 1 1zM1003 16zM1007 14q0 -1 1 -1l-2 1h1zM1017 9l-3 1q1 -1 3 -1z" />
    <glyph glyph-name="x" unicode="x" horiz-adv-x="864" 
d="M763 37l-3 -3l-3 -4l-6 -5l-2 -2l-2 -2l-5 -3q-2 -2 -3 -2l-5 -3l-4 -2l-5 -3q-2 0 -3 -1l-6 -2l-3 -1q-2 -1 -6 -1q-1 -1 -3 -1q-3 -1 -7 -1q-2 0 -3 -1h-9h-10l-0.5 0.5l-0.5 0.5q-6 0 -9 1h-1l-8 2l-2 1l-8 3h-2l-7 4h-1q-8 4 -15 11h-1l-7 6q0 1 -1 1l-5 6l-1 1
l-174 210l-175 -210v-1l-6 -6l-0.5 -0.5l-0.5 -0.5l-6 -6h-1q-10 -8 -15 -11h-1l-8 -4h-1l-8 -3l-2 -1l-8 -2h-2q-3 -1 -8 -1l-1 -1h-10h-10q-1 1 -3 1q-4 0 -6 1l-4 1q-3 0 -5 1l-4 1l-5 2q-1 1 -4 1l-5 3l-3 2l-5 3q-1 0 -3 2q-4 2 -6 4l-2 1q-2 2 -2 3q-4 2 -5 4l-4 4
l-3 3l-3 5l-3 3q-2 4 -2 5l-3 4l-2 4l-2 5l-1 4l-2 5l-1 4l-2 6v5q-1 1 -1 5v7v2v11v1l2 8q0 3 1 4q0 4 1 6q0 1 2 5l1 4l3 5q0 2 2 4q2 5 4 7l1 2l6 8v0l199 239l-199 240q-23 26 -23 65q0 42 29.5 71.5t71.5 29.5q23 0 43.5 -10t34.5 -27l175 -210l174 210h1q14 17 34 27
t44 10q42 0 71.5 -29.5t29.5 -71.5q0 -37 -23 -65l-199 -240l199 -239l6 -8l1 -2q1 -1 2 -2.5t2 -4.5l2 -4q1 -1 1 -2.5t1 -2.5l2 -4q0 -1 2 -5l1 -5l1 -5q1 -2 1 -7q0 -2 1 -2v-10v-1v-3v-6q-1 -2 -1 -6l-1 -4l-1 -6q-1 -1 -1 -4l-2 -5l-2 -4q0 -1 -2 -5l-2 -4l-2 -4l-3 -5
l-3 -3z" />
    <glyph glyph-name="y" unicode="y" horiz-adv-x="934" 
d="M580 131v-1l-198 -395q-13 -25 -37.5 -40.5t-53.5 -15.5q-42 0 -71.5 29.5t-29.5 71.5q0 24 11 46h-1l173 345l-313 479q-16 26 -16 55q0 42 29.5 72t71.5 30q26 0 48.5 -12.5t36.5 -33.5l248 -381l186 371q12 25 36.5 40.5t53.5 15.5q42 0 72 -30t30 -72q0 -25 -11 -45z
" />
    <glyph glyph-name="y" unicode="&#xff;" horiz-adv-x="934" 
d="M580 131v-1l-198 -395q-13 -25 -37.5 -40.5t-53.5 -15.5q-42 0 -71.5 29.5t-29.5 71.5q0 24 11 46h-1l173 345l-313 479q-16 26 -16 55q0 42 29.5 72t71.5 30q26 0 48.5 -12.5t36.5 -33.5l248 -381l186 371q12 25 36.5 40.5t53.5 15.5q42 0 72 -30t30 -72q0 -25 -11 -45z
" />
    <glyph glyph-name="y" unicode="&#xfd;" horiz-adv-x="934" 
d="M580 131v-1l-198 -395q-13 -25 -37.5 -40.5t-53.5 -15.5q-42 0 -71.5 29.5t-29.5 71.5q0 24 11 46h-1l173 345l-313 479q-16 26 -16 55q0 42 29.5 72t71.5 30q26 0 48.5 -12.5t36.5 -33.5l248 -381l186 371q12 25 36.5 40.5t53.5 15.5q42 0 72 -30t30 -72q0 -25 -11 -45z
" />
    <glyph glyph-name="z" unicode="z" horiz-adv-x="868" 
d="M761 173q30 -30 30 -72t-30 -71.5t-72 -29.5h-509q-30 0 -55 16q-24 14 -35.5 36.5t-11.5 47.5q0 39 24 67l370 441h-293q-42 0 -71.5 30t-29.5 72t29.5 71.5t71.5 29.5h510q44 0 72.5 -30.5t28.5 -71.5q0 -35 -22 -63l-1 -2l-371 -441h293q42 0 72 -30z" />
    <glyph glyph-name="uni00A0" unicode="&#xa0;" horiz-adv-x="629" 
 />
    <glyph glyph-name="sterling" unicode="&#xa3;" horiz-adv-x="1073" 
d="M992 71l-6 -13q-12 -26 -36.5 -42t-54.5 -16h-701q-42 0 -71.5 29.5t-29.5 71.5t29.5 72t71.5 30h49v213h-64q-42 0 -71.5 29.5t-29.5 71.5t29.5 71.5t71.5 29.5h63q3 151 39.5 252t119 155.5t221.5 54.5q103 0 187.5 -46t115.5 -133v-2q1 -1 1 -3l2 -7v-3l2 -7v-4v-6v-1
v-4v-4l-1 -7v-2q-6 -36 -34.5 -60.5t-65.5 -24.5q-33 0 -59 19t-37 50q-7 19 -42 30.5t-79 11.5q-38 0 -70.5 -9.5t-49.5 -28.5q-44 -51 -47 -221h296v0q42 0 72 -29.5t30 -71.5q0 -43 -30 -72.5t-72 -29.5q-8 0 -12 1h-283v-213h449q42 0 71.5 -30t29.5 -72q0 -16 -4 -28
v-2z" />
    <glyph glyph-name="Adieresis" unicode="&#xc4;" horiz-adv-x="1254" 
d="M363 1131.5q-30 29.5 -30 71.5t30 72t72 30t71.5 -30t29.5 -72t-29.5 -71.5t-71.5 -29.5t-72 29.5zM747.5 1131.5q-29.5 29.5 -29.5 71.5t29.5 72t71.5 30t71.5 -30t29.5 -72t-29.5 -71.5t-71.5 -29.5t-71.5 29.5zM1153 37l-5 -5q0 -2 -2 -2l-4 -5q-1 0 -3 -2l-4 -3
l-4 -3l-4 -2l-5 -3l-1 -1l-3 -1l-6 -3l-3 -1l-6 -2l-5 -1l-4 -1l-6 -1h-4q-2 -1 -7 -1h-2h-1h-7q-1 1 -4 1t-5 1h-5q-1 1 -3 1l-6 2l-3 1q-4 2 -6 2l-3 2l-6 3l-4 2l-4 3l-5 3q-2 2 -3 2l-5 5l-2 2l-4 5l-3 2l-3 5l-3 4l-2 3l-3 6l-1 1l-104 205h-274q-42 0 -72 30t-30 72
t30 71.5t72 29.5h171l-150 296l-358 -704v-1l-3 -6q-2 -2 -2 -3l-3 -4l-3 -5l-3 -2l-4 -5l-2 -2l-5 -5l-3 -1l-5 -4l-4 -3l-4 -2l-6 -3l-3 -2q-2 0 -6 -2l-3 -1l-6 -2l-4 -1h-5q-1 -1 -5 -1l-4 -1h-6h-1h-3q-4 0 -6 1h-4l-6 1l-5 1l-4 1l-6 2l-4 1l-6 3l-2 1l-0.5 0.5
l-0.5 0.5l-5 3q-2 0 -4 2l-4 3l-4 3q-2 2 -3 2l-4 5q-2 0 -2 2q-3 2 -5 5l-2 2l-4 5q-2 4 -2 5l-3 4l-3 5l-1 3l-3 7l-1 2l-1 6l-1 4l-1 5l-1 5v4v6v1v3v7v3q1 2 1 6q1 2 1 5l2 5l1 5l2 4l3 6q0 2 1 2l444 875q11 28 36.5 46t57.5 18t57 -18t37 -46l444 -875q1 0 1 -2l3 -6
l1 -4q2 -4 2 -5q1 -2 1 -5q1 -2 1 -5q1 -2 1 -6q1 -1 1 -4v-6v-3v-1v-6v-4q-1 -2 -1 -5l-1 -5l-1 -4l-2 -6l-1 -2q0 -3 -2 -7l-1 -3l-3 -5l-3 -5l-2 -4q-2 -1 -4 -5z" />
    <glyph glyph-name="Edieresis" unicode="&#xcb;" horiz-adv-x="946" 
d="M209 1182.5q-30 29.5 -30 71.5t30 71.5t72 29.5t71.5 -29.5t29.5 -71.5t-29.5 -71.5t-71.5 -29.5t-72 29.5zM593.5 1182.5q-29.5 29.5 -29.5 71.5t29.5 71.5t71.5 29.5t72 -29.5t30 -71.5t-30 -71.5t-72 -29.5t-71.5 29.5zM838.5 173q29.5 -30 29.5 -72t-29.5 -71.5
t-71.5 -29.5h-588q-29 0 -52 14q-22 14 -35.5 37t-13.5 50v882v1v1q0 42 29.5 71.5t71.5 29.5l15 -1h573q42 0 71.5 -30t29.5 -72t-29.5 -71.5t-71.5 -29.5h-487v-238h401q42 0 71.5 -30t29.5 -72t-29.5 -71.5t-71.5 -29.5h-401v-238h487q42 0 71.5 -30z" />
    <glyph glyph-name="Odieresis" unicode="&#xd6;" horiz-adv-x="1304" 
d="M388 1168.5q-30 29.5 -30 71.5t30 72t72 30t71.5 -30t29.5 -72t-29.5 -71.5t-71.5 -29.5t-72 29.5zM772.5 1168.5q-29.5 29.5 -29.5 71.5t29.5 72t71.5 30t72 -30t30 -72t-30 -71.5t-72 -29.5t-71.5 29.5zM940 1036.5q132 -77.5 209 -209.5t77 -288t-77 -287.5t-209 -209
t-288 -77.5v0q-156 0 -288 77.5t-209 209t-77 287.5q0 155 76 286.5t206 209t285 79.5h7q156 0 288 -77.5zM838 218q85 50 135.5 135t50.5 186t-50 186.5t-135.5 135.5t-186.5 50t-186.5 -50t-135.5 -135.5t-50 -186.5q0 -114 63 -206.5t164 -135.5q69 -29 145 -29
q101 0 186 50z" />
    <glyph glyph-name="Udieresis" unicode="&#xdc;" horiz-adv-x="1098" 
d="M285 1146q-30 30 -30 72t30 71.5t72 29.5t71.5 -29.5t29.5 -71.5t-29.5 -72t-71.5 -30t-72 30zM669.5 1146q-29.5 30 -29.5 72t29.5 71.5t71.5 29.5t71.5 -29.5t29.5 -71.5t-29.5 -72t-71.5 -30t-71.5 30zM990.5 1087q29.5 -30 29.5 -72v-579v-5q0 -117 -66 -216
t-175 -157t-231 -58q-123 0 -231 58t-173.5 157t-65.5 216v5v579q0 42 29.5 72t71.5 30t71.5 -30t29.5 -72v-2v-577v-5q0 -60 38 -113t100 -84t130 -31v0q68 0 130.5 31t100.5 83.5t38 112.5v1l1 5v577l-1 2q0 42 30 72t72 30t71.5 -30z" />
    <glyph glyph-name="uni0410" unicode="&#x410;" horiz-adv-x="1254" 
d="M1176 101q0 -42 -29.5 -71.5t-71.5 -29.5q-29 0 -53.5 15t-36.5 40l-105 206h-274q-42 0 -72 30t-30 72t30 71.5t72 29.5h171l-150 295l-358 -704v1q-12 -25 -36.5 -40.5t-53.5 -15.5q-42 0 -71.5 29.5t-29.5 71.5q0 24 11 46l444 875q11 28 36.5 46t57.5 18t57 -18
t37 -46l444 -875q11 -22 11 -46z" />
    <glyph glyph-name="uni0412" unicode="&#x412;" horiz-adv-x="1081" 
d="M971 480q32 -68 32 -142q0 -87 -41.5 -164.5t-118 -125.5t-174.5 -48h-490q-7 0 -10 1q-29 2 -51.5 19.5t-33.5 44.5q-6 18 -6 36v882v1v1q0 42 29.5 71.5t71.5 29.5h1h439q88 0 159.5 -43.5t111.5 -115.5t40 -153q0 -92 -54 -172q-2 -2 -2 -4q65 -50 97 -118zM737 221.5
q30 18.5 47 48.5t17 64q0 40 -23 73q-24 35 -55 47t-67 12l-34 -1l-182 1l-3 -1q-42 0 -71.5 30t-29.5 72q0 39 26.5 68t64.5 33h10h1h183q50 1 77.5 33t27.5 75q0 42 -26.5 73.5t-73.5 32.5h-346v-679h389q38 0 68 18.5z" />
    <glyph glyph-name="uni041A" unicode="&#x41a;" horiz-adv-x="1042" 
d="M964 101q0 -42 -29.5 -71.5t-71.5 -29.5q-24 0 -44.5 9.5t-34.5 27.5l-347 423l-157 -163v-196q0 -42 -29.5 -71.5t-71.5 -29.5t-71.5 29.5t-29.5 71.5v888q2 40 31.5 68t69.5 28t69.5 -28t31.5 -68v-400l448 465h1l4 5l3 2l5 4q2 2 3 2q6 4 9 5q2 2 4 2l5 3l4 1q2 2 5 2
l4 1l6 2h4q2 1 6 1l10 1v0l10 -1h4q2 -1 6 -1q1 -1 4 -1q1 -1 2.5 -1t2.5 -1l5 -1l4 -2q1 0 5 -2l4 -2l4 -2l5 -3l4 -3l4 -3l4 -3q2 -2 2 -3h1l4 -5l3 -3l3 -4l3 -4l2 -3l3 -5l2 -4q2 -4 2 -5q2 -4 2 -5l2 -4l1 -6q1 -1 1 -4q1 -1 1 -5l1 -5v-4v-6v-1v-3v-6q0 -3 -1 -5v-5
q-1 -1 -1 -4q-1 -1 -1 -2.5t-1 -2.5l-1 -5l-2 -5l-2 -4l-2 -5l-3 -4l-2 -4l-3 -4l-3 -4q-1 -3 -4 -4q0 -1 -2 -3l-295 -306l362 -441q23 -30 23 -65z" />
    <glyph glyph-name="uni041C" unicode="&#x41c;" horiz-adv-x="1339" 
d="M1231.5 29.5q-29.5 -29.5 -71.5 -29.5q-41 0 -70.5 29.5t-30.5 70.5l-38 604l-277 -363l-1 -1q-6 -8 -10 -11q-3 -4 -11 -10q-10 -6 -18 -10q-19 -9 -42 -9h-1q-24 0 -43 10q-2 1 -14 8q-2 1 -6 5q-6 4 -8 7l-10 11l-1 2l-0.5 0.5l-0.5 0.5q-23 27 -73.5 95.5
t-111.5 152.5l-75 104l-38 -596q0 -41 -30 -70.5t-71 -29.5q-42 0 -71.5 29.5t-29.5 70.5v1q0 9 1 13l54 867v1q0 42 30 71.5t72 29.5q25 0 46.5 -11t35.5 -31l346 -471l360 472l1 1l2 3l1 1l2 3l4 4l4 3l4 4l3 3l5 3l4 2l5 3l1 1q2 0 3 1t2.5 1t2.5 1l4 2l6 1q1 1 4 1l6 2
h4q2 1 6 1h3h5h9h3q2 -1 6 -1q1 -1 3 -1l7 -2h2l1 -1v0v0l8 -3v0q6 -2 8 -4l3 -1l5 -3l3 -3l3 -1l2 -2l1 -1h1l2 -3l5 -4l3 -3l3 -5l3 -3l3 -5l3 -4l2 -4l1 -2l1 -2l3 -6l1 -4l2 -6l1 -4q1 -2 1 -6q1 -1 1 -4v-6q1 0 1 -2v-5v-1l55 -867l1 -13v-1q-1 -41 -30.5 -70.5z" />
    <glyph glyph-name="Euro" unicode="&#x20ac;" horiz-adv-x="1111" 
d="M1016 183q-39 -58 -92 -99q-45 -33 -102 -52q-19 -7 -61 -16q-31 -5 -64 -5q-19 0 -33 2q-160 1 -271 90.5t-156 249.5h-58q-42 0 -71.5 29.5t-29.5 71.5t29.5 72t71.5 30h31v16q0 28 1 41h-31q-42 0 -72 30t-30 72t30 71.5t72 29.5h71q55 147 171 231t275 85h1l4 -1h2
q89 -4 170.5 -46t120.5 -116l1 -2l0.5 -0.5l0.5 -0.5q11 -22 11 -46q0 -42 -29.5 -72t-71.5 -30q-29 0 -53.5 15t-36.5 40q-13 24 -49.5 38.5t-72.5 17.5h-1v0h-1v0q-143 -3 -216 -113h206q42 0 71.5 -29.5t29.5 -71.5t-29.5 -72t-71.5 -30h-269q-2 -26 -2 -41q0 -11 1 -16
h269q42 0 72 -30t30 -72t-30 -71.5t-72 -29.5h-230q32 -71 85.5 -104t130.5 -34h2h8q4 0 6 -1h2h11v0q15 0 36 3q21 5 45 15q17 8 30 19q24 20 39 44l1 1l1 2l4 5l1 2l6 6l0.5 0.5l0.5 0.5l6 6h1l7 6h1q1 1 7 4l0.5 0.5l0.5 0.5l8 4l2 1l7 2q1 1 3 1l6 2h3l8 2h2h9v0h9
q2 0 3 -1q5 0 7 -1h2l8 -2l3 -1l6 -2l3 -1l5 -3l3 -1q2 -2 6 -4h1l6 -5l2 -2l5 -4q2 -2 3 -2l3 -4l3 -4q2 -1 4 -5l2 -2q13 -18 16 -43q1 -1 1 -3v-5v-5l0.5 -0.5l0.5 -0.5l-1 -4v-6l-1 -4v-5q-1 -2 -1 -5l-2 -5l-1 -5l-2 -4l-3 -6l-1 -3q-2 -4 -4 -6q0 -2 -1 -3z" />
    <glyph glyph-name="v.alt1" unicode="&#xf001;" horiz-adv-x="944" 
d="M563 58l-2 -4q-13 -24 -37.5 -39t-53.5 -15q-23 0 -46 12l-1 1q-3 1 -4.5 2t-2.5 2q-2 2 -3 2l-4 3l-1 1l-2 1l-6 6v0l-6 7h-1l-5 7v1q-5 7 -5 8l-3 5l-292 608q-10 19 -10 44q0 42 29.5 71.5t71.5 29.5q30 0 54.5 -15.5t36.5 -41.5l202 -419l201 419q13 26 37.5 41.5
t54.5 15.5q42 0 71.5 -29.5t29.5 -71.5q0 -22 -10 -44l-291 -604z" />
    <glyph glyph-name="u.alt1" unicode="&#xf002;" horiz-adv-x="896" 
d="M818 91q0 -42 -29.5 -71.5t-71.5 -29.5q-27 0 -50 13.5t-37 35.5q-87 -47 -181 -47q-97 0 -182.5 47t-137 130t-51.5 186v7v348v7v8v1q3 39 32 66t69 27t69 -27t32 -66v-371q0 -23 8 -47q17 -55 60 -83.5t96 -28.5q44 0 83 19t63.5 55t24.5 85v362v0q0 42 30 72t72 30
t71.5 -30t29.5 -72v0v-362v-264z" />
    <glyph glyph-name="j.alt1" unicode="&#xf003;" horiz-adv-x="605" 
d="M354.5 948q-29.5 30 -29.5 72t29.5 71.5t71.5 29.5t72 -29.5t30 -71.5t-30 -72t-72 -30t-71.5 30zM498 784q30 -30 30 -72q0 -6 -1 -8v-704q-4 -71 -44 -136q-40 -66 -105 -97t-146 -31q-30 0 -67 5t-62 33.5t-25 66.5q0 42 29.5 71.5t71.5 29.5q9 0 13 -1h1q23 -3 40 -3
q45 0 64 16.5t25 47.5q2 9 2.5 49t0.5 158v503q0 42 29.5 72t71.5 30t72 -30z" />
    <glyph glyph-name="o.alt1" unicode="&#xf005;" 
d="M723 765q99 -57 157.5 -154t58.5 -213q0 -115 -58 -212.5t-157 -154.5t-216 -57t-216 57t-156.5 154.5t-57.5 212.5q0 116 58 213t156.5 154t215.5 57q116 0 215 -57zM622.5 206.5q52.5 29.5 83.5 80.5t31 111q-1 68 -39.5 123t-99.5 80q-45 18 -90 18q-60 0 -112.5 -29
t-84 -79.5t-31.5 -112.5q0 -60 30.5 -111t83 -80.5t114.5 -29.5t114.5 29.5z" />
    <glyph glyph-name="o.alt2" unicode="&#xf006;" 
d="M723 765q99 -57 157.5 -154t58.5 -213q0 -115 -58 -212.5t-157 -154.5t-216 -57t-216 57t-156.5 154.5t-57.5 212.5q0 116 58 213t156.5 154t215.5 57q116 0 215 -57zM622.5 206.5q52.5 29.5 83.5 80.5t31 111q-1 68 -39.5 123t-99.5 80q-45 18 -90 18q-60 0 -112.5 -29
t-84 -79.5t-31.5 -112.5q0 -60 30.5 -111t83 -80.5t114.5 -29.5t114.5 29.5z" />
    <glyph glyph-name="o.alt3" unicode="&#xf007;" 
d="M723 765q99 -57 157.5 -154t58.5 -213q0 -115 -58 -212.5t-157 -154.5t-216 -57t-216 57t-156.5 154.5t-57.5 212.5q0 116 58 213t156.5 154t215.5 57q116 0 215 -57zM622.5 206.5q52.5 29.5 83.5 80.5t31 111q-1 68 -39.5 123t-99.5 80q-45 18 -90 18q-60 0 -112.5 -29
t-84 -79.5t-31.5 -112.5q0 -60 30.5 -111t83 -80.5t114.5 -29.5t114.5 29.5z" />
    <glyph glyph-name="F.alt1" unicode="&#xf009;" horiz-adv-x="961" 
d="M854 1056.5q30 -29.5 30 -71.5t-30 -72t-72 -30l-15 1v-2h-487v-238h401q42 0 71.5 -30t29.5 -72t-29.5 -71.5t-71.5 -29.5h-401v-340q0 -42 -29.5 -71.5t-71.5 -29.5t-71.5 29.5t-29.5 71.5v884q0 41 29 70l0.5 0.5l0.5 0.5l9 7q27 22 62 22h588l15 1q42 0 72 -29.5z
" />
    <glyph glyph-name="LF" horiz-adv-x="0" 
 />
    <glyph glyph-name="controlCR" horiz-adv-x="0" 
 />
    </font>
</defs>
</svg>
