<?xml version="1.0" standalone="no"?>
<!DOCTYPE svg PUBLIC "-//W3C//DTD SVG 1.1//EN" "http://www.w3.org/Graphics/SVG/1.1/DTD/svg11.dtd" >
<svg xmlns="http://www.w3.org/2000/svg" xmlns:xlink="http://www.w3.org/1999/xlink" version="1.1">
<metadata>
Created by FontForge 20170731 at Wed Nov 28 14:37:23 2018
 By Aleksey,,,
Copyright (c) 2012 by . All rights reserved.
</metadata>
<defs>
<font id="Multicolore-Regular" horiz-adv-x="738" >
  <font-face 
    font-family="Multicolore"
    font-weight="700"
    font-stretch="normal"
    units-per-em="1000"
    panose-1="2 0 0 0 0 0 0 0 0 0"
    ascent="750"
    descent="-250"
    x-height="695"
    cap-height="695"
    bbox="-51 -194 1305 951"
    underline-thickness="50"
    underline-position="-150"
    unicode-range="U+0020-20AC"
  />
<missing-glyph horiz-adv-x="292" 
 />
    <glyph glyph-name=".notdef" horiz-adv-x="292" 
 />
    <glyph glyph-name=".null" horiz-adv-x="0" 
 />
    <glyph glyph-name="nonmarkingreturn" horiz-adv-x="333" 
 />
    <glyph glyph-name="space" unicode=" " horiz-adv-x="292" 
 />
    <glyph glyph-name="exclam" unicode="!" horiz-adv-x="292" 
d="M98.5 685.5q19.5 18.5 47.5 18.5t49.5 -19t21.5 -52v-352q0 -28 -21.5 -45t-50.5 -17q-27 0 -46.5 16t-19.5 46v352q0 34 19.5 52.5zM94.5 126q22.5 17 54.5 17q31 0 53.5 -17t22.5 -47v-19q0 -35 -23 -54.5t-54 -19.5t-53.5 19.5t-22.5 54.5v19q0 30 22.5 47z" />
    <glyph glyph-name="quotedbl" unicode="&#x22;" horiz-adv-x="405" 
d="M68.5 685q16.5 12 40.5 12q23 0 40 -12t17 -34v-172q0 -23 -17.5 -36.5t-40.5 -13.5t-39.5 13t-16.5 37v172q0 22 16.5 34zM261.5 685q16.5 12 40.5 12q23 0 40 -12t17 -34v-172q0 -23 -17.5 -36.5t-40.5 -13.5t-39.5 13t-16.5 37v172q0 22 16.5 34z" />
    <glyph glyph-name="dollar" unicode="$" horiz-adv-x="611" 
d="M60 46q-20 20 -20 52q0 24 13 42q8 10 21 17t28 7q21 0 38 -13q20 -14 50.5 -25.5t63.5 -18.5v202q-65 14 -110 32.5t-74 56t-29 99.5q0 9 2 31q7 79 65.5 125t145.5 59v16q0 32 17 49.5t40 17.5t39.5 -17.5t16.5 -49.5v-24q39 -7 69 -17t55 -28q30 -21 30 -53
q0 -25 -17.5 -44t-41.5 -19q-18 0 -34 12q-7 3 -24 10.5t-37 13.5v-182q96 -25 152.5 -69t56.5 -132q0 -89 -58.5 -144t-150.5 -68v-25q0 -32 -16.5 -49.5t-39.5 -17.5t-40 17.5t-17 49.5v16q-110 12 -194 71zM166 502q0 -31 22 -48.5t66 -31.5v166q-88 -15 -88 -86z
M426 144.5q21 22.5 21 59.5q-7 26 -27.5 44.5t-52.5 25.5v-167q38 15 59 37.5z" />
    <glyph glyph-name="percent" unicode="%" horiz-adv-x="934" 
d="M51.5 635.5q25.5 44.5 66.5 67t87 22.5q47 0 88 -22.5t66 -67t25 -107.5t-25 -108t-66 -67.5t-88 -22.5q-46 0 -87 22.5t-66.5 67.5t-25.5 108t25.5 107.5zM192 31.5q-9 14.5 -9 30.5q0 21 14 38l406 569q7 12 21.5 19t30.5 7q20 0 34 -10q28 -26 28 -60q0 -19 -9 -37
l-404 -561q-9 -13 -24.5 -20t-32.5 -7t-31 9q-15 8 -24 22.5zM249.5 591q-17.5 23 -41.5 23t-42 -23t-18 -63t18 -62.5t42 -22.5t41.5 22.5t17.5 62.5t-17.5 63zM563.5 293q25.5 45 66.5 68t88 23t88 -23t66.5 -68t25.5 -109q0 -63 -25.5 -107.5t-66.5 -67t-88 -22.5
t-88 22.5t-66.5 67t-25.5 107.5q0 64 25.5 109zM762.5 247q-18.5 23 -43.5 23q-26 0 -44.5 -22.5t-18.5 -63.5q0 -37 18.5 -57.5t44.5 -20.5q25 0 43.5 20.5t18.5 57.5q0 40 -18.5 63z" />
    <glyph glyph-name="ampersand" unicode="&#x26;" horiz-adv-x="683" 
d="M394 9q-52 -25 -109 -25q-73 0 -132 31t-92 83.5t-33 114.5q0 66 38 120.5t103 81.5q-13 20 -23.5 49t-10.5 54q0 59 25 103t67 67.5t90 23.5q94 0 148.5 -54.5t54.5 -147.5q0 -56 -27 -103t-78 -73l71 -70l47 75q10 15 23 22.5t27 7.5q23 0 40 -16.5t17 -39.5
q0 -16 -11 -33q-18 -30 -37 -58l-29 -46l73 -72q20 -23 20 -46q0 -25 -21 -43t-47 -18q-28 0 -49 22l-53 61q-40 -46 -92 -71zM275.5 469q8.5 -20 33.5 -40q42 0 61.5 27.5t19.5 61.5q0 28 -18.5 49t-44.5 21q-25 0 -42.5 -21t-17.5 -49q0 -29 8.5 -49zM197.5 142.5
q37.5 -26.5 87.5 -26.5q31 0 58.5 12.5t54.5 39.5l-60 60l-80 81q-28 -7 -45.5 -14.5t-33 -27t-19.5 -54.5q0 -44 37.5 -70.5z" />
    <glyph glyph-name="quotesingle" unicode="'" horiz-adv-x="206" 
d="M52 651q0 22 16.5 34t40.5 12q23 0 40 -12t17 -34v-172q0 -23 -17.5 -36.5t-40.5 -13.5t-39.5 13t-16.5 37v172z" />
    <glyph glyph-name="comma" unicode="," horiz-adv-x="211" 
d="M57.5 102.5q17.5 17.5 51.5 17.5q29 0 47.5 -18t18.5 -46q0 -29 -7 -62t-20 -60q-9 -19 -26 -29.5t-36 -10.5q-23 0 -38.5 13.5t-15.5 38.5q0 15 7 33v12l1 65q0 29 17.5 46.5z" />
    <glyph glyph-name="hyphen" unicode="-" horiz-adv-x="474" 
d="M113 279q-30 0 -46.5 18t-16.5 42q0 25 16.5 43t46.5 18h252q28 0 43.5 -17.5t15.5 -41.5q0 -25 -16 -43.5t-43 -18.5h-252z" />
    <glyph glyph-name="period" unicode="." horiz-adv-x="232" 
d="M42 87q0 32 21.5 50t51.5 18q29 0 50.5 -18t21.5 -50v-19q0 -32 -22 -50.5t-52 -18.5q-29 0 -50 18t-21 51v19z" />
    <glyph glyph-name="slash" unicode="/" horiz-adv-x="494" 
d="M362 664q9 17 23 25t29 8q25 0 43.5 -17.5t18.5 -42.5q0 -18 -9 -33l-342 -579q-16 -30 -49 -30q-25 0 -44.5 18t-19.5 43q0 16 8 29z" />
    <glyph glyph-name="zero" unicode="0" horiz-adv-x="685" 
d="M510.5 661.5q65.5 -51.5 98.5 -135t33 -177.5q0 -93 -33 -175.5t-98 -133.5t-157 -51q-98 0 -167.5 51t-104.5 133.5t-35 175.5q0 94 35 177.5t104.5 135t166.5 51.5q92 0 157.5 -51.5zM259 545.5q-40 -32.5 -60 -85t-20 -112.5q0 -59 20 -111.5t59.5 -84.5t94.5 -32
q50 0 85.5 32t53.5 84.5t18 111.5q0 60 -18 112.5t-53 85t-85 32.5q-55 0 -95 -32.5z" />
    <glyph glyph-name="one" unicode="1" horiz-adv-x="378" 
d="M175 533l-60 -24q-11 -4 -23 -4q-27 0 -45 20t-18 45q0 20 12 36t37 25l141 52q15 7 33 7q25 0 40 -19t15 -58v-560q0 -26 -20 -41t-47 -15q-26 0 -45.5 14.5t-19.5 41.5v480z" />
    <glyph glyph-name="two" unicode="2" horiz-adv-x="579" 
d="M127.5 184.5q40.5 36.5 94.5 81.5q84 73 97 85q30 24 47 56.5t17 64.5q0 41 -27.5 68t-80.5 27q-32 0 -63.5 -18t-50.5 -49q-19 -30 -53 -30q-25 0 -43 17t-18 44q0 17 9 38q32 63 90.5 93t128.5 30q73 0 128 -29t84.5 -78t29.5 -109q0 -54 -25 -109t-76 -104
q-55 -46 -98 -77t-96 -63q22 0 40 1t31 2q36 3 70 3h116q28 0 45 -20t17 -47q0 -26 -16 -44t-46 -18h-388q-30 0 -47.5 16.5t-17.5 39.5q0 28 21 49q40 43 80.5 79.5z" />
    <glyph glyph-name="three" unicode="3" horiz-adv-x="561" 
d="M119 567q-29 0 -45 18t-16 43q0 26 16.5 45t44.5 19h306q29 0 47.5 -19t18.5 -45q0 -29 -22 -51l-166 -155l17 1q56 0 102 -26.5t72.5 -71t26.5 -97.5q0 -63 -30 -115t-91 -82.5t-149 -30.5q-63 0 -117.5 26.5t-87.5 78.5q-12 17 -12 37q0 25 19.5 43t46.5 18
q33 0 55 -29q19 -25 48.5 -38t64.5 -13q52 0 86.5 25t34.5 80q0 86 -120 86q-21 0 -76 -5q-14 -2 -19 -2q-31 0 -48.5 18.5t-17.5 44.5q0 33 25 52l157 145h-171z" />
    <glyph glyph-name="four" unicode="4" horiz-adv-x="633" 
d="M100 137q-37 0 -56 16.5t-19 42.5q0 30 23 59l334 403q16 17 31 25.5t40 8.5q30 0 45 -20t15 -50v-359h44q28 0 43 -18t15 -43q0 -26 -15.5 -45.5t-42.5 -19.5h-44v-84q0 -27 -19.5 -42t-46.5 -15q-26 0 -45.5 15t-19.5 42v84h-282zM389 264l2 228l-190 -228h188z" />
    <glyph glyph-name="five" unicode="5" horiz-adv-x="586" 
d="M152 22q-52 26 -83 79q-9 17 -9 32q0 26 20.5 45.5t45.5 19.5q30 0 48 -28q20 -25 45.5 -38t50.5 -13q61 0 101 26.5t40 86.5q0 49 -39 72.5t-93 23.5q-22 0 -55.5 -5.5t-66.5 -12.5q-18 -4 -25 -4q-27 0 -45.5 18t-18.5 46q0 7 1 11l8 237q0 37 21.5 53.5t58.5 16.5h290
q30 0 46 -18.5t16 -43.5q0 -26 -16.5 -45t-45.5 -19h-245l-6 -121q45 12 92 12q68 0 126 -25t93.5 -75t35.5 -121q0 -76 -36 -129.5t-98 -80t-139 -26.5q-66 0 -118 26z" />
    <glyph glyph-name="six" unicode="6" horiz-adv-x="633" 
d="M113 82.5q-66 91.5 -66 233.5q0 58 12 130q21 112 95 184.5t193 72.5q52 0 103 -18t79 -47q23 -24 23 -50t-20.5 -45.5t-46.5 -19.5q-23 0 -38 14q-20 17 -47.5 26.5t-52.5 9.5q-62 0 -97 -23.5t-49.5 -61.5t-21.5 -95q38 25 74 34.5t86 9.5q66 0 122 -26t89 -75t33 -117
q0 -69 -32.5 -121t-90 -79.5t-131.5 -27.5q-150 0 -216 91.5zM229 285q-33 -29 -33 -70q0 -39 36.5 -65.5t96.5 -26.5q58 0 90.5 27.5t32.5 68.5q0 42 -30.5 68.5t-92.5 26.5q-67 0 -100 -29z" />
    <glyph glyph-name="seven" unicode="7" horiz-adv-x="535" 
d="M346 571h-267q-31 0 -48.5 18t-17.5 42q0 25 17.5 43t48.5 18h360q34 0 53.5 -18.5t19.5 -44.5q0 -17 -10 -35l-298 -561q-9 -18 -24.5 -27t-33.5 -9q-26 0 -46.5 16t-20.5 41q0 16 9 32z" />
    <glyph glyph-name="eight" unicode="8" horiz-adv-x="632" 
d="M117.5 36.5q-80.5 54.5 -80.5 166.5q0 50 27.5 90t70.5 66q-33 25 -52 63.5t-19 77.5q0 67 36.5 115t95.5 73t125 25q64 0 120 -24t90.5 -72t34.5 -117q0 -40 -19 -78t-53 -63q45 -23 72.5 -64t27.5 -93q0 -76 -38 -125t-100 -72t-135 -23q-123 0 -203.5 54.5zM229 445.5
q36 -22.5 86 -22.5t86 22.5t36 62.5t-36 62t-86 22t-86 -22t-36 -62t36 -62.5zM212 128q45 -27 106 -27q59 0 102 26.5t43 74.5q0 47 -43.5 73t-102.5 26q-61 0 -105.5 -26.5t-44.5 -72.5q0 -47 45 -74z" />
    <glyph glyph-name="nine" unicode="9" horiz-adv-x="642" 
d="M580 362q0 -57 -9 -133q-22 -114 -92.5 -176t-191.5 -62q-58 0 -112 15t-89 47q-21 20 -21 46q0 27 19.5 47.5t45.5 20.5q23 0 44 -18q19 -14 50.5 -24.5t62.5 -10.5q80 0 119 51.5t46 133.5q-78 -56 -157 -56q-66 0 -122.5 26.5t-90 76.5t-33.5 119t32.5 123t90 84.5
t131.5 30.5q277 0 277 -341zM402 396q35 28 35 69q0 27 -15.5 52.5t-45.5 41.5t-73 16q-56 0 -89 -31.5t-33 -78.5q0 -38 31.5 -67.5t90.5 -29.5q64 0 99 28z" />
    <glyph glyph-name="colon" unicode=":" horiz-adv-x="232" 
d="M63.5 431q21.5 18 51.5 18q29 0 50.5 -18t21.5 -50v-19q0 -32 -22 -50.5t-52 -18.5q-29 0 -50 18t-21 51v19q0 32 21.5 50zM63.5 137q21.5 18 51.5 18q29 0 50.5 -18t21.5 -50v-19q0 -32 -22 -50.5t-52 -18.5q-29 0 -50 18t-21 51v19q0 32 21.5 50z" />
    <glyph glyph-name="semicolon" unicode=";" horiz-adv-x="239" 
d="M63.5 431q21.5 18 51.5 18q29 0 50.5 -18t21.5 -50v-19q0 -32 -22 -50.5t-52 -18.5q-29 0 -50 18t-21 51v19q0 32 21.5 50zM68.5 102.5q17.5 17.5 51.5 17.5q29 0 47.5 -18t18.5 -46q0 -29 -7 -62t-20 -60q-9 -19 -26 -29.5t-36 -10.5q-23 0 -38.5 13.5t-15.5 38.5
q0 15 7 33v12l1 65q0 29 17.5 46.5z" />
    <glyph glyph-name="question" unicode="?" horiz-adv-x="491" 
d="M75 648q23 23 63 39.5t100 16.5q65 0 114 -28t75 -75t26 -102q0 -62 -36 -117t-104 -82v-52q0 -29 -19.5 -45.5t-45.5 -16.5q-25 0 -43.5 16t-18.5 46v86q0 47 43 63q51 18 74 40.5t23 64.5q0 32 -27 55t-61 23t-60 -12.5t-45 -44.5q-17 -26 -46 -26q-25 0 -45.5 19
t-20.5 45q0 15 7 28q24 36 47 59zM205.5 117q19.5 16 45.5 16q27 0 46.5 -16t19.5 -44v-17q0 -28 -19.5 -44t-46.5 -16q-26 0 -45.5 16t-19.5 44v17q0 28 19.5 44z" />
    <glyph glyph-name="A" unicode="A" 
d="M80 -2q-16 0 -24 2q-18 10 -29 26.5t-11 36.5q0 17 8 33l287 561q10 20 27 30.5t36 10.5t35.5 -10.5t25.5 -30.5l282 -561q8 -15 8 -32q0 -28 -21.5 -47t-48.5 -19q-17 0 -31 9t-23 27l-44 88h-369l-43 -88q-17 -36 -65 -36zM373 501l-123 -247h236z" />
    <glyph glyph-name="B" unicode="B" horiz-adv-x="720" 
d="M86 17.5q-17 17.5 -17 44.5v568q0 27 17 44.5t44 17.5h281q63 0 109 -26t69.5 -69.5t23.5 -95.5q0 -78 -55 -126q58 -23 86 -66t28 -100q0 -59 -26 -106.5t-77.5 -75t-124.5 -27.5h-314q-27 0 -44 17.5zM461.5 548.5q-19.5 21.5 -50.5 21.5h-211v-149h211q33 0 51.5 20.5
t18.5 59.5q0 26 -19.5 47.5zM444 122q41 0 64 26.5t23 62.5t-23 62t-64 26h-244v-177h244z" />
    <glyph glyph-name="C" unicode="C" horiz-adv-x="704" 
d="M201 41q-79 48 -117.5 129t-38.5 181q0 99 40.5 180.5t120 130t190.5 48.5q66 0 120.5 -21t108.5 -68q10 -10 16 -23t6 -27q0 -28 -19 -47q-20 -17 -44 -17q-28 0 -48 20q-29 31 -62 43t-78 12q-74 0 -125.5 -31.5t-77 -84t-25.5 -115.5q0 -64 25.5 -118.5t77 -87
t125.5 -32.5q84 0 156 64q17 13 39 13q16 0 30.5 -7t22.5 -18q14 -19 14 -41q0 -28 -25 -53q-48 -45 -106.5 -61.5t-130.5 -16.5q-116 0 -195 48z" />
    <glyph glyph-name="D" unicode="D" horiz-adv-x="755" 
d="M90.5 15.5q-20.5 15.5 -20.5 46.5v568q0 26 21.5 44t47.5 18h229q109 0 186 -49t115.5 -128t38.5 -169t-38 -169t-113 -128t-180 -49h-238q-28 0 -48.5 15.5zM202 122h166q65 0 112 32.5t71 84.5t24 111q0 57 -23.5 107.5t-70.5 81.5t-113 31h-166v-448z" />
    <glyph glyph-name="E" unicode="E" horiz-adv-x="615" 
d="M87 18q-18 18 -18 44v568q0 27 18 44.5t44 17.5h359q33 0 50.5 -19t17.5 -45q0 -27 -18 -46.5t-50 -19.5h-288v-150h252q32 0 49.5 -19.5t17.5 -45.5q0 -27 -17.5 -46.5t-49.5 -19.5h-252v-150h305q33 0 52 -20t19 -47q0 -26 -18.5 -45t-52.5 -19h-376q-26 0 -44 18z" />
    <glyph glyph-name="F" unicode="F" horiz-adv-x="602" 
d="M200 562v-159h255q27 0 49.5 -22.5t22.5 -48.5q0 -24 -22 -42t-50 -18h-255v-210q0 -26 -17 -44t-43 -18q-32 0 -51.5 17.5t-19.5 44.5v568q0 27 19 44.5t52 17.5h351q32 0 51 -17t19 -45q0 -26 -19.5 -47t-50.5 -21h-291z" />
    <glyph glyph-name="G" unicode="G" horiz-adv-x="760" 
d="M660 77q-52 -43 -114.5 -63.5t-131.5 -20.5q-107 0 -187.5 40.5t-126 121t-45.5 196.5q0 100 48 182t132 129.5t188 47.5q63 0 123 -22t105 -66q21 -20 21 -46t-20.5 -46t-46.5 -20q-22 0 -41 16q-29 28 -66 45.5t-75 17.5q-61 0 -116 -30.5t-88.5 -85t-33.5 -122.5
q0 -72 29.5 -126t81.5 -83t118 -29q44 0 82.5 12t67.5 33v123h-150q-30 0 -46.5 17.5t-16.5 41.5q0 25 17 44t46 19h200q28 0 49.5 -18t21.5 -41v-213q0 -26 -25 -54z" />
    <glyph glyph-name="H" unicode="H" horiz-adv-x="728" 
d="M90 17.5q-19 17.5 -19 44.5v568q0 28 19 45t52 17q26 0 43.5 -17.5t17.5 -44.5v-218h326v218q0 26 20 44t48 18q26 0 44 -17.5t18 -44.5v-568q0 -26 -18 -44t-44 -18q-27 0 -47.5 18t-20.5 44v219h-326v-219q0 -26 -17.5 -44t-43.5 -18q-33 0 -52 17.5z" />
    <glyph glyph-name="I" unicode="I" horiz-adv-x="287" 
d="M77 632q0 29 20 46t47 17t46 -16.5t19 -46.5v-571q0 -30 -19.5 -46.5t-47.5 -16.5q-26 0 -45.5 16.5t-19.5 46.5v571z" />
    <glyph glyph-name="J" unicode="J" horiz-adv-x="594" 
d="M386 632q0 30 19.5 46.5t46.5 16.5t46.5 -16.5t19.5 -46.5v-395q0 -121 -61 -186.5t-187 -65.5q-68 0 -121 23t-97 80q-14 17 -14 38q0 27 20.5 48t46.5 21t44 -22q27 -34 57.5 -48t64.5 -14q52 0 83 27t32 99v395z" />
    <glyph glyph-name="K" unicode="K" horiz-adv-x="667" 
d="M297 306l-95 -105v-140q0 -30 -19.5 -46.5t-46.5 -16.5t-46.5 16.5t-19.5 46.5v571q0 30 20 47.5t47 17.5t46 -17t19 -48v-254l289 298q23 22 48 22t47 -22q21 -19 21 -44q0 -24 -21 -45q-34 -41 -110 -117q-83 -86 -82 -85l234 -283q16 -22 16 -43q0 -27 -22.5 -45
t-50.5 -18q-34 0 -51 27z" />
    <glyph glyph-name="L" unicode="L" horiz-adv-x="571" 
d="M70 632q0 25 18.5 43t44.5 18q24 0 41.5 -18t17.5 -43v-501h272q35 0 54.5 -19.5t19.5 -46.5t-19.5 -46t-54.5 -19h-331q-27 0 -45 17t-18 44v571z" />
    <glyph glyph-name="M" unicode="M" horiz-adv-x="825" 
d="M203 439v-370q0 -31 -21.5 -50t-50.5 -19q-25 0 -42.5 18.5t-17.5 50.5v563q0 24 11 39.5t25 22.5t24 7q20 0 33.5 -9t29.5 -27l220 -297l228 308q18 22 49 22q26 0 45.5 -17.5t19.5 -48.5v-563q0 -32 -17.5 -50.5t-42.5 -18.5q-28 0 -46 18.5t-18 50.5v370l-166 -210
q-27 -33 -58 -33t-56 33z" />
    <glyph glyph-name="N" unicode="N" horiz-adv-x="736" 
d="M71 622q0 33 12.5 52t47.5 19q25 0 36.5 -6.5t34.5 -28.5l331 -414v388q0 25 19 47t44 22q27 0 49 -22t22 -47v-563q0 -53 -53 -69q-26 0 -42.5 7t-38.5 28l-331 420v-386q0 -32 -17.5 -50.5t-45.5 -18.5t-48 18.5t-20 50.5v553z" />
    <glyph glyph-name="O" unicode="O" horiz-adv-x="832" 
d="M728.5 155.5q-51.5 -81.5 -133.5 -123.5t-173 -42q-96 -4 -182.5 36.5t-140.5 123.5t-54 200t54 200t140.5 125t182.5 42q92 -5 174 -48t133 -124.5t51 -194.5t-51.5 -194.5zM614.5 479q-34.5 54 -89 81t-114.5 27q-58 0 -112 -27t-88 -81t-34 -129t34 -128.5t88 -81
t112 -27.5q60 0 114.5 27.5t89 81t34.5 128.5t-34.5 129z" />
    <glyph glyph-name="P" unicode="P" horiz-adv-x="653" 
d="M90 679.5q19 21.5 49 21.5h231q67 0 123 -29.5t90 -87t34 -137.5q0 -76 -34 -132t-90.5 -85t-122.5 -29h-167v-132q0 -32 -18 -50.5t-46 -18.5q-27 0 -47.5 19t-20.5 50v563q0 26 19 47.5zM203 326h167q33 0 60.5 17t43.5 45t16 59q0 53 -35 90.5t-85 37.5h-167v-249z
" />
    <glyph glyph-name="Q" unicode="Q" horiz-adv-x="833" 
d="M770 216.5q-17 -54.5 -52 -102.5l16 -19q24 -21 24 -50q0 -26 -19.5 -45.5t-44.5 -19.5q-26 0 -47 20l-34 27q-39 -27 -86 -40t-108 -13q-92 0 -179 42t-142.5 125t-55.5 200t55.5 201t142.5 127t179 43q96 0 180.5 -42.5t136 -126.5t51.5 -202q0 -70 -17 -124.5z
M658 341q0 76 -35 130t-90 82t-114 28q-64 0 -119.5 -27.5t-90 -82t-34.5 -130.5q0 -60 32 -114.5t88 -88t124 -33.5q24 0 47.5 4.5t58.5 13.5l-114 105q-17 20 -17 44q0 29 20.5 50t48.5 21q24 0 46 -19l113 -113q36 50 36 130z" />
    <glyph glyph-name="R" unicode="R" horiz-adv-x="676" 
d="M182.5 16q-20.5 -18 -47.5 -18t-46 17t-19 48v568q0 26 17.5 43.5t42.5 17.5h266q70 0 121.5 -32t78 -84t26.5 -110q0 -65 -33.5 -119t-98.5 -80l133 -162q14 -21 14 -43q0 -27 -19.5 -45.5t-46.5 -18.5q-35 0 -60 32l-151 216h-157v-181q0 -31 -20.5 -49zM396 361
q47 0 74 32t27 75q0 42 -26.5 72.5t-74.5 30.5h-193v-210h193z" />
    <glyph glyph-name="S" unicode="S" horiz-adv-x="631" 
d="M431.5 247q-21.5 19 -53 30.5t-85.5 26.5q-75 21 -122.5 41.5t-81 61t-33.5 106.5q0 9 2 29q7 59 45 100t94.5 61.5t120.5 20.5q55 0 105.5 -15t88.5 -44q28 -22 28 -52q0 -23 -17 -40.5t-40 -17.5q-19 0 -35 12q-27 17 -66.5 28t-77.5 11q-46 0 -78.5 -18t-40.5 -56
q-1 -5 -1 -14q0 -29 21 -48.5t52.5 -31t86.5 -26.5q77 -21 125 -41.5t82.5 -61.5t34.5 -107q0 -76 -39 -126t-102.5 -73.5t-137.5 -23.5q-68 0 -131 19t-103 52q-26 21 -26 56q0 24 12 42q24 24 48 24q20 0 41 -17q32 -22 82 -37t96 -15q53 0 88.5 23t41.5 73
q-3 29 -24.5 48z" />
    <glyph glyph-name="T" unicode="T" horiz-adv-x="648" 
d="M258 567h-175q-31 0 -48 19t-17 45t17 45t48 19h473q32 0 49.5 -19t17.5 -45t-17.5 -45t-49.5 -19h-166v-505q0 -31 -19.5 -48.5t-47.5 -17.5q-26 0 -45.5 17.5t-19.5 48.5v505z" />
    <glyph glyph-name="U" unicode="U" horiz-adv-x="741" 
d="M541 626q0 32 20 50.5t47 18.5q26 0 45 -18t19 -51v-362q0 -89 -42.5 -153t-111.5 -96t-147 -32t-147.5 32t-112 96t-42.5 153v362q0 32 20 50.5t47 18.5q26 0 45 -18t19 -51v-362q0 -48 25 -82.5t65 -52t84 -17.5t82 17t61.5 51.5t23.5 83.5v362z" />
    <glyph glyph-name="V" unicode="V" horiz-adv-x="713" 
d="M401.5 6.5q-17.5 -14.5 -37.5 -14.5t-37.5 13t-30.5 40l-264 553q-8 18 -8 32q0 28 22 48t50 20q38 0 59 -39l89 -201l115 -264l113 264l89 201q10 19 26 28.5t34 9.5q27 0 47.5 -18t20.5 -46q0 -14 -6 -29l-255 -559q-9 -24 -26.5 -38.5z" />
    <glyph glyph-name="W" unicode="W" horiz-adv-x="1064" 
d="M769 239l149 412q9 22 25 33.5t36 11.5q26 0 45.5 -17.5t19.5 -44.5q0 -12 -5 -27l-198 -537q-13 -42 -28 -58t-41 -16q-24 0 -36.5 12.5t-30.5 45.5l-174 395l-166 -389q-15 -34 -30.5 -50t-40.5 -16t-40.5 16.5t-28.5 51.5l-194 545q-5 15 -5 26q0 29 20 46t47 17
q20 0 37 -11.5t24 -33.5l148 -412l177 412q9 22 24.5 34.5t32.5 12.5t32 -11t24 -33z" />
    <glyph glyph-name="X" unicode="X" horiz-adv-x="645" 
d="M500 670q19 25 46 25q26 0 46.5 -20.5t20.5 -46.5q0 -24 -17 -42q-105 -124 -183 -227l204 -254q15 -19 15 -42q0 -26 -20 -44t-47 -18q-34 0 -57 31l-184 236l-181 -241q-20 -29 -52 -29q-27 0 -49 20t-22 46q0 21 16 40l201 255l-15 19q-17 21 -71 88.5t-99 119.5
q-18 21 -18 45q0 26 21.5 45.5t47.5 19.5q30 0 49 -28l174 -216z" />
    <glyph glyph-name="Y" unicode="Y" horiz-adv-x="637" 
d="M16 630q0 25 21.5 45t47.5 20q34 0 55 -32l175 -261l177 261q22 30 56 30q27 0 48.5 -18.5t21.5 -42.5q0 -19 -14 -36l-226 -327v-207q0 -31 -19 -48t-46 -17t-47 17.5t-20 48.5v206l-218 327q-12 17 -12 34z" />
    <glyph glyph-name="Z" unicode="Z" horiz-adv-x="610" 
d="M84 0q-31 0 -50 18t-19 43q0 23 17 43l356 473h-295q-30 0 -46.5 17.5t-16.5 42.5t17 44t46 19h403q34 0 54 -18t20 -45q0 -34 -30 -67l-341 -443h325q29 0 46 -19t17 -45t-18 -44.5t-53 -18.5h-432z" />
    <glyph glyph-name="backslash" unicode="\" horiz-adv-x="494" 
d="M477 56q0 -25 -19.5 -43t-44.5 -18q-32 0 -49 30l-342 579q-9 14 -9 33q0 25 18.5 42.5t43.5 17.5q15 0 29 -8t23 -25l342 -579q8 -13 8 -29z" />
    <glyph glyph-name="underscore" unicode="_" horiz-adv-x="590" 
d="M113 -119q-30 0 -46.5 18t-16.5 42q0 25 16.5 43t46.5 18h371q28 0 43.5 -17.5t15.5 -41.5q0 -25 -16 -43.5t-43 -18.5h-371z" />
    <glyph glyph-name="grave" unicode="`" horiz-adv-x="313" 
d="M264 574q0 -22 -17 -39t-41 -17q-16 0 -32 10l-107 71q-23 16 -23 44q0 24 18 42t42 18q18 0 37 -13l96 -71q27 -18 27 -45z" />
    <glyph glyph-name="a" unicode="a" 
d="M80 -2q-16 0 -24 2q-18 10 -29 26.5t-11 36.5q0 17 8 33l287 561q10 20 27 30.5t36 10.5t35.5 -10.5t25.5 -30.5l282 -561q8 -15 8 -32q0 -28 -21.5 -47t-48.5 -19q-17 0 -31 9t-23 27l-44 88h-369l-43 -88q-17 -36 -65 -36zM373 501l-123 -247h236z" />
    <glyph glyph-name="b" unicode="b" horiz-adv-x="720" 
d="M86 17.5q-17 17.5 -17 44.5v568q0 27 17 44.5t44 17.5h281q63 0 109 -26t69.5 -69.5t23.5 -95.5q0 -78 -55 -126q58 -23 86 -66t28 -100q0 -59 -26 -106.5t-77.5 -75t-124.5 -27.5h-314q-27 0 -44 17.5zM461.5 548.5q-19.5 21.5 -50.5 21.5h-211v-149h211q33 0 51.5 20.5
t18.5 59.5q0 26 -19.5 47.5zM444 122q41 0 64 26.5t23 62.5t-23 62t-64 26h-244v-177h244z" />
    <glyph glyph-name="c" unicode="c" horiz-adv-x="704" 
d="M201 41q-79 48 -117.5 129t-38.5 181q0 99 40.5 180.5t120 130t190.5 48.5q66 0 120.5 -21t108.5 -68q10 -10 16 -23t6 -27q0 -28 -19 -47q-20 -17 -44 -17q-28 0 -48 20q-29 31 -62 43t-78 12q-74 0 -125.5 -31.5t-77 -84t-25.5 -115.5q0 -64 25.5 -118.5t77 -87
t125.5 -32.5q84 0 156 64q17 13 39 13q16 0 30.5 -7t22.5 -18q14 -19 14 -41q0 -28 -25 -53q-48 -45 -106.5 -61.5t-130.5 -16.5q-116 0 -195 48z" />
    <glyph glyph-name="d" unicode="d" horiz-adv-x="755" 
d="M90.5 15.5q-20.5 15.5 -20.5 46.5v568q0 26 21.5 44t47.5 18h229q109 0 186 -49t115.5 -128t38.5 -169t-38 -169t-113 -128t-180 -49h-238q-28 0 -48.5 15.5zM202 122h166q65 0 112 32.5t71 84.5t24 111q0 57 -23.5 107.5t-70.5 81.5t-113 31h-166v-448z" />
    <glyph glyph-name="e" unicode="e" horiz-adv-x="615" 
d="M87 18q-18 18 -18 44v568q0 27 18 44.5t44 17.5h359q33 0 50.5 -19t17.5 -45q0 -27 -18 -46.5t-50 -19.5h-288v-150h252q32 0 49.5 -19.5t17.5 -45.5q0 -27 -17.5 -46.5t-49.5 -19.5h-252v-150h305q33 0 52 -20t19 -47q0 -26 -18.5 -45t-52.5 -19h-376q-26 0 -44 18z" />
    <glyph glyph-name="f" unicode="f" horiz-adv-x="602" 
d="M200 562v-159h255q27 0 49.5 -22.5t22.5 -48.5q0 -24 -22 -42t-50 -18h-255v-210q0 -26 -17 -44t-43 -18q-32 0 -51.5 17.5t-19.5 44.5v568q0 27 19 44.5t52 17.5h351q32 0 51 -17t19 -45q0 -26 -19.5 -47t-50.5 -21h-291z" />
    <glyph glyph-name="g" unicode="g" horiz-adv-x="760" 
d="M660 77q-52 -43 -114.5 -63.5t-131.5 -20.5q-107 0 -187.5 40.5t-126 121t-45.5 196.5q0 100 48 182t132 129.5t188 47.5q63 0 123 -22t105 -66q21 -20 21 -46t-20.5 -46t-46.5 -20q-22 0 -41 16q-29 28 -66 45.5t-75 17.5q-61 0 -116 -30.5t-88.5 -85t-33.5 -122.5
q0 -72 29.5 -126t81.5 -83t118 -29q44 0 82.5 12t67.5 33v123h-150q-30 0 -46.5 17.5t-16.5 41.5q0 25 17 44t46 19h200q28 0 49.5 -18t21.5 -41v-213q0 -26 -25 -54z" />
    <glyph glyph-name="h" unicode="h" horiz-adv-x="728" 
d="M90 17.5q-19 17.5 -19 44.5v568q0 28 19 45t52 17q26 0 43.5 -17.5t17.5 -44.5v-218h326v218q0 26 20 44t48 18q26 0 44 -17.5t18 -44.5v-568q0 -26 -18 -44t-44 -18q-27 0 -47.5 18t-20.5 44v219h-326v-219q0 -26 -17.5 -44t-43.5 -18q-33 0 -52 17.5z" />
    <glyph glyph-name="i" unicode="i" horiz-adv-x="287" 
d="M77 632q0 29 20 46t47 17t46 -16.5t19 -46.5v-571q0 -30 -19.5 -46.5t-47.5 -16.5q-26 0 -45.5 16.5t-19.5 46.5v571z" />
    <glyph glyph-name="j" unicode="j" horiz-adv-x="594" 
d="M386 632q0 30 19.5 46.5t46.5 16.5t46.5 -16.5t19.5 -46.5v-395q0 -121 -61 -186.5t-187 -65.5q-68 0 -121 23t-97 80q-14 17 -14 38q0 27 20.5 48t46.5 21t44 -22q27 -34 57.5 -48t64.5 -14q52 0 83 27t32 99v395z" />
    <glyph glyph-name="k" unicode="k" horiz-adv-x="671" 
d="M297 306l-95 -105v-140q0 -30 -19.5 -46.5t-46.5 -16.5t-46.5 16.5t-19.5 46.5v571q0 30 20 47.5t47 17.5t46 -17t19 -48v-254l289 298q23 22 48 22t47 -22q21 -19 21 -44q0 -24 -21 -45q-34 -41 -110 -117q-83 -86 -82 -85l234 -283q16 -22 16 -43q0 -27 -22.5 -45
t-50.5 -18q-34 0 -51 27z" />
    <glyph glyph-name="l" unicode="l" horiz-adv-x="571" 
d="M70 632q0 25 18.5 43t44.5 18q24 0 41.5 -18t17.5 -43v-501h272q35 0 54.5 -19.5t19.5 -46.5t-19.5 -46t-54.5 -19h-331q-27 0 -45 17t-18 44v571z" />
    <glyph glyph-name="m" unicode="m" horiz-adv-x="825" 
d="M203 439v-370q0 -31 -21.5 -50t-50.5 -19q-25 0 -42.5 18.5t-17.5 50.5v563q0 24 11 39.5t25 22.5t24 7q20 0 33.5 -9t29.5 -27l220 -297l228 308q18 22 49 22q26 0 45.5 -17.5t19.5 -48.5v-563q0 -32 -17.5 -50.5t-42.5 -18.5q-28 0 -46 18.5t-18 50.5v370l-166 -210
q-27 -33 -58 -33t-56 33z" />
    <glyph glyph-name="n" unicode="n" horiz-adv-x="736" 
d="M71 622q0 33 12.5 52t47.5 19q25 0 36.5 -6.5t34.5 -28.5l331 -414v388q0 25 19 47t44 22q27 0 49 -22t22 -47v-563q0 -53 -53 -69q-26 0 -42.5 7t-38.5 28l-331 420v-386q0 -32 -17.5 -50.5t-45.5 -18.5t-48 18.5t-20 50.5v553z" />
    <glyph glyph-name="o" unicode="o" horiz-adv-x="832" 
d="M728.5 155.5q-51.5 -81.5 -133.5 -123.5t-173 -42q-96 -4 -182.5 36.5t-140.5 123.5t-54 200t54 200t140.5 125t182.5 42q92 -5 174 -48t133 -124.5t51 -194.5t-51.5 -194.5zM614.5 479q-34.5 54 -89 81t-114.5 27q-58 0 -112 -27t-88 -81t-34 -129t34 -128.5t88 -81
t112 -27.5q60 0 114.5 27.5t89 81t34.5 128.5t-34.5 129z" />
    <glyph glyph-name="p" unicode="p" horiz-adv-x="653" 
d="M90 679.5q19 21.5 49 21.5h231q67 0 123 -29.5t90 -87t34 -137.5q0 -76 -34 -132t-90.5 -85t-122.5 -29h-167v-132q0 -32 -18 -50.5t-46 -18.5q-27 0 -47.5 19t-20.5 50v563q0 26 19 47.5zM203 326h167q33 0 60.5 17t43.5 45t16 59q0 53 -35 90.5t-85 37.5h-167v-249z
" />
    <glyph glyph-name="q" unicode="q" horiz-adv-x="833" 
d="M770 216.5q-17 -54.5 -52 -102.5l16 -19q24 -21 24 -50q0 -26 -19.5 -45.5t-44.5 -19.5q-26 0 -47 20l-34 27q-39 -27 -86 -40t-108 -13q-92 0 -179 42t-142.5 125t-55.5 200t55.5 201t142.5 127t179 43q96 0 180.5 -42.5t136 -126.5t51.5 -202q0 -70 -17 -124.5z
M658 341q0 76 -35 130t-90 82t-114 28q-64 0 -119.5 -27.5t-90 -82t-34.5 -130.5q0 -60 32 -114.5t88 -88t124 -33.5q24 0 47.5 4.5t58.5 13.5l-114 105q-17 20 -17 44q0 29 20.5 50t48.5 21q24 0 46 -19l113 -113q36 50 36 130z" />
    <glyph glyph-name="r" unicode="r" horiz-adv-x="676" 
d="M182.5 16q-20.5 -18 -47.5 -18t-46 17t-19 48v568q0 26 17.5 43.5t42.5 17.5h266q70 0 121.5 -32t78 -84t26.5 -110q0 -65 -33.5 -119t-98.5 -80l133 -162q14 -21 14 -43q0 -27 -19.5 -45.5t-46.5 -18.5q-35 0 -60 32l-151 216h-157v-181q0 -31 -20.5 -49zM396 361
q47 0 74 32t27 75q0 42 -26.5 72.5t-74.5 30.5h-193v-210h193z" />
    <glyph glyph-name="s" unicode="s" horiz-adv-x="631" 
d="M431.5 247q-21.5 19 -53 30.5t-85.5 26.5q-75 21 -122.5 41.5t-81 61t-33.5 106.5q0 9 2 29q7 59 45 100t94.5 61.5t120.5 20.5q55 0 105.5 -15t88.5 -44q28 -22 28 -52q0 -23 -17 -40.5t-40 -17.5q-19 0 -35 12q-27 17 -66.5 28t-77.5 11q-46 0 -78.5 -18t-40.5 -56
q-1 -5 -1 -14q0 -29 21 -48.5t52.5 -31t86.5 -26.5q77 -21 125 -41.5t82.5 -61.5t34.5 -107q0 -76 -39 -126t-102.5 -73.5t-137.5 -23.5q-68 0 -131 19t-103 52q-26 21 -26 56q0 24 12 42q24 24 48 24q20 0 41 -17q32 -22 82 -37t96 -15q53 0 88.5 23t41.5 73
q-3 29 -24.5 48z" />
    <glyph glyph-name="t" unicode="t" horiz-adv-x="648" 
d="M258 567h-175q-31 0 -48 19t-17 45t17 45t48 19h473q32 0 49.5 -19t17.5 -45t-17.5 -45t-49.5 -19h-166v-505q0 -31 -19.5 -48.5t-47.5 -17.5q-26 0 -45.5 17.5t-19.5 48.5v505z" />
    <glyph glyph-name="u" unicode="u" horiz-adv-x="741" 
d="M541 626q0 32 20 50.5t47 18.5q26 0 45 -18t19 -51v-362q0 -89 -42.5 -153t-111.5 -96t-147 -32t-147.5 32t-112 96t-42.5 153v362q0 32 20 50.5t47 18.5q26 0 45 -18t19 -51v-362q0 -48 25 -82.5t65 -52t84 -17.5t82 17t61.5 51.5t23.5 83.5v362z" />
    <glyph glyph-name="v" unicode="v" horiz-adv-x="713" 
d="M401.5 6.5q-17.5 -14.5 -37.5 -14.5t-37.5 13t-30.5 40l-264 553q-8 18 -8 32q0 28 22 48t50 20q38 0 59 -39l89 -201l115 -264l113 264l89 201q10 19 26 28.5t34 9.5q27 0 47.5 -18t20.5 -46q0 -14 -6 -29l-255 -559q-9 -24 -26.5 -38.5z" />
    <glyph glyph-name="w" unicode="w" horiz-adv-x="1064" 
d="M769 239l149 412q9 22 25 33.5t36 11.5q26 0 45.5 -17.5t19.5 -44.5q0 -12 -5 -27l-198 -537q-13 -42 -28 -58t-41 -16q-24 0 -36.5 12.5t-30.5 45.5l-174 395l-166 -389q-15 -34 -30.5 -50t-40.5 -16t-40.5 16.5t-28.5 51.5l-194 545q-5 15 -5 26q0 29 20 46t47 17
q20 0 37 -11.5t24 -33.5l148 -412l177 412q9 22 24.5 34.5t32.5 12.5t32 -11t24 -33z" />
    <glyph glyph-name="x" unicode="x" horiz-adv-x="645" 
d="M500 670q19 25 46 25q26 0 46.5 -20.5t20.5 -46.5q0 -24 -17 -42q-105 -124 -183 -227l204 -254q15 -19 15 -42q0 -26 -20 -44t-47 -18q-34 0 -57 31l-184 236l-181 -241q-20 -29 -52 -29q-27 0 -49 20t-22 46q0 21 16 40l201 255l-15 19q-17 21 -71 88.5t-99 119.5
q-18 21 -18 45q0 26 21.5 45.5t47.5 19.5q30 0 49 -28l174 -216z" />
    <glyph glyph-name="y" unicode="y" horiz-adv-x="646" 
d="M14 635q0 25 22 44.5t49 19.5q34 0 55 -30l184 -274l187 274q22 30 56 30q27 0 47.5 -18t20.5 -42q0 -20 -14 -37l-234 -333v-206q4 -30 -15.5 -47.5t-47.5 -17.5t-48.5 17.5t-20.5 47.5v206l-227 329q-14 17 -14 37z" />
    <glyph glyph-name="z" unicode="z" horiz-adv-x="610" 
d="M84 0q-31 0 -50 18t-19 43q0 23 17 43l356 473h-295q-30 0 -46.5 17.5t-16.5 42.5t17 44t46 19h403q34 0 54 -18t20 -45q0 -34 -30 -67l-341 -443h325q29 0 46 -19t17 -45t-18 -44.5t-53 -18.5h-432z" />
    <glyph glyph-name="exclamdown" unicode="&#xa1;" horiz-adv-x="292" 
d="M201.5 390q-22.5 -17 -54.5 -17q-31 0 -53.5 17t-22.5 47v19q0 35 23 54.5t54 19.5t53.5 -19.5t22.5 -54.5v-19q0 -30 -22.5 -47zM197.5 -169.5q-19.5 -18.5 -47.5 -18.5t-49.5 19t-21.5 52v352q0 29 21.5 45.5t50.5 16.5q27 0 46.5 -16t19.5 -46v-352q0 -34 -19.5 -52.5
z" />
    <glyph glyph-name="sterling" unicode="&#xa3;" horiz-adv-x="647" 
d="M270 274v-141h289q34 0 53 -19.5t19 -47.5q0 -26 -19 -45.5t-53 -19.5h-446q-35 0 -54.5 19.5t-19.5 46.5t19.5 46.5t54.5 19.5h24v141h-33q-33 0 -51.5 18t-18.5 43t18.5 43.5t51.5 18.5h33q0 135 53.5 217t191.5 82q61 0 109.5 -25.5t77.5 -72.5q11 -18 11 -37
q0 -25 -19 -43t-44 -18q-30 0 -53 27q-17 19 -26 26.5t-24 12.5t-40 5q-65 0 -84.5 -46.5t-19.5 -127.5h191q28 0 45.5 -18t17.5 -45q0 -26 -17.5 -43t-45.5 -17h-191z" />
    <glyph glyph-name="dieresis" unicode="&#xa8;" horiz-adv-x="470" 
d="M61.5 686q21.5 18 51.5 18q29 0 50.5 -18t21.5 -50v-19q0 -32 -22 -50.5t-52 -18.5q-29 0 -50 18t-21 51v19q0 32 21.5 50zM306.5 686q21.5 18 51.5 18q29 0 50.5 -18t21.5 -50v-19q0 -32 -22 -50.5t-52 -18.5q-29 0 -50 18t-21 51v19q0 32 21.5 50z" />
    <glyph glyph-name="macron" unicode="&#xaf;" horiz-adv-x="424" 
d="M102 597q-25 0 -39.5 15.5t-14.5 36.5q0 22 14 37.5t40 15.5h203q24 0 37.5 -15.5t13.5 -36.5t-14 -37t-37 -16h-203z" />
    <glyph glyph-name="acute" unicode="&#xb4;" horiz-adv-x="314" 
d="M170 690q19 13 37 13q24 0 42 -18.5t18 -42.5q0 -26 -23 -43l-107 -71q-16 -10 -33 -10q-24 0 -40.5 17t-16.5 39q0 28 27 45z" />
    <glyph glyph-name="periodcentered" unicode="&#xb7;" horiz-adv-x="232" 
d="M41 344q0 32 21.5 50t51.5 18q29 0 50.5 -18t21.5 -50v-19q0 -32 -22 -50.5t-52 -18.5q-29 0 -50 18t-21 51v19z" />
    <glyph glyph-name="questiondown" unicode="&#xbf;" horiz-adv-x="491" 
d="M279.5 415q-19.5 -16 -45.5 -16q-27 0 -46.5 16t-19.5 44v17q0 28 19.5 44t46.5 16q26 0 45.5 -16t19.5 -44v-17q0 -28 -19.5 -44zM410 -116q-23 -23 -63 -39.5t-100 -16.5q-65 0 -114 28t-75 75t-26 102q0 62 36 117t104 82v52q0 29 19.5 45.5t45.5 16.5q25 0 43.5 -16
t18.5 -46v-86q0 -47 -43 -63q-51 -18 -74 -40.5t-23 -64.5q0 -32 27 -55t61 -23t60 12.5t45 44.5q17 26 46 26q25 0 45.5 -19t20.5 -45q0 -15 -7 -28q-24 -36 -47 -59z" />
    <glyph glyph-name="Agrave" unicode="&#xc0;" 
d="M479 799q0 -22 -17 -39t-41 -17q-16 0 -32 10l-107 71q-23 16 -23 44q0 24 18 42t42 18q18 0 37 -13l96 -71q27 -18 27 -45zM80 -2q-16 0 -24 2q-18 10 -29 26.5t-11 36.5q0 17 8 33l287 561q10 20 27 30.5t36 10.5t35.5 -10.5t25.5 -30.5l282 -561q8 -15 8 -32
q0 -28 -21.5 -47t-48.5 -19q-17 0 -31 9t-23 27l-44 88h-369l-43 -88q-17 -36 -65 -36zM373 501l-123 -247h236z" />
    <glyph glyph-name="Aacute" unicode="&#xc1;" 
d="M433 921q24 0 42 -18.5t18 -42.5q0 -26 -23 -43l-107 -71q-16 -10 -33 -10q-24 0 -40.5 17t-16.5 39q0 28 27 45l96 71q19 13 37 13zM80 -2q-16 0 -24 2q-18 10 -29 26.5t-11 36.5q0 17 8 33l287 561q10 20 27 30.5t36 10.5t35.5 -10.5t25.5 -30.5l282 -561q8 -15 8 -32
q0 -28 -21.5 -47t-48.5 -19q-17 0 -31 9t-23 27l-44 88h-369l-43 -88q-17 -36 -65 -36zM373 501l-123 -247h236z" />
    <glyph glyph-name="Acircumflex" unicode="&#xc2;" 
d="M519 790q0 -20 -16 -36.5t-36 -16.5q-14 0 -27 10l-70 52l-70 -52q-13 -10 -28 -10q-20 0 -36.5 16.5t-16.5 37.5q0 20 18 35l104 78q16 11 30 11q16 0 28 -11l102 -78q18 -15 18 -36zM80 -2q-16 0 -24 2q-18 10 -29 26.5t-11 36.5q0 17 8 33l287 561q10 20 27 30.5
t36 10.5t35.5 -10.5t25.5 -30.5l282 -561q8 -15 8 -32q0 -28 -21.5 -47t-48.5 -19q-17 0 -31 9t-23 27l-44 88h-369l-43 -88q-17 -36 -65 -36zM373 501l-123 -247h236z" />
    <glyph glyph-name="Atilde" unicode="&#xc3;" 
d="M355 886q22 -9 37 -23q12 -13 27 -18q10 -6 16 -6l5 1q2 2 3.5 2.5t2.5 0.5l7 6l1.5 1.5t0.5 1.5q13 26 37 26q12 0 21 -9q22 -14 22 -41q0 -12 -7 -26q-1 -1 -2.5 -5t-4.5 -10q-3 -3 -9 -10t-12 -12q-12 -10 -25 -16q-16 -9 -40 -9q-27 0 -47 10q-33 19 -47 33
q-5 3 -8.5 5t-5.5 3l-8 3q-3 0 -9 -3q-3 0 -7 -4q-5 -2 -9.5 -6.5l-6.5 -6.5q-3 -4 -3 -5q-14 -19 -35 -19q-13 0 -25 9q-17 15 -17 40q0 18 8 30q0 1 3 4t6 9q4 4 10.5 11.5t13.5 13.5q18 14 25 17q19 10 46 10q20 0 36 -8zM80 -2q-16 0 -24 2q-18 10 -29 26.5t-11 36.5
q0 17 8 33l287 561q10 20 27 30.5t36 10.5t35.5 -10.5t25.5 -30.5l282 -561q8 -15 8 -32q0 -28 -21.5 -47t-48.5 -19q-17 0 -31 9t-23 27l-44 88h-369l-43 -88q-17 -36 -65 -36zM373 501l-123 -247h236z" />
    <glyph glyph-name="Adieresis" unicode="&#xc4;" 
d="M204.5 878q21.5 18 51.5 18q29 0 50.5 -18t21.5 -50v-19q0 -32 -22 -50.5t-52 -18.5q-29 0 -50 18t-21 51v19q0 32 21.5 50zM449.5 878q21.5 18 51.5 18q29 0 50.5 -18t21.5 -50v-19q0 -32 -22 -50.5t-52 -18.5q-29 0 -50 18t-21 51v19q0 32 21.5 50zM80 -2q-16 0 -24 2
q-18 10 -29 26.5t-11 36.5q0 17 8 33l287 561q10 20 27 30.5t36 10.5t35.5 -10.5t25.5 -30.5l282 -561q8 -15 8 -32q0 -28 -21.5 -47t-48.5 -19q-17 0 -31 9t-23 27l-44 88h-369l-43 -88q-17 -36 -65 -36zM373 501l-123 -247h236z" />
    <glyph glyph-name="Aring" unicode="&#xc5;" 
d="M80 -2q-16 0 -24 2q-18 10 -29 26.5t-11 36.5q0 17 8 33l279 545q-30 15 -47.5 41t-17.5 63q0 60 40 94t94 34t94 -34t40 -94q0 -37 -17.5 -63t-46.5 -40l275 -546q8 -15 8 -32q0 -28 -21.5 -47t-48.5 -19q-17 0 -31 9t-23 27l-44 88h-369l-43 -88q-17 -36 -65 -36z
M403 775q-12 11 -29 11q-16 0 -28.5 -11t-12.5 -30q0 -16 12.5 -24.5t28.5 -8.5q17 0 29 8.5t12 24.5q0 19 -12 30zM373 501l-123 -247h236z" />
    <glyph glyph-name="AE" unicode="&#xc6;" horiz-adv-x="1003" 
d="M625 411h237q26 0 42 -19.5t16 -45.5q0 -25 -15 -42t-43 -17h-237v-161h290q31 0 48.5 -18.5t17.5 -44.5q0 -25 -17.5 -44t-48.5 -19h-352q-28 0 -49.5 17t-21.5 43v71h-280l-62 -107q-12 -16 -29 -24.5t-35 -8.5q-19 0 -33 9q-17 8 -25.5 23.5t-8.5 34.5q0 20 9 38
l313 507q22 34 37 51.5t37.5 28t57.5 10.5h421q33 0 51 -18.5t18 -43.5q0 -26 -18.5 -46t-50.5 -21h-269v-153zM492 569h-17q-43 -69 -91 -152q-41 -69 -93 -155h201v307z" />
    <glyph glyph-name="Ccedilla" unicode="&#xc7;" horiz-adv-x="704" 
d="M585.5 44.5q-31.5 -16.5 -74.5 -33.5q-32 -13 -47 -20.5t-22 -18.5q-16 -16 -25 -44t-10 -61q-2 -29 -17.5 -43.5t-37.5 -14.5q-27 0 -48.5 18t-21.5 45q0 4 2 14q2 29 13 57t29 47q-93 17 -157.5 68t-96.5 126t-32 165q0 100 41 182t121.5 130.5t195.5 48.5
q142 0 235 -98q18 -22 18 -47t-18.5 -43.5t-43.5 -18.5q-23 0 -41 17q-33 33 -69 48t-81 15q-71 0 -122 -32.5t-77.5 -85.5t-26.5 -116t26 -115.5t77 -85t123 -36.5q40 0 82.5 19t75.5 51q19 15 40 15q27 0 46 -20.5t19 -47.5q0 -24 -18 -42q-26 -26 -57.5 -42.5z" />
    <glyph glyph-name="Egrave" unicode="&#xc8;" horiz-adv-x="615" 
d="M417 796q0 -22 -17 -39t-41 -17q-16 0 -32 10l-107 71q-23 16 -23 44q0 24 18 42t42 18q18 0 37 -13l96 -71q27 -18 27 -45zM559.5 19q18.5 19 18.5 45q0 27 -19 47t-52 20h-305v150h252q32 0 49.5 19.5t17.5 46.5q0 26 -17.5 45.5t-49.5 19.5h-252v150h288q32 0 50 19.5
t18 46.5q0 26 -17.5 45t-50.5 19h-359q-26 0 -44 -17.5t-18 -44.5v-568q0 -26 18 -44t44 -18h376q34 0 52.5 19z" />
    <glyph glyph-name="Eacute" unicode="&#xc9;" horiz-adv-x="615" 
d="M381 921q24 0 42 -18.5t18 -42.5q0 -26 -23 -43l-107 -71q-16 -10 -33 -10q-24 0 -40.5 17t-16.5 39q0 28 27 45l96 71q19 13 37 13zM87 18q-18 18 -18 44v568q0 27 18 44.5t44 17.5h359q33 0 50.5 -19t17.5 -45q0 -27 -18 -46.5t-50 -19.5h-288v-150h252
q32 0 49.5 -19.5t17.5 -45.5q0 -27 -17.5 -46.5t-49.5 -19.5h-252v-150h305q33 0 52 -20t19 -47q0 -26 -18.5 -45t-52.5 -19h-376q-26 0 -44 18z" />
    <glyph glyph-name="Ecircumflex" unicode="&#xca;" horiz-adv-x="615" 
d="M467 793q0 -20 -16 -36.5t-36 -16.5q-14 0 -27 10l-70 52l-70 -52q-13 -10 -28 -10q-20 0 -36.5 16.5t-16.5 37.5q0 20 18 35l104 78q16 11 30 11q16 0 28 -11l102 -78q18 -15 18 -36zM87 18q-18 18 -18 44v568q0 27 18 44.5t44 17.5h359q33 0 50.5 -19t17.5 -45
q0 -27 -18 -46.5t-50 -19.5h-288v-150h252q32 0 49.5 -19.5t17.5 -45.5q0 -27 -17.5 -46.5t-49.5 -19.5h-252v-150h305q33 0 52 -20t19 -47q0 -26 -18.5 -45t-52.5 -19h-376q-26 0 -44 18z" />
    <glyph glyph-name="Edieresis" unicode="&#xcb;" horiz-adv-x="615" 
d="M162.5 880q20.5 17 49.5 17q28 0 48.5 -17t20.5 -48v-18q0 -31 -21 -48.5t-50 -17.5q-28 0 -48 17t-20 49v18q0 31 20.5 48zM398.5 880q20.5 17 49.5 17t49.5 -17t20.5 -48v-18q0 -31 -21 -48.5t-50 -17.5t-49 17t-20 49v18q0 31 20.5 48zM87 18q-18 18 -18 44v568
q0 27 18 44.5t44 17.5h359q33 0 50.5 -19t17.5 -45q0 -27 -18 -46.5t-50 -19.5h-288v-150h252q32 0 49.5 -19.5t17.5 -45.5q0 -27 -17.5 -46.5t-49.5 -19.5h-252v-150h305q33 0 52 -20t19 -47q0 -26 -18.5 -45t-52.5 -19h-376q-26 0 -44 18z" />
    <glyph glyph-name="Igrave" unicode="&#xcc;" horiz-adv-x="287" 
d="M254 793q0 -22 -17 -39t-41 -17q-16 0 -32 10l-107 71q-23 16 -23 44q0 24 18 42t42 18q18 0 37 -13l96 -71q27 -18 27 -45zM96.5 14.5q19.5 -16.5 45.5 -16.5q28 0 47.5 16.5t19.5 46.5v571q0 30 -19 46.5t-46 16.5t-47 -17t-20 -46v-571q0 -30 19.5 -46.5z" />
    <glyph glyph-name="Iacute" unicode="&#xcd;" horiz-adv-x="287" 
d="M198 925q24 0 42 -18.5t18 -42.5q0 -26 -23 -43l-107 -71q-16 -10 -33 -10q-24 0 -40.5 17t-16.5 39q0 28 27 45l96 71q19 13 37 13zM97 678q20 17 47 17t46 -16.5t19 -46.5v-571q0 -30 -19.5 -46.5t-47.5 -16.5q-26 0 -45.5 16.5t-19.5 46.5v571q0 29 20 46z" />
    <glyph glyph-name="Icircumflex" unicode="&#xce;" horiz-adv-x="287" 
d="M294 795q0 -20 -16 -36.5t-36 -16.5q-14 0 -27 10l-70 52l-70 -52q-13 -10 -28 -10q-20 0 -36.5 16.5t-16.5 37.5q0 20 18 35l104 78q16 11 30 11q16 0 28 -11l102 -78q18 -15 18 -36zM97 678q20 17 47 17t46 -16.5t19 -46.5v-571q0 -30 -19.5 -46.5t-47.5 -16.5
q-26 0 -45.5 16.5t-19.5 46.5v571q0 29 20 46z" />
    <glyph glyph-name="Idieresis" unicode="&#xcf;" horiz-adv-x="287" 
d="M-29.5 886q21.5 18 51.5 18q29 0 50.5 -18t21.5 -50v-19q0 -32 -22 -50.5t-52 -18.5q-29 0 -50 18t-21 51v19q0 32 21.5 50zM215.5 886q21.5 18 51.5 18q29 0 50.5 -18t21.5 -50v-19q0 -32 -22 -50.5t-52 -18.5q-29 0 -50 18t-21 51v19q0 32 21.5 50zM97 678q20 17 47 17
t46 -16.5t19 -46.5v-571q0 -30 -19.5 -46.5t-47.5 -16.5q-26 0 -45.5 16.5t-19.5 46.5v571q0 29 20 46z" />
    <glyph glyph-name="Eth" unicode="&#xd0;" horiz-adv-x="788" 
d="M30.5 297.5q-17.5 17.5 -17.5 43.5q0 27 18 48.5t44 21.5h42v220q0 25 17.5 43.5t43.5 18.5h237q107 0 182 -48.5t113 -127t38 -168.5t-38.5 -170t-113.5 -129.5t-181 -49.5h-227q-35 0 -53 14t-18 46v220h-42q-27 0 -44.5 17.5zM347 411q25 0 42.5 -22t17.5 -48
t-17 -43.5t-43 -17.5h-97v-159h165q66 0 113 32.5t71 84.5t24 111q0 57 -23.5 107.5t-70.5 81.5t-114 31h-165v-158h97z" />
    <glyph glyph-name="Ntilde" unicode="&#xd1;" horiz-adv-x="736" 
d="M350 891q29 -14 40 -23q11 -14 28 -19q10 -6 17 -6l6 1q2 2 3.5 2.5t2.5 0.5l7 6l3 3q12 26 40 26q12 0 23 -8q11 -7 17 -18.5t6 -24.5q0 -16 -7 -27q-1 -1 -3 -5.5t-5 -9.5q-2 -2 -9 -10t-14 -13q-14 -12 -27 -17q-18 -9 -43 -9q-30 0 -50 10q-4 2 -20.5 12t-30.5 23
q-5 3 -8.5 5t-6.5 3t-5 2t-4 1q-3 0 -9 -3q-4 0 -8 -4q-5 -2 -10 -7l-7 -7q-3 -4 -3 -5q-17 -20 -38 -20q-16 0 -26 10q-19 15 -19 41q0 18 9 31l10 14q2 2 8.5 10.5t16.5 15.5q4 3 10.5 7t16.5 10q20 10 49 10q21 0 40 -8zM91 18.5q20 -18.5 48 -18.5t45.5 18.5t17.5 50.5
v386l331 -420q22 -21 38.5 -28t42.5 -7q53 16 53 69v563q0 25 -22 47t-49 22q-25 0 -44 -22t-19 -47v-388l-331 414q-23 22 -34.5 28.5t-36.5 6.5q-35 0 -47.5 -19t-12.5 -52v-553q0 -32 20 -50.5z" />
    <glyph glyph-name="Ograve" unicode="&#xd2;" horiz-adv-x="832" 
d="M524 822q0 -22 -17 -39t-41 -17q-16 0 -32 10l-107 71q-23 16 -23 44q0 24 18 42t42 18q18 0 37 -13l96 -71q27 -18 27 -45zM728.5 155.5q-51.5 -81.5 -133.5 -123.5t-173 -42q-96 -4 -182.5 36.5t-140.5 123.5t-54 200t54 200t140.5 125t182.5 42q92 -5 174 -48
t133 -124.5t51 -194.5t-51.5 -194.5zM614.5 479q-34.5 54 -89 81t-114.5 27q-58 0 -112 -27t-88 -81t-34 -129t34 -128.5t88 -81t112 -27.5q60 0 114.5 27.5t89 81t34.5 128.5t-34.5 129z" />
    <glyph glyph-name="Oacute" unicode="&#xd3;" horiz-adv-x="832" 
d="M466 950q24 0 42 -18.5t18 -42.5q0 -26 -23 -43l-107 -71q-16 -10 -33 -10q-24 0 -40.5 17t-16.5 39q0 28 27 45l96 71q19 13 37 13zM728.5 155.5q-51.5 -81.5 -133.5 -123.5t-173 -42q-96 -4 -182.5 36.5t-140.5 123.5t-54 200t54 200t140.5 125t182.5 42q92 -5 174 -48
t133 -124.5t51 -194.5t-51.5 -194.5zM614.5 479q-34.5 54 -89 81t-114.5 27q-58 0 -112 -27t-88 -81t-34 -129t34 -128.5t88 -81t112 -27.5q60 0 114.5 27.5t89 81t34.5 128.5t-34.5 129z" />
    <glyph glyph-name="Ocircumflex" unicode="&#xd4;" horiz-adv-x="832" 
d="M571 810q0 -20 -17 -36.5t-39 -16.5q-16 0 -29 10l-74 52l-75 -52q-13 -10 -29 -10q-22 0 -39.5 16.5t-17.5 37.5q0 20 19 35l111 78q16 11 32 11q18 0 30 -11l108 -78q20 -16 20 -36zM728.5 155.5q-51.5 -81.5 -133.5 -123.5t-173 -42q-96 -4 -182.5 36.5t-140.5 123.5
t-54 200t54 200t140.5 125t182.5 42q92 -5 174 -48t133 -124.5t51 -194.5t-51.5 -194.5zM614.5 479q-34.5 54 -89 81t-114.5 27q-58 0 -112 -27t-88 -81t-34 -129t34 -128.5t88 -81t112 -27.5q60 0 114.5 27.5t89 81t34.5 128.5t-34.5 129z" />
    <glyph glyph-name="Otilde" unicode="&#xd5;" horiz-adv-x="832" 
d="M400 908q25 -10 40 -22q12 -13 29 -18q10 -6 17 -6l6 1q2 2 3.5 2.5t2.5 0.5l7 6l3 3q13 25 40 25q12 0 23 -8q11 -7 17 -18t6 -23q0 -15 -7 -26q-1 -1 -3 -5.5t-5 -9.5q-2 -2 -9 -9.5t-14 -12.5q-11 -10 -27 -16q-18 -9 -43 -9q-30 0 -51 10q-34 18 -51 33q-5 3 -8.5 5
t-6.5 3t-5 2t-4 1q-3 0 -9 -3q-4 0 -8 -4q-5 -2 -10 -6.5t-7 -6.5q-3 -4 -3 -5q-16 -19 -38 -19q-15 0 -27 9q-19 15 -19 40q0 17 9 30q1 2 3.5 5t6.5 8q3 3 10 10.5t16 14.5q22 14 27 16q20 10 49 10q21 0 40 -8zM728.5 155.5q-51.5 -81.5 -133.5 -123.5t-173 -42
q-96 -4 -182.5 36.5t-140.5 123.5t-54 200t54 200t140.5 125t182.5 42q92 -5 174 -48t133 -124.5t51 -194.5t-51.5 -194.5zM614.5 479q-34.5 54 -89 81t-114.5 27q-58 0 -112 -27t-88 -81t-34 -129t34 -128.5t88 -81t112 -27.5q60 0 114.5 27.5t89 81t34.5 128.5t-34.5 129z
" />
    <glyph glyph-name="Odieresis" unicode="&#xd6;" horiz-adv-x="832" 
d="M242.5 899q21.5 18 51.5 18q29 0 50.5 -18t21.5 -50v-19q0 -32 -22 -50.5t-52 -18.5q-29 0 -50 18t-21 51v19q0 32 21.5 50zM487.5 899q21.5 18 51.5 18q29 0 50.5 -18t21.5 -50v-19q0 -32 -22 -50.5t-52 -18.5q-29 0 -50 18t-21 51v19q0 32 21.5 50zM728.5 155.5
q-51.5 -81.5 -133.5 -123.5t-173 -42q-96 -4 -182.5 36.5t-140.5 123.5t-54 200t54 200t140.5 125t182.5 42q92 -5 174 -48t133 -124.5t51 -194.5t-51.5 -194.5zM614.5 479q-34.5 54 -89 81t-114.5 27q-58 0 -112 -27t-88 -81t-34 -129t34 -128.5t88 -81t112 -27.5
q60 0 114.5 27.5t89 81t34.5 128.5t-34.5 129z" />
    <glyph glyph-name="Oslash" unicode="&#xd8;" horiz-adv-x="832" 
d="M733.5 157q-52.5 -82 -136 -123.5t-173.5 -41.5q-130 0 -216 60l-43 -42q-20 -20 -48 -20t-46 20q-20 20 -20 47t20 47l44 36q-35 47 -53 99t-18 115q0 115 55 196.5t142.5 123t182.5 41.5q119 0 198 -60l45 45q20 20 46 20q27 0 47 -20q10 -9 15 -21.5t5 -25.5
q0 -27 -20 -49l-44 -34q70 -95 70 -216q0 -115 -52.5 -197zM416 587q-59 0 -115 -26.5t-92 -79.5t-36 -127q0 -54 35 -120q74 79 232 239l88 89q-53 25 -112 25zM358.5 128q30.5 -7 57.5 -7q62 0 117.5 26.5t89.5 79.5t34 127q0 29 -9.5 57.5t-25.5 64.5l-319 -328
q25 -13 55.5 -20z" />
    <glyph glyph-name="Ugrave" unicode="&#xd9;" horiz-adv-x="741" 
d="M472 791q0 -22 -17 -39t-41 -17q-16 0 -32 10l-107 71q-23 16 -23 44q0 24 18 42t42 18q18 0 37 -13l96 -71q27 -18 27 -45zM517.5 180.5q-23.5 -34.5 -61.5 -51.5t-82 -17t-84 17.5t-65 52t-25 82.5v362q0 33 -19 51t-45 18q-27 0 -47 -18.5t-20 -50.5v-362
q0 -89 42.5 -153t112 -96t147.5 -32t147 32t111.5 96t42.5 153v362q0 33 -19 51t-45 18q-27 0 -47 -18.5t-20 -50.5v-362q0 -49 -23.5 -83.5z" />
    <glyph glyph-name="Uacute" unicode="&#xda;" horiz-adv-x="741" 
d="M440 919q24 0 42 -18.5t18 -42.5q0 -26 -23 -43l-107 -71q-16 -10 -33 -10q-24 0 -40.5 17t-16.5 39q0 28 27 45l96 71q19 13 37 13zM561 676.5q20 18.5 47 18.5q26 0 45 -18t19 -51v-362q0 -89 -42.5 -153t-111.5 -96t-147 -32t-147.5 32t-112 96t-42.5 153v362
q0 32 20 50.5t47 18.5q26 0 45 -18t19 -51v-362q0 -48 25 -82.5t65 -52t84 -17.5t82 17t61.5 51.5t23.5 83.5v362q0 32 20 50.5z" />
    <glyph glyph-name="Ucircumflex" unicode="&#xdb;" horiz-adv-x="741" 
d="M520 797q0 -20 -16 -36.5t-36 -16.5q-14 0 -27 10l-70 52l-70 -52q-13 -10 -28 -10q-20 0 -36.5 16.5t-16.5 37.5q0 20 18 35l104 78q16 11 30 11q16 0 28 -11l102 -78q18 -15 18 -36zM561 676.5q20 18.5 47 18.5q26 0 45 -18t19 -51v-362q0 -89 -42.5 -153t-111.5 -96
t-147 -32t-147.5 32t-112 96t-42.5 153v362q0 32 20 50.5t47 18.5q26 0 45 -18t19 -51v-362q0 -48 25 -82.5t65 -52t84 -17.5t82 17t61.5 51.5t23.5 83.5v362q0 32 20 50.5z" />
    <glyph glyph-name="Udieresis" unicode="&#xdc;" horiz-adv-x="741" 
d="M196.5 886q21.5 18 51.5 18q29 0 50.5 -18t21.5 -50v-19q0 -32 -22 -50.5t-52 -18.5q-29 0 -50 18t-21 51v19q0 32 21.5 50zM441.5 886q21.5 18 51.5 18q29 0 50.5 -18t21.5 -50v-19q0 -32 -22 -50.5t-52 -18.5q-29 0 -50 18t-21 51v19q0 32 21.5 50zM561 676.5
q20 18.5 47 18.5q26 0 45 -18t19 -51v-362q0 -89 -42.5 -153t-111.5 -96t-147 -32t-147.5 32t-112 96t-42.5 153v362q0 32 20 50.5t47 18.5q26 0 45 -18t19 -51v-362q0 -48 25 -82.5t65 -52t84 -17.5t82 17t61.5 51.5t23.5 83.5v362q0 32 20 50.5z" />
    <glyph glyph-name="Yacute" unicode="&#xdd;" horiz-adv-x="637" 
d="M391 919q24 0 42 -18.5t18 -42.5q0 -26 -23 -43l-107 -71q-16 -10 -33 -10q-24 0 -40.5 17t-16.5 39q0 28 27 45l96 71q19 13 37 13zM16 630q0 25 21.5 45t47.5 20q34 0 55 -32l175 -261l177 261q22 30 56 30q27 0 48.5 -18.5t21.5 -42.5q0 -19 -14 -36l-226 -327v-207
q0 -31 -19 -48t-46 -17t-47 17.5t-20 48.5v206l-218 327q-12 17 -12 34z" />
    <glyph glyph-name="Thorn" unicode="&#xde;" horiz-adv-x="653" 
d="M91.5 684q20.5 19 47.5 19q28 0 46 -18.5t18 -50.5v-33h167q67 0 123 -29.5t90 -87t34 -137.5q0 -76 -34 -132t-90.5 -85t-122.5 -29h-167v-32q0 -32 -18 -50.5t-46 -18.5q-27 0 -47.5 19t-20.5 50v565q0 31 20.5 50zM203 226h167q32 0 59 17t42.5 45t15.5 59
q0 55 -33.5 91.5t-83.5 36.5h-167v-249z" />
    <glyph glyph-name="agrave" unicode="&#xe0;" 
d="M479 799q0 -22 -17 -39t-41 -17q-16 0 -32 10l-107 71q-23 16 -23 44q0 24 18 42t42 18q18 0 37 -13l96 -71q27 -18 27 -45zM80 -2q-16 0 -24 2q-18 10 -29 26.5t-11 36.5q0 17 8 33l287 561q10 20 27 30.5t36 10.5t35.5 -10.5t25.5 -30.5l282 -561q8 -15 8 -32
q0 -28 -21.5 -47t-48.5 -19q-17 0 -31 9t-23 27l-44 88h-369l-43 -88q-17 -36 -65 -36zM373 501l-123 -247h236z" />
    <glyph glyph-name="aacute" unicode="&#xe1;" 
d="M433 921q24 0 42 -18.5t18 -42.5q0 -26 -23 -43l-107 -71q-16 -10 -33 -10q-24 0 -40.5 17t-16.5 39q0 28 27 45l96 71q19 13 37 13zM80 -2q-16 0 -24 2q-18 10 -29 26.5t-11 36.5q0 17 8 33l287 561q10 20 27 30.5t36 10.5t35.5 -10.5t25.5 -30.5l282 -561q8 -15 8 -32
q0 -28 -21.5 -47t-48.5 -19q-17 0 -31 9t-23 27l-44 88h-369l-43 -88q-17 -36 -65 -36zM373 501l-123 -247h236z" />
    <glyph glyph-name="acircumflex" unicode="&#xe2;" 
d="M519 790q0 -20 -16 -36.5t-36 -16.5q-14 0 -27 10l-70 52l-70 -52q-13 -10 -28 -10q-20 0 -36.5 16.5t-16.5 37.5q0 20 18 35l104 78q16 11 30 11q16 0 28 -11l102 -78q18 -15 18 -36zM80 -2q-16 0 -24 2q-18 10 -29 26.5t-11 36.5q0 17 8 33l287 561q10 20 27 30.5
t36 10.5t35.5 -10.5t25.5 -30.5l282 -561q8 -15 8 -32q0 -28 -21.5 -47t-48.5 -19q-17 0 -31 9t-23 27l-44 88h-369l-43 -88q-17 -36 -65 -36zM373 501l-123 -247h236z" />
    <glyph glyph-name="atilde" unicode="&#xe3;" 
d="M355 886q22 -9 37 -23q12 -13 27 -18q10 -6 16 -6l5 1q2 2 3.5 2.5t2.5 0.5l7 6l1.5 1.5t0.5 1.5q13 26 37 26q12 0 21 -9q22 -14 22 -41q0 -12 -7 -26q-1 -1 -2.5 -5t-4.5 -10q-3 -3 -9 -10t-12 -12q-12 -10 -25 -16q-16 -9 -40 -9q-27 0 -47 10q-33 19 -47 33
q-5 3 -8.5 5t-5.5 3l-8 3q-3 0 -9 -3q-3 0 -7 -4q-5 -2 -9.5 -6.5l-6.5 -6.5q-3 -4 -3 -5q-14 -19 -35 -19q-13 0 -25 9q-17 15 -17 40q0 18 8 30q0 1 3 4t6 9q4 4 10.5 11.5t13.5 13.5q18 14 25 17q19 10 46 10q20 0 36 -8zM80 -2q-16 0 -24 2q-18 10 -29 26.5t-11 36.5
q0 17 8 33l287 561q10 20 27 30.5t36 10.5t35.5 -10.5t25.5 -30.5l282 -561q8 -15 8 -32q0 -28 -21.5 -47t-48.5 -19q-17 0 -31 9t-23 27l-44 88h-369l-43 -88q-17 -36 -65 -36zM373 501l-123 -247h236z" />
    <glyph glyph-name="adieresis" unicode="&#xe4;" 
d="M204.5 878q21.5 18 51.5 18q29 0 50.5 -18t21.5 -50v-19q0 -32 -22 -50.5t-52 -18.5q-29 0 -50 18t-21 51v19q0 32 21.5 50zM449.5 878q21.5 18 51.5 18q29 0 50.5 -18t21.5 -50v-19q0 -32 -22 -50.5t-52 -18.5q-29 0 -50 18t-21 51v19q0 32 21.5 50zM80 -2q-16 0 -24 2
q-18 10 -29 26.5t-11 36.5q0 17 8 33l287 561q10 20 27 30.5t36 10.5t35.5 -10.5t25.5 -30.5l282 -561q8 -15 8 -32q0 -28 -21.5 -47t-48.5 -19q-17 0 -31 9t-23 27l-44 88h-369l-43 -88q-17 -36 -65 -36zM373 501l-123 -247h236z" />
    <glyph glyph-name="aring" unicode="&#xe5;" 
d="M80 -2q-16 0 -24 2q-18 10 -29 26.5t-11 36.5q0 17 8 33l279 545q-30 15 -47.5 41t-17.5 63q0 60 40 94t94 34t94 -34t40 -94q0 -37 -17.5 -63t-46.5 -40l275 -546q8 -15 8 -32q0 -28 -21.5 -47t-48.5 -19q-17 0 -31 9t-23 27l-44 88h-369l-43 -88q-17 -36 -65 -36z
M403 775q-12 11 -29 11q-16 0 -28.5 -11t-12.5 -30q0 -16 12.5 -24.5t28.5 -8.5q17 0 29 8.5t12 24.5q0 19 -12 30zM373 501l-123 -247h236z" />
    <glyph glyph-name="ae" unicode="&#xe6;" horiz-adv-x="1003" 
d="M625 411h237q26 0 42 -19.5t16 -45.5q0 -25 -15 -42t-43 -17h-237v-161h290q31 0 48.5 -18.5t17.5 -44.5q0 -25 -17.5 -44t-48.5 -19h-352q-28 0 -49.5 17t-21.5 43v71h-280l-62 -107q-12 -16 -29 -24.5t-35 -8.5q-19 0 -33 9q-17 8 -25.5 23.5t-8.5 34.5q0 20 9 38
l313 507q22 34 37 51.5t37.5 28t57.5 10.5h421q33 0 51 -18.5t18 -43.5q0 -26 -18.5 -46t-50.5 -21h-269v-153zM492 569h-17q-43 -69 -91 -152q-41 -69 -93 -155h201v307z" />
    <glyph glyph-name="ccedilla" unicode="&#xe7;" horiz-adv-x="704" 
d="M585.5 44.5q-31.5 -16.5 -74.5 -33.5q-32 -13 -47 -20.5t-22 -18.5q-16 -16 -25 -44t-10 -61q-2 -29 -17.5 -43.5t-37.5 -14.5q-27 0 -48.5 18t-21.5 45q0 4 2 14q2 29 13 57t29 47q-93 17 -157.5 68t-96.5 126t-32 165q0 100 41 182t121.5 130.5t195.5 48.5
q142 0 235 -98q18 -22 18 -47t-18.5 -43.5t-43.5 -18.5q-23 0 -41 17q-33 33 -69 48t-81 15q-71 0 -122 -32.5t-77.5 -85.5t-26.5 -116t26 -115.5t77 -85t123 -36.5q40 0 82.5 19t75.5 51q19 15 40 15q27 0 46 -20.5t19 -47.5q0 -24 -18 -42q-26 -26 -57.5 -42.5z" />
    <glyph glyph-name="egrave" unicode="&#xe8;" horiz-adv-x="615" 
d="M417 796q0 -22 -17 -39t-41 -17q-16 0 -32 10l-107 71q-23 16 -23 44q0 24 18 42t42 18q18 0 37 -13l96 -71q27 -18 27 -45zM559.5 19q18.5 19 18.5 45q0 27 -19 47t-52 20h-305v150h252q32 0 49.5 19.5t17.5 46.5q0 26 -17.5 45.5t-49.5 19.5h-252v150h288q32 0 50 19.5
t18 46.5q0 26 -17.5 45t-50.5 19h-359q-26 0 -44 -17.5t-18 -44.5v-568q0 -26 18 -44t44 -18h376q34 0 52.5 19z" />
    <glyph glyph-name="eacute" unicode="&#xe9;" horiz-adv-x="615" 
d="M381 921q24 0 42 -18.5t18 -42.5q0 -26 -23 -43l-107 -71q-16 -10 -33 -10q-24 0 -40.5 17t-16.5 39q0 28 27 45l96 71q19 13 37 13zM87 18q-18 18 -18 44v568q0 27 18 44.5t44 17.5h359q33 0 50.5 -19t17.5 -45q0 -27 -18 -46.5t-50 -19.5h-288v-150h252
q32 0 49.5 -19.5t17.5 -45.5q0 -27 -17.5 -46.5t-49.5 -19.5h-252v-150h305q33 0 52 -20t19 -47q0 -26 -18.5 -45t-52.5 -19h-376q-26 0 -44 18z" />
    <glyph glyph-name="ecircumflex" unicode="&#xea;" horiz-adv-x="615" 
d="M467 793q0 -20 -16 -36.5t-36 -16.5q-14 0 -27 10l-70 52l-70 -52q-13 -10 -28 -10q-20 0 -36.5 16.5t-16.5 37.5q0 20 18 35l104 78q16 11 30 11q16 0 28 -11l102 -78q18 -15 18 -36zM87 18q-18 18 -18 44v568q0 27 18 44.5t44 17.5h359q33 0 50.5 -19t17.5 -45
q0 -27 -18 -46.5t-50 -19.5h-288v-150h252q32 0 49.5 -19.5t17.5 -45.5q0 -27 -17.5 -46.5t-49.5 -19.5h-252v-150h305q33 0 52 -20t19 -47q0 -26 -18.5 -45t-52.5 -19h-376q-26 0 -44 18z" />
    <glyph glyph-name="edieresis" unicode="&#xeb;" horiz-adv-x="615" 
d="M162.5 880q20.5 17 49.5 17q28 0 48.5 -17t20.5 -48v-18q0 -31 -21 -48.5t-50 -17.5q-28 0 -48 17t-20 49v18q0 31 20.5 48zM398.5 880q20.5 17 49.5 17t49.5 -17t20.5 -48v-18q0 -31 -21 -48.5t-50 -17.5t-49 17t-20 49v18q0 31 20.5 48zM87 18q-18 18 -18 44v568
q0 27 18 44.5t44 17.5h359q33 0 50.5 -19t17.5 -45q0 -27 -18 -46.5t-50 -19.5h-288v-150h252q32 0 49.5 -19.5t17.5 -45.5q0 -27 -17.5 -46.5t-49.5 -19.5h-252v-150h305q33 0 52 -20t19 -47q0 -26 -18.5 -45t-52.5 -19h-376q-26 0 -44 18z" />
    <glyph glyph-name="igrave" unicode="&#xec;" horiz-adv-x="287" 
d="M254 793q0 -22 -17 -39t-41 -17q-16 0 -32 10l-107 71q-23 16 -23 44q0 24 18 42t42 18q18 0 37 -13l96 -71q27 -18 27 -45zM96.5 14.5q19.5 -16.5 45.5 -16.5q28 0 47.5 16.5t19.5 46.5v571q0 30 -19 46.5t-46 16.5t-47 -17t-20 -46v-571q0 -30 19.5 -46.5z" />
    <glyph glyph-name="iacute" unicode="&#xed;" horiz-adv-x="287" 
d="M198 925q24 0 42 -18.5t18 -42.5q0 -26 -23 -43l-107 -71q-16 -10 -33 -10q-24 0 -40.5 17t-16.5 39q0 28 27 45l96 71q19 13 37 13zM97 678q20 17 47 17t46 -16.5t19 -46.5v-571q0 -30 -19.5 -46.5t-47.5 -16.5q-26 0 -45.5 16.5t-19.5 46.5v571q0 29 20 46z" />
    <glyph glyph-name="icircumflex" unicode="&#xee;" horiz-adv-x="287" 
d="M294 795q0 -20 -16 -36.5t-36 -16.5q-14 0 -27 10l-70 52l-70 -52q-13 -10 -28 -10q-20 0 -36.5 16.5t-16.5 37.5q0 20 18 35l104 78q16 11 30 11q16 0 28 -11l102 -78q18 -15 18 -36zM97 678q20 17 47 17t46 -16.5t19 -46.5v-571q0 -30 -19.5 -46.5t-47.5 -16.5
q-26 0 -45.5 16.5t-19.5 46.5v571q0 29 20 46z" />
    <glyph glyph-name="idieresis" unicode="&#xef;" horiz-adv-x="287" 
d="M-29.5 886q21.5 18 51.5 18q29 0 50.5 -18t21.5 -50v-19q0 -32 -22 -50.5t-52 -18.5q-29 0 -50 18t-21 51v19q0 32 21.5 50zM215.5 886q21.5 18 51.5 18q29 0 50.5 -18t21.5 -50v-19q0 -32 -22 -50.5t-52 -18.5q-29 0 -50 18t-21 51v19q0 32 21.5 50zM97 678q20 17 47 17
t46 -16.5t19 -46.5v-571q0 -30 -19.5 -46.5t-47.5 -16.5q-26 0 -45.5 16.5t-19.5 46.5v571q0 29 20 46z" />
    <glyph glyph-name="eth" unicode="&#xf0;" horiz-adv-x="788" 
d="M30.5 297.5q-17.5 17.5 -17.5 43.5q0 27 18 48.5t44 21.5h42v220q0 25 17.5 43.5t43.5 18.5h237q107 0 182 -48.5t113 -127t38 -168.5t-38.5 -170t-113.5 -129.5t-181 -49.5h-227q-35 0 -53 14t-18 46v220h-42q-27 0 -44.5 17.5zM347 411q25 0 42.5 -22t17.5 -48
t-17 -43.5t-43 -17.5h-97v-159h165q66 0 113 32.5t71 84.5t24 111q0 57 -23.5 107.5t-70.5 81.5t-114 31h-165v-158h97z" />
    <glyph glyph-name="ntilde" unicode="&#xf1;" horiz-adv-x="736" 
d="M350 891q29 -14 40 -23q11 -14 28 -19q10 -6 17 -6l6 1q2 2 3.5 2.5t2.5 0.5l7 6l3 3q12 26 40 26q12 0 23 -8q11 -7 17 -18.5t6 -24.5q0 -16 -7 -27q-1 -1 -3 -5.5t-5 -9.5q-2 -2 -9 -10t-14 -13q-14 -12 -27 -17q-18 -9 -43 -9q-30 0 -50 10q-4 2 -20.5 12t-30.5 23
q-5 3 -8.5 5t-6.5 3t-5 2t-4 1q-3 0 -9 -3q-4 0 -8 -4q-5 -2 -10 -7l-7 -7q-3 -4 -3 -5q-17 -20 -38 -20q-16 0 -26 10q-19 15 -19 41q0 18 9 31l10 14q2 2 8.5 10.5t16.5 15.5q4 3 10.5 7t16.5 10q20 10 49 10q21 0 40 -8zM91 18.5q20 -18.5 48 -18.5t45.5 18.5t17.5 50.5
v386l331 -420q22 -21 38.5 -28t42.5 -7q53 16 53 69v563q0 25 -22 47t-49 22q-25 0 -44 -22t-19 -47v-388l-331 414q-23 22 -34.5 28.5t-36.5 6.5q-35 0 -47.5 -19t-12.5 -52v-553q0 -32 20 -50.5z" />
    <glyph glyph-name="ograve" unicode="&#xf2;" horiz-adv-x="832" 
d="M524 822q0 -22 -17 -39t-41 -17q-16 0 -32 10l-107 71q-23 16 -23 44q0 24 18 42t42 18q18 0 37 -13l96 -71q27 -18 27 -45zM728.5 155.5q-51.5 -81.5 -133.5 -123.5t-173 -42q-96 -4 -182.5 36.5t-140.5 123.5t-54 200t54 200t140.5 125t182.5 42q92 -5 174 -48
t133 -124.5t51 -194.5t-51.5 -194.5zM614.5 479q-34.5 54 -89 81t-114.5 27q-58 0 -112 -27t-88 -81t-34 -129t34 -128.5t88 -81t112 -27.5q60 0 114.5 27.5t89 81t34.5 128.5t-34.5 129z" />
    <glyph glyph-name="oacute" unicode="&#xf3;" horiz-adv-x="832" 
d="M466 950q24 0 42 -18.5t18 -42.5q0 -26 -23 -43l-107 -71q-16 -10 -33 -10q-24 0 -40.5 17t-16.5 39q0 28 27 45l96 71q19 13 37 13zM728.5 155.5q-51.5 -81.5 -133.5 -123.5t-173 -42q-96 -4 -182.5 36.5t-140.5 123.5t-54 200t54 200t140.5 125t182.5 42q92 -5 174 -48
t133 -124.5t51 -194.5t-51.5 -194.5zM614.5 479q-34.5 54 -89 81t-114.5 27q-58 0 -112 -27t-88 -81t-34 -129t34 -128.5t88 -81t112 -27.5q60 0 114.5 27.5t89 81t34.5 128.5t-34.5 129z" />
    <glyph glyph-name="ocircumflex" unicode="&#xf4;" horiz-adv-x="832" 
d="M571 810q0 -20 -17 -36.5t-39 -16.5q-16 0 -29 10l-74 52l-75 -52q-13 -10 -29 -10q-22 0 -39.5 16.5t-17.5 37.5q0 20 19 35l111 78q16 11 32 11q18 0 30 -11l108 -78q20 -16 20 -36zM728.5 155.5q-51.5 -81.5 -133.5 -123.5t-173 -42q-96 -4 -182.5 36.5t-140.5 123.5
t-54 200t54 200t140.5 125t182.5 42q92 -5 174 -48t133 -124.5t51 -194.5t-51.5 -194.5zM614.5 479q-34.5 54 -89 81t-114.5 27q-58 0 -112 -27t-88 -81t-34 -129t34 -128.5t88 -81t112 -27.5q60 0 114.5 27.5t89 81t34.5 128.5t-34.5 129z" />
    <glyph glyph-name="otilde" unicode="&#xf5;" horiz-adv-x="832" 
d="M400 908q25 -10 40 -22q12 -13 29 -18q10 -6 17 -6l6 1q2 2 3.5 2.5t2.5 0.5l7 6l3 3q13 25 40 25q12 0 23 -8q11 -7 17 -18t6 -23q0 -15 -7 -26q-1 -1 -3 -5.5t-5 -9.5q-2 -2 -9 -9.5t-14 -12.5q-11 -10 -27 -16q-18 -9 -43 -9q-30 0 -51 10q-34 18 -51 33q-5 3 -8.5 5
t-6.5 3t-5 2t-4 1q-3 0 -9 -3q-4 0 -8 -4q-5 -2 -10 -6.5t-7 -6.5q-3 -4 -3 -5q-16 -19 -38 -19q-15 0 -27 9q-19 15 -19 40q0 17 9 30q1 2 3.5 5t6.5 8q3 3 10 10.5t16 14.5q22 14 27 16q20 10 49 10q21 0 40 -8zM728.5 155.5q-51.5 -81.5 -133.5 -123.5t-173 -42
q-96 -4 -182.5 36.5t-140.5 123.5t-54 200t54 200t140.5 125t182.5 42q92 -5 174 -48t133 -124.5t51 -194.5t-51.5 -194.5zM614.5 479q-34.5 54 -89 81t-114.5 27q-58 0 -112 -27t-88 -81t-34 -129t34 -128.5t88 -81t112 -27.5q60 0 114.5 27.5t89 81t34.5 128.5t-34.5 129z
" />
    <glyph glyph-name="odieresis" unicode="&#xf6;" horiz-adv-x="832" 
d="M242.5 899q21.5 18 51.5 18q29 0 50.5 -18t21.5 -50v-19q0 -32 -22 -50.5t-52 -18.5q-29 0 -50 18t-21 51v19q0 32 21.5 50zM487.5 899q21.5 18 51.5 18q29 0 50.5 -18t21.5 -50v-19q0 -32 -22 -50.5t-52 -18.5q-29 0 -50 18t-21 51v19q0 32 21.5 50zM728.5 155.5
q-51.5 -81.5 -133.5 -123.5t-173 -42q-96 -4 -182.5 36.5t-140.5 123.5t-54 200t54 200t140.5 125t182.5 42q92 -5 174 -48t133 -124.5t51 -194.5t-51.5 -194.5zM614.5 479q-34.5 54 -89 81t-114.5 27q-58 0 -112 -27t-88 -81t-34 -129t34 -128.5t88 -81t112 -27.5
q60 0 114.5 27.5t89 81t34.5 128.5t-34.5 129z" />
    <glyph glyph-name="oslash" unicode="&#xf8;" horiz-adv-x="832" 
d="M733.5 157q-52.5 -82 -136 -123.5t-173.5 -41.5q-130 0 -216 60l-43 -42q-20 -20 -48 -20t-46 20q-20 20 -20 47t20 47l44 36q-35 47 -53 99t-18 115q0 115 55 196.5t142.5 123t182.5 41.5q119 0 198 -60l45 45q20 20 46 20q27 0 47 -20q10 -9 15 -21.5t5 -25.5
q0 -27 -20 -49l-44 -34q70 -95 70 -216q0 -115 -52.5 -197zM416 587q-59 0 -115 -26.5t-92 -79.5t-36 -127q0 -54 35 -120q74 79 232 239l88 89q-53 25 -112 25zM358.5 128q30.5 -7 57.5 -7q62 0 117.5 26.5t89.5 79.5t34 127q0 29 -9.5 57.5t-25.5 64.5l-319 -328
q25 -13 55.5 -20z" />
    <glyph glyph-name="ugrave" unicode="&#xf9;" horiz-adv-x="741" 
d="M472 791q0 -22 -17 -39t-41 -17q-16 0 -32 10l-107 71q-23 16 -23 44q0 24 18 42t42 18q18 0 37 -13l96 -71q27 -18 27 -45zM517.5 180.5q-23.5 -34.5 -61.5 -51.5t-82 -17t-84 17.5t-65 52t-25 82.5v362q0 33 -19 51t-45 18q-27 0 -47 -18.5t-20 -50.5v-362
q0 -89 42.5 -153t112 -96t147.5 -32t147 32t111.5 96t42.5 153v362q0 33 -19 51t-45 18q-27 0 -47 -18.5t-20 -50.5v-362q0 -49 -23.5 -83.5z" />
    <glyph glyph-name="uacute" unicode="&#xfa;" horiz-adv-x="741" 
d="M440 919q24 0 42 -18.5t18 -42.5q0 -26 -23 -43l-107 -71q-16 -10 -33 -10q-24 0 -40.5 17t-16.5 39q0 28 27 45l96 71q19 13 37 13zM561 676.5q20 18.5 47 18.5q26 0 45 -18t19 -51v-362q0 -89 -42.5 -153t-111.5 -96t-147 -32t-147.5 32t-112 96t-42.5 153v362
q0 32 20 50.5t47 18.5q26 0 45 -18t19 -51v-362q0 -48 25 -82.5t65 -52t84 -17.5t82 17t61.5 51.5t23.5 83.5v362q0 32 20 50.5z" />
    <glyph glyph-name="ucircumflex" unicode="&#xfb;" horiz-adv-x="741" 
d="M520 797q0 -20 -16 -36.5t-36 -16.5q-14 0 -27 10l-70 52l-70 -52q-13 -10 -28 -10q-20 0 -36.5 16.5t-16.5 37.5q0 20 18 35l104 78q16 11 30 11q16 0 28 -11l102 -78q18 -15 18 -36zM561 676.5q20 18.5 47 18.5q26 0 45 -18t19 -51v-362q0 -89 -42.5 -153t-111.5 -96
t-147 -32t-147.5 32t-112 96t-42.5 153v362q0 32 20 50.5t47 18.5q26 0 45 -18t19 -51v-362q0 -48 25 -82.5t65 -52t84 -17.5t82 17t61.5 51.5t23.5 83.5v362q0 32 20 50.5z" />
    <glyph glyph-name="udieresis" unicode="&#xfc;" horiz-adv-x="741" 
d="M196.5 886q21.5 18 51.5 18q29 0 50.5 -18t21.5 -50v-19q0 -32 -22 -50.5t-52 -18.5q-29 0 -50 18t-21 51v19q0 32 21.5 50zM441.5 886q21.5 18 51.5 18q29 0 50.5 -18t21.5 -50v-19q0 -32 -22 -50.5t-52 -18.5q-29 0 -50 18t-21 51v19q0 32 21.5 50zM561 676.5
q20 18.5 47 18.5q26 0 45 -18t19 -51v-362q0 -89 -42.5 -153t-111.5 -96t-147 -32t-147.5 32t-112 96t-42.5 153v362q0 32 20 50.5t47 18.5q26 0 45 -18t19 -51v-362q0 -48 25 -82.5t65 -52t84 -17.5t82 17t61.5 51.5t23.5 83.5v362q0 32 20 50.5z" />
    <glyph glyph-name="yacute" unicode="&#xfd;" horiz-adv-x="637" 
d="M391 919q24 0 42 -18.5t18 -42.5q0 -26 -23 -43l-107 -71q-16 -10 -33 -10q-24 0 -40.5 17t-16.5 39q0 28 27 45l96 71q19 13 37 13zM16 630q0 25 21.5 45t47.5 20q34 0 55 -32l175 -261l177 261q22 30 56 30q27 0 48.5 -18.5t21.5 -42.5q0 -19 -14 -36l-226 -327v-207
q0 -31 -19 -48t-46 -17t-47 17.5t-20 48.5v206l-218 327q-12 17 -12 34z" />
    <glyph glyph-name="thorn" unicode="&#xfe;" horiz-adv-x="653" 
d="M91.5 684q20.5 19 47.5 19q28 0 46 -18.5t18 -50.5v-33h167q67 0 123 -29.5t90 -87t34 -137.5q0 -76 -34 -132t-90.5 -85t-122.5 -29h-167v-32q0 -32 -18 -50.5t-46 -18.5q-27 0 -47.5 19t-20.5 50v565q0 31 20.5 50zM203 226h167q32 0 59 17t42.5 45t15.5 59
q0 55 -33.5 91.5t-83.5 36.5h-167v-249z" />
    <glyph glyph-name="ydieresis" unicode="&#xff;" horiz-adv-x="646" 
d="M149.5 872q21.5 18 51.5 18q29 0 50.5 -18t21.5 -50v-19q0 -32 -22 -50.5t-52 -18.5q-29 0 -50 18t-21 51v19q0 32 21.5 50zM394.5 872q21.5 18 51.5 18q29 0 50.5 -18t21.5 -50v-19q0 -32 -22 -50.5t-52 -18.5q-29 0 -50 18t-21 51v19q0 32 21.5 50zM14 635
q0 25 22 44.5t49 19.5q34 0 55 -30l184 -274l187 274q22 30 56 30q27 0 47.5 -18t20.5 -42q0 -20 -14 -37l-234 -333v-206q4 -30 -15.5 -47.5t-47.5 -17.5t-48.5 17.5t-20.5 47.5v206l-227 329q-14 17 -14 37z" />
    <glyph glyph-name="Aogonek" unicode="&#x104;" 
d="M111 6q-16 -10 -34 -10q-26 0 -46 17t-20 42q0 18 9 32l281 570q26 38 64 38q18 0 34.5 -10t26.5 -28l279 -570q15 -23 15 -41q0 -13 -7 -23.5t-20 -23.5q-12 -12 -19.5 -21.5t-12.5 -22.5q-3 -10 -5 -27t-4 -26q-4 -26 -21 -39.5t-39 -13.5q-25 0 -43.5 16t-18.5 43
q0 7 1 11q0 33 16.5 64.5t43.5 51.5l-44 86h-367l-44 -86q-9 -19 -25 -29zM363 490l-114 -236h229z" />
    <glyph glyph-name="aogonek" unicode="&#x105;" 
d="M111 6q-16 -10 -34 -10q-26 0 -46 17t-20 42q0 18 9 32l281 570q26 38 64 38q18 0 34.5 -10t26.5 -28l279 -570q15 -23 15 -41q0 -13 -7 -23.5t-20 -23.5q-12 -12 -19.5 -21.5t-12.5 -22.5q-3 -10 -5 -27t-4 -26q-4 -26 -21 -39.5t-39 -13.5q-25 0 -43.5 16t-18.5 43
q0 7 1 11q0 33 16.5 64.5t43.5 51.5l-44 86h-367l-44 -86q-9 -19 -25 -29zM363 490l-114 -236h229z" />
    <glyph glyph-name="Cacute" unicode="&#x106;" horiz-adv-x="704" 
d="M443 945q24 0 42 -18.5t18 -42.5q0 -26 -23 -43l-107 -71q-16 -10 -33 -10q-24 0 -40.5 17t-16.5 39q0 28 27 45l96 71q19 13 37 13zM201 41q-79 48 -117.5 129t-38.5 181q0 99 40.5 180.5t120 130t190.5 48.5q66 0 120.5 -21t108.5 -68q10 -10 16 -23t6 -27
q0 -28 -19 -47q-20 -17 -44 -17q-28 0 -48 20q-29 31 -62 43t-78 12q-74 0 -125.5 -31.5t-77 -84t-25.5 -115.5q0 -64 25.5 -118.5t77 -87t125.5 -32.5q84 0 156 64q17 13 39 13q16 0 30.5 -7t22.5 -18q14 -19 14 -41q0 -28 -25 -53q-48 -45 -106.5 -61.5t-130.5 -16.5
q-116 0 -195 48z" />
    <glyph glyph-name="cacute" unicode="&#x107;" horiz-adv-x="704" 
d="M443 945q24 0 42 -18.5t18 -42.5q0 -26 -23 -43l-107 -71q-16 -10 -33 -10q-24 0 -40.5 17t-16.5 39q0 28 27 45l96 71q19 13 37 13zM201 41q-79 48 -117.5 129t-38.5 181q0 99 40.5 180.5t120 130t190.5 48.5q66 0 120.5 -21t108.5 -68q10 -10 16 -23t6 -27
q0 -28 -19 -47q-20 -17 -44 -17q-28 0 -48 20q-29 31 -62 43t-78 12q-74 0 -125.5 -31.5t-77 -84t-25.5 -115.5q0 -64 25.5 -118.5t77 -87t125.5 -32.5q84 0 156 64q17 13 39 13q16 0 30.5 -7t22.5 -18q14 -19 14 -41q0 -28 -25 -53q-48 -45 -106.5 -61.5t-130.5 -16.5
q-116 0 -195 48z" />
    <glyph glyph-name="Eogonek" unicode="&#x118;" horiz-adv-x="617" 
d="M357.5 -165.5q-15.5 22.5 -15.5 51.5q11 56 53 114h-254q-33 0 -52 16.5t-19 43.5v571q0 24 22 43t49 19h359q26 0 43 -18.5t17 -43.5q0 -28 -17.5 -49.5t-42.5 -21.5h-299v-149h254q31 0 48.5 -19.5t17.5 -45.5q0 -27 -17.5 -46.5t-48.5 -19.5h-254v-159h315
q27 0 44.5 -17t17.5 -44q0 -17 -5 -27t-15.5 -18t-22.5 -15q-17 -15 -27 -28q-15 -17 -27 -53q-5 -11 -6.5 -22.5t-1.5 -29.5q-8 -27 -26 -44t-44 -17q-30 6 -45.5 28.5z" />
    <glyph glyph-name="eogonek" unicode="&#x119;" horiz-adv-x="617" 
d="M357.5 -165.5q-15.5 22.5 -15.5 51.5q11 56 53 114h-254q-33 0 -52 16.5t-19 43.5v571q0 24 22 43t49 19h359q26 0 43 -18.5t17 -43.5q0 -28 -17.5 -49.5t-42.5 -21.5h-299v-149h254q31 0 48.5 -19.5t17.5 -45.5q0 -27 -17.5 -46.5t-48.5 -19.5h-254v-159h315
q27 0 44.5 -17t17.5 -44q0 -17 -5 -27t-15.5 -18t-22.5 -15q-17 -15 -27 -28q-15 -17 -27 -53q-5 -11 -6.5 -22.5t-1.5 -29.5q-8 -27 -26 -44t-44 -17q-30 6 -45.5 28.5z" />
    <glyph glyph-name="Lslash" unicode="&#x141;" horiz-adv-x="593" 
d="M100 367v264q0 30 20.5 47.5t47.5 17.5q25 0 43 -16.5t18 -48.5v-200l68 36q18 9 35 9q25 0 41.5 -18t16.5 -42q0 -37 -36 -59l-125 -68v-160h274q33 0 51.5 -19.5t18.5 -46.5q0 -26 -18 -44.5t-52 -18.5h-350q-26 0 -39.5 16t-13.5 44v157q-17 -9 -33 -9q-27 0 -46 20
t-19 46q0 31 29 48z" />
    <glyph glyph-name="lslash" unicode="&#x142;" horiz-adv-x="599" 
d="M100 367v264q0 30 20.5 47.5t47.5 17.5q25 0 43 -16.5t18 -48.5v-200l68 36q18 9 35 9q25 0 41.5 -18t16.5 -42q0 -37 -36 -59l-125 -68v-160h274q33 0 51.5 -19.5t18.5 -46.5q0 -26 -18 -44.5t-52 -18.5h-350q-26 0 -39.5 16t-13.5 44v157q-17 -9 -33 -9q-27 0 -46 20
t-19 46q0 31 29 48z" />
    <glyph glyph-name="Nacute" unicode="&#x143;" horiz-adv-x="736" 
d="M434 907q24 0 42 -18.5t18 -42.5q0 -26 -23 -43l-107 -71q-16 -10 -33 -10q-24 0 -40.5 17t-16.5 39q0 28 27 45l96 71q19 13 37 13zM83.5 674q12.5 19 47.5 19q25 0 36.5 -6.5t34.5 -28.5l331 -414v388q0 25 19 47t44 22q27 0 49 -22t22 -47v-563q0 -53 -53 -69
q-26 0 -42.5 7t-38.5 28l-331 420v-386q0 -32 -17.5 -50.5t-45.5 -18.5t-48 18.5t-20 50.5v553q0 33 12.5 52z" />
    <glyph glyph-name="nacute" unicode="&#x144;" horiz-adv-x="736" 
d="M434 907q24 0 42 -18.5t18 -42.5q0 -26 -23 -43l-107 -71q-16 -10 -33 -10q-24 0 -40.5 17t-16.5 39q0 28 27 45l96 71q19 13 37 13zM83.5 674q12.5 19 47.5 19q25 0 36.5 -6.5t34.5 -28.5l331 -414v388q0 25 19 47t44 22q27 0 49 -22t22 -47v-563q0 -53 -53 -69
q-26 0 -42.5 7t-38.5 28l-331 420v-386q0 -32 -17.5 -50.5t-45.5 -18.5t-48 18.5t-20 50.5v553q0 33 12.5 52z" />
    <glyph glyph-name="OE" unicode="&#x152;" horiz-adv-x="961" 
d="M86 526.5q47 78.5 127.5 122.5t177.5 44h447q28 0 44.5 -19.5t16.5 -45.5q0 -25 -15.5 -42t-45.5 -17h-273v-158h237q27 0 48.5 -22t21.5 -48t-21 -43.5t-49 -17.5h-237v-159h281q27 0 43.5 -17t16.5 -44t-16.5 -43.5t-43.5 -16.5h-455q-100 0 -180.5 45.5t-126 125
t-45.5 178.5t47 177.5zM391 569q-61 0 -111.5 -29.5t-80 -80t-29.5 -110.5q0 -61 29.5 -110.5t80 -78.5t111.5 -29h51v438h-51z" />
    <glyph glyph-name="oe" unicode="&#x153;" horiz-adv-x="961" 
d="M86 526.5q47 78.5 127.5 122.5t177.5 44h447q28 0 44.5 -19.5t16.5 -45.5q0 -25 -15.5 -42t-45.5 -17h-273v-158h237q27 0 48.5 -22t21.5 -48t-21 -43.5t-49 -17.5h-237v-159h281q27 0 43.5 -17t16.5 -44t-16.5 -43.5t-43.5 -16.5h-455q-100 0 -180.5 45.5t-126 125
t-45.5 178.5t47 177.5zM391 569q-61 0 -111.5 -29.5t-80 -80t-29.5 -110.5q0 -61 29.5 -110.5t80 -78.5t111.5 -29h51v438h-51z" />
    <glyph glyph-name="Sacute" unicode="&#x15a;" horiz-adv-x="631" 
d="M388 939q24 0 42 -17.5t18 -40.5q0 -24 -23 -41l-106 -67q-16 -10 -33 -10q-23 0 -40 16t-17 37q0 26 27 43l95 68q17 12 37 12zM431.5 247q-21.5 19 -53 30.5t-85.5 26.5q-75 21 -122.5 41.5t-81 61t-33.5 106.5q0 9 2 29q7 59 45 100t94.5 61.5t120.5 20.5
q55 0 105.5 -15t88.5 -44q28 -22 28 -52q0 -23 -17 -40.5t-40 -17.5q-19 0 -35 12q-27 17 -66.5 28t-77.5 11q-46 0 -78.5 -18t-40.5 -56q-1 -5 -1 -14q0 -29 21 -48.5t52.5 -31t86.5 -26.5q77 -21 125 -41.5t82.5 -61.5t34.5 -107q0 -76 -39 -126t-102.5 -73.5
t-137.5 -23.5q-68 0 -131 19t-103 52q-26 21 -26 56q0 24 12 42q24 24 48 24q20 0 41 -17q32 -22 82 -37t96 -15q53 0 88.5 23t41.5 73q-3 29 -24.5 48z" />
    <glyph glyph-name="sacute" unicode="&#x15b;" horiz-adv-x="631" 
d="M388 939q24 0 42 -17.5t18 -40.5q0 -24 -23 -41l-106 -67q-16 -10 -33 -10q-23 0 -40 16t-17 37q0 26 27 43l95 68q17 12 37 12zM431.5 247q-21.5 19 -53 30.5t-85.5 26.5q-75 21 -122.5 41.5t-81 61t-33.5 106.5q0 9 2 29q7 59 45 100t94.5 61.5t120.5 20.5
q55 0 105.5 -15t88.5 -44q28 -22 28 -52q0 -23 -17 -40.5t-40 -17.5q-19 0 -35 12q-27 17 -66.5 28t-77.5 11q-46 0 -78.5 -18t-40.5 -56q-1 -5 -1 -14q0 -29 21 -48.5t52.5 -31t86.5 -26.5q77 -21 125 -41.5t82.5 -61.5t34.5 -107q0 -76 -39 -126t-102.5 -73.5
t-137.5 -23.5q-68 0 -131 19t-103 52q-26 21 -26 56q0 24 12 42q24 24 48 24q20 0 41 -17q32 -22 82 -37t96 -15q53 0 88.5 23t41.5 73q-3 29 -24.5 48z" />
    <glyph glyph-name="Scaron" unicode="&#x160;" horiz-adv-x="631" 
d="M154 897q0 20 17 36t39 16q16 0 30 -10l76 -51l76 51q14 10 30 10q22 0 40 -16.5t18 -36.5t-19 -35l-113 -77q-17 -11 -33 -11q-17 0 -31 11l-111 77q-19 15 -19 36zM431.5 247q-21.5 19 -53 30.5t-85.5 26.5q-75 21 -122.5 41.5t-81 61t-33.5 106.5q0 9 2 29
q7 59 45 100t94.5 61.5t120.5 20.5q55 0 105.5 -15t88.5 -44q28 -22 28 -52q0 -23 -17 -40.5t-40 -17.5q-19 0 -35 12q-27 17 -66.5 28t-77.5 11q-46 0 -78.5 -18t-40.5 -56q-1 -5 -1 -14q0 -29 21 -48.5t52.5 -31t86.5 -26.5q77 -21 125 -41.5t82.5 -61.5t34.5 -107
q0 -76 -39 -126t-102.5 -73.5t-137.5 -23.5q-68 0 -131 19t-103 52q-26 21 -26 56q0 24 12 42q24 24 48 24q20 0 41 -17q32 -22 82 -37t96 -15q53 0 88.5 23t41.5 73q-3 29 -24.5 48z" />
    <glyph glyph-name="scaron" unicode="&#x161;" horiz-adv-x="631" 
d="M154 897q0 20 17 36t39 16q16 0 30 -10l76 -51l76 51q14 10 30 10q22 0 40 -16.5t18 -36.5t-19 -35l-113 -77q-17 -11 -33 -11q-17 0 -31 11l-111 77q-19 15 -19 36zM431.5 247q-21.5 19 -53 30.5t-85.5 26.5q-75 21 -122.5 41.5t-81 61t-33.5 106.5q0 9 2 29
q7 59 45 100t94.5 61.5t120.5 20.5q55 0 105.5 -15t88.5 -44q28 -22 28 -52q0 -23 -17 -40.5t-40 -17.5q-19 0 -35 12q-27 17 -66.5 28t-77.5 11q-46 0 -78.5 -18t-40.5 -56q-1 -5 -1 -14q0 -29 21 -48.5t52.5 -31t86.5 -26.5q77 -21 125 -41.5t82.5 -61.5t34.5 -107
q0 -76 -39 -126t-102.5 -73.5t-137.5 -23.5q-68 0 -131 19t-103 52q-26 21 -26 56q0 24 12 42q24 24 48 24q20 0 41 -17q32 -22 82 -37t96 -15q53 0 88.5 23t41.5 73q-3 29 -24.5 48z" />
    <glyph glyph-name="Ydieresis" unicode="&#x178;" horiz-adv-x="637" 
d="M144.5 871q21.5 18 51.5 18q29 0 50.5 -18t21.5 -50v-19q0 -32 -22 -50.5t-52 -18.5q-29 0 -50 18t-21 51v19q0 32 21.5 50zM389.5 871q21.5 18 51.5 18q29 0 50.5 -18t21.5 -50v-19q0 -32 -22 -50.5t-52 -18.5q-29 0 -50 18t-21 51v19q0 32 21.5 50zM16 630
q0 25 21.5 45t47.5 20q34 0 55 -32l175 -261l177 261q22 30 56 30q27 0 48.5 -18.5t21.5 -42.5q0 -19 -14 -36l-226 -327v-207q0 -31 -19 -48t-46 -17t-47 17.5t-20 48.5v206l-218 327q-12 17 -12 34z" />
    <glyph glyph-name="Zacute" unicode="&#x179;" horiz-adv-x="610" 
d="M382 936q24 0 42 -18.5t18 -42.5q0 -26 -23 -43l-107 -71q-16 -10 -33 -10q-24 0 -40.5 17t-16.5 39q0 28 27 45l96 71q19 13 37 13zM34 18q-19 18 -19 43q0 23 17 43l356 473h-295q-30 0 -46.5 17.5t-16.5 42.5t17 44t46 19h403q34 0 54 -18t20 -45q0 -34 -30 -67
l-341 -443h325q29 0 46 -19t17 -45t-18 -44.5t-53 -18.5h-432q-31 0 -50 18z" />
    <glyph glyph-name="zacute" unicode="&#x17a;" horiz-adv-x="610" 
d="M382 936q24 0 42 -18.5t18 -42.5q0 -26 -23 -43l-107 -71q-16 -10 -33 -10q-24 0 -40.5 17t-16.5 39q0 28 27 45l96 71q19 13 37 13zM34 18q-19 18 -19 43q0 23 17 43l356 473h-295q-30 0 -46.5 17.5t-16.5 42.5t17 44t46 19h403q34 0 54 -18t20 -45q0 -34 -30 -67
l-341 -443h325q29 0 46 -19t17 -45t-18 -44.5t-53 -18.5h-432q-31 0 -50 18z" />
    <glyph glyph-name="Zdotaccent" unicode="&#x17b;" horiz-adv-x="610" 
d="M253.5 896q21.5 18 51.5 18q29 0 50.5 -18t21.5 -50v-19q0 -32 -22 -50.5t-52 -18.5q-29 0 -50 18t-21 51v19q0 32 21.5 50zM34 18q-19 18 -19 43q0 23 17 43l356 473h-295q-30 0 -46.5 17.5t-16.5 42.5t17 44t46 19h403q34 0 54 -18t20 -45q0 -34 -30 -67l-341 -443h325
q29 0 46 -19t17 -45t-18 -44.5t-53 -18.5h-432q-31 0 -50 18z" />
    <glyph glyph-name="zdotaccent" unicode="&#x17c;" horiz-adv-x="610" 
d="M253.5 896q21.5 18 51.5 18q29 0 50.5 -18t21.5 -50v-19q0 -32 -22 -50.5t-52 -18.5q-29 0 -50 18t-21 51v19q0 32 21.5 50zM34 18q-19 18 -19 43q0 23 17 43l356 473h-295q-30 0 -46.5 17.5t-16.5 42.5t17 44t46 19h403q34 0 54 -18t20 -45q0 -34 -30 -67l-341 -443h325
q29 0 46 -19t17 -45t-18 -44.5t-53 -18.5h-432q-31 0 -50 18z" />
    <glyph glyph-name="Zcaron" unicode="&#x17d;" horiz-adv-x="610" 
d="M135 878q0 20 18 36.5t41 16.5q17 0 31 -10l80 -52l80 52q14 10 31 10q24 0 42.5 -16.5t18.5 -37.5q0 -19 -20 -35l-119 -78q-17 -11 -34 -11q-18 0 -32 11l-117 78q-20 16 -20 36zM34 18q-19 18 -19 43q0 23 17 43l356 473h-295q-30 0 -46.5 17.5t-16.5 42.5t17 44
t46 19h403q34 0 54 -18t20 -45q0 -34 -30 -67l-341 -443h325q29 0 46 -19t17 -45t-18 -44.5t-53 -18.5h-432q-31 0 -50 18z" />
    <glyph glyph-name="zcaron" unicode="&#x17e;" horiz-adv-x="610" 
d="M145 882q0 20 18 36.5t41 16.5q17 0 31 -10l80 -52l80 52q14 10 31 10q24 0 42.5 -16.5t18.5 -37.5q0 -19 -20 -35l-119 -78q-17 -11 -34 -11q-18 0 -32 11l-117 78q-20 16 -20 36zM34 18q-19 18 -19 43q0 23 17 43l356 473h-295q-30 0 -46.5 17.5t-16.5 42.5t17 44
t46 19h403q34 0 54 -18t20 -45q0 -34 -30 -67l-341 -443h325q29 0 46 -19t17 -45t-18 -44.5t-53 -18.5h-432q-31 0 -50 18z" />
    <glyph glyph-name="circumflex" unicode="&#x2c6;" horiz-adv-x="371" 
d="M325 618q18 -15 18 -36q0 -20 -16 -36.5t-36 -16.5q-14 0 -27 10l-70 52l-70 -52q-13 -10 -28 -10q-20 0 -36.5 16.5t-16.5 37.5q0 20 18 35l104 78q16 11 30 11q16 0 28 -11z" />
    <glyph glyph-name="caron" unicode="&#x2c7;" horiz-adv-x="372" 
d="M45 623q-18 15 -18 36q0 20 16 36.5t36 16.5q14 0 27 -10l70 -52l70 52q13 10 28 10q20 0 36.5 -16.5t16.5 -37.5q0 -20 -18 -35l-104 -78q-16 -11 -30 -11q-16 0 -28 11z" />
    <glyph glyph-name="breve" unicode="&#x2d8;" horiz-adv-x="401" 
d="M80 566q-39 41 -39 99q0 20 14.5 31t34.5 11t34.5 -11t14.5 -31q0 -21 17.5 -32t41.5 -11t41.5 11.5t17.5 31.5t14.5 31t34.5 11t34.5 -11t14.5 -31q0 -59 -37.5 -99.5t-119.5 -40.5q-79 0 -118 41z" />
    <glyph glyph-name="dotaccent" unicode="&#x2d9;" horiz-adv-x="232" 
d="M42 646q0 32 21.5 50t51.5 18q29 0 50.5 -18t21.5 -50v-19q0 -32 -22 -50.5t-52 -18.5q-29 0 -50 18t-21 51v19z" />
    <glyph glyph-name="ring" unicode="&#x2da;" horiz-adv-x="354" 
d="M77 687q40 34 94 34t94 -34t40 -94q0 -56 -40 -87.5t-94 -31.5t-94 31.5t-40 87.5q0 60 40 94zM202 623q-12 11 -29 11q-16 0 -28.5 -11t-12.5 -30q0 -16 12.5 -24.5t28.5 -8.5q17 0 29 8.5t12 24.5q0 19 -12 30z" />
    <glyph glyph-name="tilde" unicode="&#x2dc;" horiz-adv-x="476" 
d="M230 704q25 -10 40 -22q12 -13 29 -18q10 -6 17 -6l6 1q2 2 3.5 2.5t2.5 0.5l7 6l3 3q13 25 40 25q12 0 23 -8q11 -7 17 -18t6 -23q0 -15 -7 -26q-1 -1 -3 -5.5t-5 -9.5q-2 -2 -9 -9.5t-14 -12.5q-11 -10 -27 -16q-18 -9 -43 -9q-30 0 -51 10q-34 18 -51 33q-5 3 -8.5 5
t-6.5 3t-5 2t-4 1q-3 0 -9 -3q-4 0 -8 -4q-5 -2 -10 -6.5t-7 -6.5q-3 -4 -3 -5q-16 -19 -38 -19q-15 0 -27 9q-19 15 -19 40q0 17 9 30q1 2 3.5 5t6.5 8q3 3 10 10.5t16 14.5q22 14 27 16q20 10 49 10q21 0 40 -8z" />
    <glyph glyph-name="endash" unicode="&#x2013;" horiz-adv-x="577" 
d="M113 279q-30 0 -46.5 18t-16.5 42q0 25 16.5 43t46.5 18h351q28 0 43.5 -17.5t15.5 -41.5q0 -25 -16 -43.5t-43 -18.5h-351z" />
    <glyph glyph-name="emdash" unicode="&#x2014;" horiz-adv-x="725" 
d="M113 279q-30 0 -46.5 18t-16.5 42q0 25 16.5 43t46.5 18h489q28 0 43.5 -17.5t15.5 -41.5q0 -25 -16 -43.5t-43 -18.5h-489z" />
    <glyph glyph-name="quotesinglbase" unicode="&#x201a;" horiz-adv-x="206" 
d="M52 208q0 22 16.5 34t40.5 12q23 0 40 -12t17 -34v-172q0 -23 -17.5 -36.5t-40.5 -13.5t-39.5 13t-16.5 37v172z" />
    <glyph glyph-name="quotedblbase" unicode="&#x201e;" horiz-adv-x="405" 
d="M68.5 240q16.5 12 40.5 12q23 0 40 -12t17 -34v-172q0 -23 -17.5 -36.5t-40.5 -13.5t-39.5 13t-16.5 37v172q0 22 16.5 34zM261.5 240q16.5 12 40.5 12q23 0 40 -12t17 -34v-172q0 -23 -17.5 -36.5t-40.5 -13.5t-39.5 13t-16.5 37v172q0 22 16.5 34z" />
    <glyph glyph-name="bullet" unicode="&#x2022;" horiz-adv-x="296" 
d="M50 349q0 45 30.5 70t71.5 25t71 -25t30 -70v-27q0 -45 -31 -70.5t-73 -25.5q-41 0 -70 25t-29 71v27z" />
    <glyph glyph-name="ellipsis" unicode="&#x2026;" horiz-adv-x="696" 
d="M63.5 137q21.5 18 51.5 18q29 0 50.5 -18t21.5 -50v-19q0 -32 -22 -50.5t-52 -18.5q-29 0 -50 18t-21 51v19q0 32 21.5 50zM295.5 137q21.5 18 51.5 18q29 0 50.5 -18t21.5 -50v-19q0 -32 -22 -50.5t-52 -18.5q-29 0 -50 18t-21 51v19q0 32 21.5 50zM527.5 137
q21.5 18 51.5 18q29 0 50.5 -18t21.5 -50v-19q0 -32 -22 -50.5t-52 -18.5q-29 0 -50 18t-21 51v19q0 32 21.5 50z" />
    <glyph glyph-name="perthousand" unicode="&#x2030;" horiz-adv-x="1339" 
d="M51.5 635.5q25.5 44.5 66.5 67t87 22.5q47 0 88 -22.5t66 -67t25 -107.5t-25 -108t-66 -67.5t-88 -22.5q-46 0 -87 22.5t-66.5 67.5t-25.5 108t25.5 107.5zM192 31.5q-9 14.5 -9 30.5q0 21 14 38l406 569q7 12 21.5 19t30.5 7q20 0 34 -10q28 -26 28 -60q0 -19 -9 -37
l-404 -561q-9 -13 -24.5 -20t-32.5 -7t-31 9q-15 8 -24 22.5zM249.5 591q-17.5 23 -41.5 23t-42 -23t-18 -63t18 -62.5t42 -22.5t41.5 22.5t17.5 62.5t-17.5 63zM563.5 293q25.5 45 66.5 68t88 23t88 -23t66.5 -68t25.5 -109q0 -63 -25.5 -107.5t-66.5 -67t-88 -22.5
t-88 22.5t-66.5 67t-25.5 107.5q0 64 25.5 109zM970.5 293q25.5 45 66.5 68t88 23t88 -23t66.5 -68t25.5 -109q0 -63 -25.5 -107.5t-66.5 -67t-88 -22.5t-88 22.5t-66.5 67t-25.5 107.5q0 64 25.5 109zM762.5 247q-18.5 23 -43.5 23q-26 0 -44.5 -22.5t-18.5 -63.5
q0 -37 18.5 -57.5t44.5 -20.5q25 0 43.5 20.5t18.5 57.5q0 40 -18.5 63zM1169.5 247q-18.5 23 -43.5 23q-26 0 -44.5 -22.5t-18.5 -63.5q0 -37 18.5 -57.5t44.5 -20.5q25 0 43.5 20.5t18.5 57.5q0 40 -18.5 63z" />
    <glyph glyph-name="Euro" unicode="&#x20ac;" horiz-adv-x="665" 
d="M235 379v-62h173q32 0 49.5 -18t17.5 -42q0 -25 -17.5 -43t-49.5 -18h-148q21 -48 53.5 -64t90.5 -16q38 0 65.5 10.5t44.5 40.5q20 27 49 27q26 0 46 -20.5t20 -46.5q0 -17 -10 -33q-31 -53 -89.5 -80t-128.5 -27q-112 0 -179.5 52t-92.5 157h-45q-31 0 -48.5 18
t-17.5 43q0 24 17.5 42t48.5 18h18v62h-18q-31 0 -48.5 17t-17.5 40t17.5 39.5t48.5 16.5h45q12 62 53 110.5t100.5 75t122.5 26.5q56 0 113 -26t83 -70q11 -16 11 -36q0 -25 -20 -43t-46 -18q-13 0 -25.5 6.5t-21.5 18.5q-12 18 -42.5 27.5t-55.5 9.5q-52 0 -83 -18
t-43.5 -40.5t-7.5 -22.5h141q32 0 49.5 -16.5t17.5 -39.5t-17.5 -40t-49.5 -17h-173z" />
    </font>
</defs>
</svg>
